<svg xmlns="http://www.w3.org/2000/svg" width="778.561" height="551.406" viewBox="0 0 778.561 551.406">
  <g id="hero-img" transform="translate(0 2707.5)">
    <path id="Path_1855" data-name="Path 1855" d="M2168.294-2616.184c-14,24.669-51.539,40.529-80.141,49.854-39.339,12.979-98.969,19.957-121.121-14.508-15.973-24.883,22.017-67.19,70.991-96.953l0,0c17.573-10.687,37.31-20.189,56.954-26.447C2151.731-2722.3,2194.021-2661.508,2168.294-2616.184Z" transform="translate(-1497.975 0)" fill="#fbecda"/>
    <path id="Path_1856" data-name="Path 1856" d="M1934.174-2664.07H2025a4.556,4.556,0,0,1,4.544,4.542v46.073a4.556,4.556,0,0,1-4.544,4.542h-7.68l3.709,15.658-23.276-15.658h-63.577a4.555,4.555,0,0,1-4.544-4.542v-46.073A4.555,4.555,0,0,1,1934.174-2664.07Z" transform="translate(-1472.261 -33.136)" fill="#f1a24e"/>
    <path id="Path_1857" data-name="Path 1857" d="M1964.339-2573.485h80.233a1.994,1.994,0,0,0,1.989-1.986,2,2,0,0,0-1.989-1.989h-80.233a1.994,1.994,0,0,0-1.989,1.989A1.992,1.992,0,0,0,1964.339-2573.485Z" transform="translate(-1497.226 -99.218)" fill="#ffba78"/>
    <path id="Path_1858" data-name="Path 1858" d="M2044.572-2539.93h-80.233a1.993,1.993,0,0,0-1.989,1.987,1.994,1.994,0,0,0,1.989,1.989h80.233a2,2,0,0,0,1.989-1.989A1.994,1.994,0,0,0,2044.572-2539.93Z" transform="translate(-1497.226 -127.852)" fill="#ffba78"/>
    <path id="Path_1859" data-name="Path 1859" d="M2044.572-2502.41h-80.233a1.992,1.992,0,0,0-1.989,1.987,1.994,1.994,0,0,0,1.989,1.989h80.233a2,2,0,0,0,1.989-1.989A1.994,1.994,0,0,0,2044.572-2502.41Z" transform="translate(-1497.226 -156.478)" fill="#ffba78"/>
    <path id="Path_1860" data-name="Path 1860" d="M2147.535-2634.2H2181.6a2.374,2.374,0,0,0,2.368-2.365,2.374,2.374,0,0,0-2.368-2.366h-34.061a2.374,2.374,0,0,0-2.365,2.366A2.374,2.374,0,0,0,2147.535-2634.2Z" transform="translate(-1636.713 -52.317)" fill="#ffba78"/>
    <path id="Path_1861" data-name="Path 1861" d="M2025.648-2634.2h20.5a1.877,1.877,0,0,0,1.87-1.87v-.991a1.877,1.877,0,0,0-1.87-1.87h-20.5a1.874,1.874,0,0,0-1.868,1.87v.991A1.874,1.874,0,0,0,2025.648-2634.2Z" transform="translate(-1544.095 -52.317)" fill="#ffba78"/>
    <path id="Path_1862" data-name="Path 1862" d="M2476.991-2601.253c-3.371-2.062-8.751.4-8.751.4,1.863-2.615,8.646-1.759,8.646-1.759-13.518-2.877-16.34,5.767-16.57,6.575-9.808-8.848-25.506,10.014-25.506,10.014l22.529,29.863s2.055-4.753,4.769-3.269c4.233,2.311,12.42-7.045,9.8-19.356a32.138,32.138,0,0,0-1-3.662,7.317,7.317,0,0,0,2.811.7c2.463,0,6.184-6.283,6.689-8.4S2480.357-2599.193,2476.991-2601.253Z" transform="translate(-1857.701 -79.582)" fill="#233761"/>
    <path id="Path_1863" data-name="Path 1863" d="M2447.235-2356.247c1.024-16.421-6.943-34.205-13.452-39.3a7.3,7.3,0,0,0-2.939-1.512,1.691,1.691,0,0,1-.607-.332c-1.83-1.474-4.3-7.348-4.7-16.354-.038-.891-.059-1.811-.057-2.764,0,0,0,0,0,0l-.9.178-.865.171h0l-14.319,2.835c.083,1.027.356,5.81.356,9.282.012,3.75-.216,7.3-1.064,7.753-.023,0-.237.019-.46.043-.5.05-1.252.13-1.3.137a95.425,95.425,0,0,0-9.59,17.646v.012l0,0a53.391,53.391,0,0,0-4.107,16.258,36.87,36.87,0,0,0,.635,9.384v0c.806,4.335,2.164,8.884,2.97,13.9,6.757-1.579,13.247-3.421,19.265-5.406A302.036,302.036,0,0,0,2447.235-2356.247Z" transform="translate(-1825.916 -222.018)" fill="#ffb17d"/>
    <path id="Path_1864" data-name="Path 1864" d="M2461.68-2412.755s.346,4.778.355,9.279c8.5-.239,12.989-7.99,14.828-12.285Z" transform="translate(-1878.202 -222.591)" fill="#e7945b"/>
    <path id="Path_1865" data-name="Path 1865" d="M2447.654-2523.151s4.452-7.035,5.523-13.051c.761-4.295-1.425-20.213-17.424-17.921a21.728,21.728,0,0,0-9.012,3.406c-3.472,2.346-8.485,7.412-2.882,21.3l1.456,4.693Z" transform="translate(-1847.426 -116.852)" fill="#233761"/>
    <path id="Path_1866" data-name="Path 1866" d="M2428.16-2494.278s20.1.334,20.116-12.188,2.616-20.913-10.216-21.652-15.333,4.032-16.355,8.21S2422.931-2494.686,2428.16-2494.278Z" transform="translate(-1847.519 -136.806)" fill="#ffb17d"/>
    <path id="Path_1867" data-name="Path 1867" d="M2452.86-2539.667s5.5,14.691,13.949,16.862,12.11-.09,12.11-.09-2.186-8.35-3.529-17.336C2475.389-2540.231,2457.011-2546.66,2452.86-2539.667Z" transform="translate(-1871.473 -125.564)" fill="#233761"/>
    <path id="Path_1868" data-name="Path 1868" d="M2425.845-2531.85s-4.11,3.281-5.111,6.469-1.453,9.753-3.366,9.529c0,0-4.146-9.984.512-15.632C2422.825-2537.475,2425.845-2531.85,2425.845-2531.85Z" transform="translate(-1843.097 -132.189)" fill="#233761"/>
    <path id="Path_1869" data-name="Path 1869" d="M2574.917-2299.768q-5.017,2.51-9.853,4.717-2.819,1.294-5.568,2.491c-.239.107-.483.208-.72.311-2.344-8.457-4.314-15.4-4.314-15.4l-1.484-6.433-3-12.969v-.005l-2.072-8.971s.142.014.406.045c.661.075,2.078.249,3.852.528a55.085,55.085,0,0,1,10.877,2.688c.024.012.047.019.071.034.062.021.116.045.173.068a8.246,8.246,0,0,1,3.568,2.394s.007,0,.007.007a.015.015,0,0,0,0,.009s0,0,0,.005a2.711,2.711,0,0,1,.233.405C2569.82-2323.864,2572.542-2311.925,2574.917-2299.768Z" transform="translate(-1943.993 -283.423)" fill="#ffb17d"/>
    <path id="Path_1870" data-name="Path 1870" d="M2455.39-2534.918s3.92,15.383,14.577,20.308c0,0-10.656-9.45-11.562-19.607S2455.39-2534.918,2455.39-2534.918Z" transform="translate(-1873.403 -128.623)" fill="#233761"/>
    <path id="Path_1871" data-name="Path 1871" d="M2229.305-2288.922c-.294,1.33-.576,2.717-.837,4.16-.692,3.8-1.249,7.99-1.636,12.61,0,0-16.861-10.529-20.607-16.011a57.991,57.991,0,0,0-.2-8.727,5.981,5.981,0,0,0-.882-2.757c-.2-.239-.433-.493-.682-.756,0,0,0,0,0,0a25.251,25.251,0,0,0-2.773-2.453,5.741,5.741,0,0,0-2.365-1.277.36.36,0,0,0-.069,0,.512.512,0,0,0-.1.026c-1.164.386-4.9,5.521-3.726,9.479,1.2,4.089,6.3,9.621,6.3,9.621s8.557,14.831,18.815,23.906c6.158-.649,12.3-1.612,18.289-2.809a103.992,103.992,0,0,0,4-15.411v0c1.635-8.594,2.749-18.014,3.472-25.641l0,0v-.014c.379-4.017.654-7.537.837-10.18.151-2.145.241-3.709.284-4.485.024-.36.031-.55.031-.55a6.2,6.2,0,0,0-.725.367C2244.02-2318.3,2234.323-2311.4,2229.305-2288.922Z" transform="translate(-1674.887 -295.501)" fill="#ffb17d"/>
    <path id="Path_1872" data-name="Path 1872" d="M2374.619-2281.084c13.164-4.293,28.225-9.972,42.012-17.256-2.668-11.521-6.077-24.043-9.028-29.661a2.3,2.3,0,0,0-.287-.427s0,0,0,0a.021.021,0,0,1,0-.01s-.005,0-.007-.007a4.6,4.6,0,0,0-.891-.811.719.719,0,0,1,.045-.059,14.946,14.946,0,0,0-2.894-1.593c-.024-.014-.047-.021-.071-.033a45.026,45.026,0,0,0-10.872-2.7s0,0,0,.007c-.014.073-.126.562-.306,1.315-.384,1.614-1.09,4.451-1.88,7.082v0c-.825,2.749-1.742,5.276-2.482,5.954-1.813,1.656-28.054,4.37-28.659,1.358-.576-2.882,6.909-14.115,7.462-15.1-2.178.2-6.222.789-7.9,1.073a11.138,11.138,0,0,0-4.975,1.984c-3.531,2.676-11.837,10.892-15.082,30.69l.069.1c.58.751,4.482,5.66,9.82,7.191.152.045.306.083.457.121-.287,4.814-1.175,11.683-2.014,17.943A224.987,224.987,0,0,0,2374.619-2281.084Z" transform="translate(-1784.44 -285.246)" fill="#8ba5ff"/>
    <path id="Path_1873" data-name="Path 1873" d="M2223.144-2292.17l-9.306,2.79a.582.582,0,0,1-.725-.391l-5.319-17.744a.585.585,0,0,1,.391-.725l9.306-2.79a.586.586,0,0,1,.728.391l5.316,17.744A.583.583,0,0,1,2223.144-2292.17Z" transform="translate(-1684.475 -302.478)" fill="#f1a24e"/>
    <path id="Path_1874" data-name="Path 1874" d="M2214.688-2289.173l-8.441,2.529a1.035,1.035,0,0,1-1.289-.695l-5.058-16.876a1.038,1.038,0,0,1,.694-1.289l8.441-2.529a1.035,1.035,0,0,1,1.289.694l5.058,16.876A1.037,1.037,0,0,1,2214.688-2289.173Z" transform="translate(-1678.437 -304.75)" fill="#d86612"/>
    <path id="Path_1875" data-name="Path 1875" d="M2569.963-2163.32c-.884-2.318-1.91-4.278-2.593-4.119-.645.147-2.782,3.126-4.66,7.039Q2566.319-2161.8,2569.963-2163.32Z" transform="translate(-1955.286 -412.047)" fill="#5e99a7"/>
    <path id="Path_1876" data-name="Path 1876" d="M2205.016-2253.814s2.937-2.664,5.335-.144-.91,7.021-3.328,8.092a18.649,18.649,0,0,0-3.224,1.68Z" transform="translate(-1681.446 -345.215)" fill="#ffb17d"/>
    <path id="Path_1877" data-name="Path 1877" d="M2443.72-2419.487s-.346,1.475-4.02,1.247c0,0-3.081-.189-2.987-1.811A9.918,9.918,0,0,1,2443.72-2419.487Z" transform="translate(-1859.151 -219.027)" fill="#fff"/>
    <path id="Path_1878" data-name="Path 1878" d="M1505.71-2583.979l30.991,10.133-18.564-18.094-1.887,4.421-7.976.04Z" transform="translate(-1148.82 -88.169)" fill="#ca5e00"/>
    <path id="Path_1879" data-name="Path 1879" d="M1476.312-2593.393l-24.053-18.3-25.7-5.869Z" transform="translate(-1088.431 -68.622)" fill="#f1a24e"/>
    <path id="Path_1880" data-name="Path 1880" d="M1558.14-2615.288l18.564,18.094-12.375-25.347Z" transform="translate(-1188.823 -64.822)" fill="#f1a24e"/>
    <path id="Path_1881" data-name="Path 1881" d="M233.179-2056.148c-54.495.136-102.745-9.51-151.564-45.353-70.745-51.939-91.978-128.958-77.154-167.723,13.915-36.388,58.142-49.59,86.871-70.617,39-28.55,71.792-71.1,123.068-77.168,11.031-1.306,30.47,2.2,40.816,6.774,34.463,15.221,129.306,97.047,150.743,127.247,23.669,33.342,44.207,69.476,45.478,110.721.822,26.7-7.812,57.241-27.341,77.448C389.706-2059.241,314.977-2056.352,233.179-2056.148Z" transform="translate(0 -221.428)" fill="#e5c6b1" fill-rule="evenodd"/>
    <path id="Path_1882" data-name="Path 1882" d="M1272.67-1983.4c48.716,24.425,87.448,54.774,114.888,108.763,39.766,78.239,24.03,156.566-6.667,184.5-28.815,26.219-74.248,18.082-109.368,23.915-47.682,7.92-96.123,31.138-144.637,13.459-10.436-3.8-26.21-15.692-33.39-24.433-23.911-29.115-71.728-144.89-77.265-181.51-6.11-40.429-8.172-81.942,9.272-119.337,11.292-24.207,32.759-47.587,59.3-56.829C1131.529-2051.145,1199.55-2020.064,1272.67-1983.4Z" transform="translate(-771.993 -509.815)" fill="#edf1f6" fill-rule="evenodd"/>
    <path id="Path_1883" data-name="Path 1883" d="M1949.077-1698.862c-35.44-22.422-28.161-40.913-65.731-68.5-54.442-39.972-70.783-99.242-59.375-129.076,10.709-28,44.745-38.161,66.853-54.343,30.014-21.97,55.248-54.715,94.71-59.386,8.488-1.005,23.449,1.7,31.411,5.212,26.52,11.716,99.11,90.01,115.609,113.25,18.213,25.658,34.02,53.465,35,85.208.633,20.545-6.684,43.428-21.041,59.6C2125.1-1722.774,2040.41-1641.078,1949.077-1698.862Z" transform="translate(-1389.027 -531.889)" fill="#e77167" fill-rule="evenodd"/>
    <path id="Path_1884" data-name="Path 1884" d="M146.866-1770.135c-106.34-37.907-38.18-200.952,62.186-192.751,52.947,4.326,62.435-75.336,87.694-100.4,34.869-34.6,64.988-43.447,93.158-40.391q2.012.217,4.015.517c57.166,8.488,106.756,63.823,172.67,47.851,89.446-21.678,157.311,7.6,179.036,55.674,39.1,86.516-21.591,100.66-42.309,170-20.83,69.7-93.316,130.532-204.824,101.055-135.578-35.839-183.073-75.708-244.694-47.092C214.8-1757.569,183.816-1756.964,146.866-1770.135Z" transform="translate(-71.125 -460.272)" fill="#fbecda"/>
    <path id="Path_1885" data-name="Path 1885" d="M1817.21-1450.24l4.091,23.169,11.292,64,10.095,57.208a1.842,1.842,0,0,0,1.828,1.5,1.291,1.291,0,0,0,1.306-1.447l-8.706-64.857-9.31-69.372L1826.4-1450.5Z" transform="translate(-1386.487 -959.061)" fill="#a0785e"/>
    <path id="Path_1886" data-name="Path 1886" d="M914.072-1304.36a1.843,1.843,0,0,0,1.829-1.5l8.968-50.832,12.9-73.1,3.608-20.443-9.19-.26-1.592,11.868L919.4-1355.24l-6.635,49.434A1.3,1.3,0,0,0,914.072-1304.36Z" transform="translate(-696.409 -959.061)" fill="#a0785e"/>
    <path id="Path_1887" data-name="Path 1887" d="M2005.8-1450.24l4.091,23.169,11.289,64,10.1,57.208a1.84,1.84,0,0,0,1.828,1.5,1.292,1.292,0,0,0,1.306-1.447l-8.706-64.857-9.312-69.372-1.4-10.464Z" transform="translate(-1530.377 -959.061)" fill="#c69d7e"/>
    <path id="Path_1888" data-name="Path 1888" d="M2009.891-1427.07c-.538-9.955,6.5-12.965,6.5-12.965l-1.4-10.464-9.189.26Z" transform="translate(-1530.377 -959.061)" fill="#a0785e"/>
    <path id="Path_1889" data-name="Path 1889" d="M696.743-1304.36a1.844,1.844,0,0,0,1.83-1.5l8.968-50.832,12.9-73.1,3.607-20.443-9.188-.26-1.594,11.868-11.193,83.392-6.636,49.434A1.294,1.294,0,0,0,696.743-1304.36Z" transform="translate(-530.593 -959.061)" fill="#c69d7e"/>
    <path id="Path_1890" data-name="Path 1890" d="M770.69-1438.632a13.179,13.179,0,0,1,7.175,8.836l3.607-20.443-9.188-.26Z" transform="translate(-588.018 -959.061)" fill="#a0785e"/>
    <path id="Path_1891" data-name="Path 1891" d="M661.868-2148.63h92.748a4.65,4.65,0,0,1,4.639,4.636v47.047a4.65,4.65,0,0,1-4.639,4.638h-7.841l3.783,15.99-23.766-15.99H661.868a4.651,4.651,0,0,1-4.638-4.638v-47.047A4.651,4.651,0,0,1,661.868-2148.63Z" transform="translate(-501.451 -426.405)" fill="#c65346"/>
    <path id="Path_1892" data-name="Path 1892" d="M692.674-2060.19h81.934a2.036,2.036,0,0,1,2.029,2.031,2.036,2.036,0,0,1-2.029,2.029H692.674a2.037,2.037,0,0,1-2.029-2.029A2.036,2.036,0,0,1,692.674-2060.19Z" transform="translate(-526.945 -493.882)" fill="#ece2dc"/>
    <path id="Path_1893" data-name="Path 1893" d="M692.674-2021.87h81.934a2.034,2.034,0,0,1,2.029,2.029,2.034,2.034,0,0,1-2.029,2.029H692.674a2.035,2.035,0,0,1-2.029-2.029A2.035,2.035,0,0,1,692.674-2021.87Z" transform="translate(-526.945 -523.119)" fill="#ece2dc"/>
    <path id="Path_1894" data-name="Path 1894" d="M692.674-1983.55h81.934a2.034,2.034,0,0,1,2.029,2.029,2.034,2.034,0,0,1-2.029,2.029H692.674a2.035,2.035,0,0,1-2.029-2.029A2.035,2.035,0,0,1,692.674-1983.55Z" transform="translate(-526.945 -552.356)" fill="#ece2dc"/>
    <path id="Path_1895" data-name="Path 1895" d="M914.536-2118.129H879.755a2.421,2.421,0,0,1-2.415-2.416,2.423,2.423,0,0,1,2.415-2.415h34.781a2.424,2.424,0,0,1,2.418,2.415A2.423,2.423,0,0,1,914.536-2118.129Z" transform="translate(-669.389 -445.99)" fill="#ece2dc"/>
    <path id="Path_1896" data-name="Path 1896" d="M776.2-2118.129h-20.93a1.914,1.914,0,0,1-1.909-1.908v-1.012a1.914,1.914,0,0,1,1.909-1.91H776.2a1.914,1.914,0,0,1,1.909,1.91v1.012A1.914,1.914,0,0,1,776.2-2118.129Z" transform="translate(-574.798 -445.99)" fill="#ece2dc"/>
    <path id="Path_1897" data-name="Path 1897" d="M637.6-1467.219H992.667a6.874,6.874,0,0,0,6.857-6.852v-2.342a6.875,6.875,0,0,0-6.857-6.857H637.6a6.874,6.874,0,0,0-6.854,6.857v2.342A6.873,6.873,0,0,0,637.6-1467.219Z" transform="translate(-481.247 -934.058)" fill="#c69d7e"/>
    <path id="Path_1898" data-name="Path 1898" d="M2013.5-1134.946s8.844-10.318.545-16.871c0,0-6.058-3.667-11-3.368,0,0,7,11.742,4.738,12.911s-6.862-13.648-6.862-13.648-13.793-1.337-18.229.794c0,0,11.792,9.649,9.308,10.223s-15.217-8.9-15.217-8.9-12.84,2.185-12.157,10.019,5.11,10.247,7.054,10.038,13.318-4.548,13.562-2.953-6.6,6.8-11.389,7.042c0,0,9.05,9.979,15.065,7.1s6.53-7.445,10.277-9.159,6.952-1.711,5.4.038-8.334,3.444-10.479,7.236-4.065,6.351,2.157,5.414,16.34-5.49,16.784-10.7Z" transform="translate(-1498.942 -1183.5)" fill="#81b378"/>
    <path id="Path_1899" data-name="Path 1899" d="M1991.33-1102.685s34.866-1.344,42.567,8.628a25.221,25.221,0,0,0,6.945,9.744l.815,2.226s-6.042-6.369-8.2-6.753C2033.454-1088.84,2036.836-1101.2,1991.33-1102.685Z" transform="translate(-1519.337 -1224.389)" fill="#81b378"/>
    <path id="Path_1900" data-name="Path 1900" d="M2193.883-1027.805a21.884,21.884,0,0,1,8,15.425l-1.359.121s-2.389-10.223-6.71-14.224S2193.883-1027.805,2193.883-1027.805Z" transform="translate(-1672.377 -1280.897)" fill="#81b378"/>
    <path id="Path_1901" data-name="Path 1901" d="M2271.6-1238.094s-14.07-7.879-7.5-18.569c0,0,5.252-6.566,10.877-8.251,0,0-3,15.942,0,16.314s2.064-18,2.064-18,14.816-7.127,20.631-6.566c0,0-9.189,15.57-6.189,15.193s13.318-16.132,13.318-16.132,15.191-2.811,17.63,6.191-1.5,13.5-3.752,14.067-16.691.375-16.314,2.252,10.125,4.876,15.565,3.188c0,0-6,14.816-13.88,14.067s-10.315-5.625-15.191-6-8.44.936-6,2.25,10.69.431,14.629,3.78,7.127,5.409-.187,6.912-20.448.564-23.072-5.065Z" transform="translate(-1726.122 -1093.327)" fill="#a7d19e"/>
    <path id="Path_1902" data-name="Path 1902" d="M2333.19-1234.78s-39.389,12.752-43.887,27.009a29.919,29.919,0,0,1-3.752,13.693v2.811s4.124-9.564,6.376-10.877C2291.926-1202.144,2283.111-1214.524,2333.19-1234.78Z" transform="translate(-1743.819 -1123.65)" fill="#81b378"/>
    <path id="Path_1903" data-name="Path 1903" d="M2273.708-1068.7a25.977,25.977,0,0,0-2.612,20.453l1.562-.422s-1.517-12.367,1.661-18.589S2273.708-1068.7,2273.708-1068.7Z" transform="translate(-1731.977 -1249.029)" fill="#81b378"/>
    <path id="Path_1904" data-name="Path 1904" d="M1988.007-1321.236s18.545-10.386,9.889-24.48c0,0-6.923-8.651-14.338-10.877,0,0,3.954,21.015,0,21.51s-2.721-23.733-2.721-23.733-19.533-9.4-27.2-8.656c0,0,12.114,20.522,8.156,20.029s-17.552-21.263-17.552-21.263-20.028-3.709-23.24,8.158,1.977,17.8,4.942,18.543,22.008.5,21.512,2.97-13.354,6.426-20.521,4.2c0,0,7.912,19.531,18.3,18.542s13.6-7.419,20.029-7.912,11.124,1.237,7.912,2.967-14.094.569-19.287,4.98-9.4,7.134.247,9.114,26.95.739,30.412-6.677Z" transform="translate(-1464.907 -1021.048)" fill="#a7d19e"/>
    <path id="Path_1905" data-name="Path 1905" d="M1962.86-1316.87s51.92,16.812,57.855,35.6a39.447,39.447,0,0,0,4.947,18.049v3.707s-5.442-12.61-8.407-14.34C2017.255-1273.85,2028.876-1290.169,1962.86-1316.87Z" transform="translate(-1497.615 -1061.017)" fill="#81b378"/>
    <path id="Path_1906" data-name="Path 1906" d="M2219.828-1097.946s8,12.157,3.442,26.96l-2.062-.555s2-16.3-2.19-24.5S2219.828-1097.946,2219.828-1097.946Z" transform="translate(-1691.781 -1226.288)" fill="#81b378"/>
    <path id="Path_1907" data-name="Path 1907" d="M2092.662-958.28A36.322,36.322,0,0,1,2056.34-994.6h72.648A36.324,36.324,0,0,1,2092.662-958.28Z" transform="translate(-1568.938 -1306.899)" fill="#f99745"/>
    <path id="Path_1908" data-name="Path 1908" d="M2171.88-958.556a36.35,36.35,0,0,0,4.513.276,36.321,36.321,0,0,0,36.322-36.323h-9.026A36.33,36.33,0,0,1,2171.88-958.556Z" transform="translate(-1657.092 -1306.899)" fill="#ffb973"/>
    <path id="Path_1909" data-name="Path 1909" d="M2054.21-847.982h73.653a4.483,4.483,0,0,0-4.482-4.482h-64.687A4.484,4.484,0,0,0,2054.21-847.982Z" transform="translate(-1567.313 -1415.348)" fill="#f99745"/>
    <path id="Path_1910" data-name="Path 1910" d="M2052.86-993.491h74.666V-994.6H2052.86Z" transform="translate(-1566.282 -1306.898)" fill="#d86612"/>
    <path id="Path_1911" data-name="Path 1911" d="M1624.141-1854.058l-30.991,10.133,18.566-18.094,1.882,4.423,7.981.038Z" transform="translate(-1215.535 -645.081)" fill="#ca5e00"/>
    <path id="Path_1912" data-name="Path 1912" d="M1593.15-1863.473l24.051-18.3,25.7-5.869Z" transform="translate(-1215.535 -625.533)" fill="#f1a24e"/>
    <path id="Path_1913" data-name="Path 1913" d="M1611.716-1885.367l-18.566,18.094,12.375-25.347Z" transform="translate(-1215.535 -621.734)" fill="#f1a24e"/>
    <path id="Path_1914" data-name="Path 1914" d="M351.164-1083.237c-.221-4.493-5.234-5.736-8.365-8.439-2.719-2.347-1.274-6.8-3.825-7.782-3.9-1.508-6.945,4.2-12,.7-3.21-2.219-.1-7.675-2.146-10.989-1.673-2.707-8.082-7.341-3.878-11.173,5.38-4.906,18.485,2.823,25.219,11.889,6.186,8.327,11.37,18.107,8.751,26.168C354.6-1081.866,352.127-1082.83,351.164-1083.237Z" transform="translate(-243.807 -1209.361)" fill="#8abd7f" fill-rule="evenodd"/>
    <path id="Path_1915" data-name="Path 1915" d="M430.469-1222.982c1.064-12.966-6.758-19.022-7.847-27.709-.734-5.85,2.775-9.464,1.581-14.428-1.34-5.572-6.118-8.22-6.5-13.361-.528-7.075,2.866-8.007,3.933-12.273,1.112-4.447-2.845-12.522,1.928-14.385,6.113-2.387,12.612,4.591,12.168,18.194-.147,4.494,5.093,5.553,4.865,10.993-.233,5.568-2.728,13.558-4.261,22.152a157.9,157.9,0,0,0-2.64,30.769Z" transform="translate(-318.654 -1069.616)" fill="#72a967" fill-rule="evenodd"/>
    <path id="Path_1916" data-name="Path 1916" d="M489.032-1156.377a38.606,38.606,0,0,0,3.193-6.221c1.125-3.055.969-6.586,2.566-9.423,2.763-4.907,7.946-5.011,11.649-8.73,2.688-2.7,2.946-10.1,1.8-18.694-.59-4.421,3.349-8.27,3.959-13.8.156-1.41-.642-4.022-2.861-4.691-7.484-2.254-10.681,6.288-12.642,11.747-2.667,7.424-8.26,8.253-10.921,21.079-1.842,8.874,2.429,19.8,1.054,28.73C486.717-1155.651,488.331-1156.157,489.032-1156.377Z" transform="translate(-370.277 -1136.221)" fill="#a7d19e" fill-rule="evenodd"/>
    <path id="Path_1917" data-name="Path 1917" d="M354.368-1097.04c16.029,9.637,28.062,19.194,25.535,35.87" transform="translate(-270.374 -1228.742)" fill="none" stroke="#468939" stroke-linecap="round" stroke-linejoin="round" stroke-width="3"/>
    <path id="Path_1918" data-name="Path 1918" d="M466.236-1184.09c.684-9.861-2.361-17.315-3.194-26.125-.757-8,3.28-20.5,2.591-31.152-.282-4.354-1.509-11.017-3.533-14.323" transform="translate(-352.571 -1107.696)" fill="none" stroke="#468939" stroke-linecap="round" stroke-linejoin="round" stroke-width="3"/>
    <path id="Path_1919" data-name="Path 1919" d="M497.964-1125.509c.427-35.6,10.7-38.194,15.968-53.4" transform="translate(-379.934 -1166.277)" fill="none" stroke="#468939" stroke-linecap="round" stroke-linejoin="round" stroke-width="3"/>
    <path id="Path_1920" data-name="Path 1920" d="M412.915-956.339a.573.573,0,0,1,.113-.483.573.573,0,0,1,.447-.214h28.5a.573.573,0,0,1,.445.211.573.573,0,0,1,.117.478l-5.462,26.505a.574.574,0,0,1-.568.458l-17.217-.182a.574.574,0,0,1-.554-.45Z" transform="translate(-315.034 -1335.561)" fill="#f99745" stroke="#d86612" stroke-linecap="round" stroke-linejoin="round" stroke-width="1.764" fill-rule="evenodd"/>
    <path id="Path_1921" data-name="Path 1921" d="M1118.545-1687.25a.1.1,0,0,1-.093-.067c-.682-2.209-18.12-58.663-18.905-61.2a.093.093,0,0,1,.062-.116c.744-.239,5.99-1.917,5.99-1.917h82.819l7.279,62.2Z" transform="translate(-838.925 -730.13)" fill="#b14940" fill-rule="evenodd"/>
    <path id="Path_1922" data-name="Path 1922" d="M1135.3-1688.348a.092.092,0,0,1-.088-.064c-.687-2.2-18.462-59.043-19.391-62.017a.087.087,0,0,1,.014-.083.091.091,0,0,1,.076-.038H1195.6l9.761,62.2Z" transform="translate(-851.344 -730.13)" fill="#c65346" fill-rule="evenodd"/>
    <path id="Path_1923" data-name="Path 1923" d="M1149.821-1681.278a.094.094,0,0,1-.09-.066c-.659-2.126-17.184-55.3-17.867-57.495a.056.056,0,0,1,.009-.047.054.054,0,0,1,.043-.024h76.336l9.343,57.63Z" transform="translate(-863.583 -739.011)" fill="#f9ddbe" fill-rule="evenodd"/>
    <path id="Path_1924" data-name="Path 1924" d="M1176.852-1492.866a.051.051,0,0,1-.045-.033c-.09-.254-.711-1.993-.834-2.335a.054.054,0,0,1,0-.043.046.046,0,0,1,.038-.019l7.262-.464,72.371.066.581,2.842-72.778-.014Z" transform="translate(-897.236 -924.528)" fill="#c65346" fill-rule="evenodd"/>
    <path id="Path_1925" data-name="Path 1925" d="M1176.852-1492.866a.051.051,0,0,1-.045-.033c-.09-.254-.711-1.993-.834-2.335a.054.054,0,0,1,0-.043.046.046,0,0,1,.038-.019l7.262-.464.173,2.894Z" transform="translate(-897.236 -924.528)" fill="#b14940" fill-rule="evenodd"/>
    <path id="Path_1926" data-name="Path 1926" d="M1645.8-959.282c-1.057,6.852.477,15.807,1.142,24.778.149,2,21.285,1.26,21.584.7,1.052-1.974.4-3.83.151-5.953a69.913,69.913,0,0,0-4.115-16.114c-.638-1.684-1.365-5.37-3.181-6.3C1657.444-964.18,1649.575-961.053,1645.8-959.282Z" transform="translate(-1255.427 -1331.15)" fill="#9cb4f1" fill-rule="evenodd"/>
    <path id="Path_1927" data-name="Path 1927" d="M1278.869-915.6s-.9-4.324,6.914-8.267c2.216-1.119,4.816-2.107,6.58-3.895,2.313-2.343,2.43-6.5,5.082-8.408a9.712,9.712,0,0,1,4.108-1.419c4.157-.707,10.955-2.5,15.009-.241a5.584,5.584,0,0,1,2.695,4.015c.287,1.356-.135,5.949-.021,7.327.272,3.284,1.342,6.013.275,8.663-1.147,2.85-6.032,2.113-8.632,2.162C1303.365-915.527,1278.869-915.6,1278.869-915.6Z" transform="translate(-975.722 -1349.368)" fill="#9db1ec" fill-rule="evenodd"/>
    <path id="Path_1928" data-name="Path 1928" d="M1336.275-1395.08c-8.609,3.939-20.96,12.349-25.506,20.917-4.255,8.018-2.569,16.165-2.181,24.921.529,11.934,5.089,52.843,6.421,61.2.289,1.806.062,7.1,1.908,8.119,3.8,2.1,11.026-.89,15.115-1.4,2.8-.347,7.2.189,9.727-.937,1.425-.635,1.652-2.579,1.676-3.925.068-3.786-.884-7.715-1.429-11.45-2.391-16.395-1.5-33.053-2.927-49.531-.573-6.6,1.46-10.735,5.8-15.878,2.6-3.084,7.428-6.976,7.03-11.425-.377-4.245-5.414-8.725-8.047-11.835C1341.805-1388.721,1336.275-1395.08,1336.275-1395.08Z" transform="translate(-997.921 -1001.345)" fill="#24406d" fill-rule="evenodd"/>
    <path id="Path_1929" data-name="Path 1929" d="M1340.993-1171.28c3.65-.227,7.959-1.758,10.78-2.107,2.183-.271,5.336-.005,7.815-.41.085-.12.166-.248.244-.384,1.887-3.339,2.4-7.844,2.475-12.134-.2-1.139-.4-2.27-.559-3.383-2.164-14.835-1.638-29.886-2.579-44.823q-.1-1.2-.164-2.4-.085-1.155-.185-2.311a18.562,18.562,0,0,1,.759-7.653,21.873,21.873,0,0,1,2.425-6.608c-3.977.187-8.637-.829-12.33.868-3.186,1.467-9.6,7.857-11.576,13.1a65.658,65.658,0,0,0-4.091,18.6c-.614,8.625.375,11.292.431,21.119.036,5.876.488,11.241.69,16.986.107,3.046.13,6.413,2.119,8.915A8.571,8.571,0,0,0,1340.993-1171.28Z" transform="translate(-1017.661 -1109.272)" fill="#173350" fill-rule="evenodd"/>
    <path id="Path_1930" data-name="Path 1930" d="M1565.34-1248.332l15.409,67.635h29.168l-13.873-75.1Z" transform="translate(-1194.317 -1107.612)" fill="#173351" fill-rule="evenodd"/>
    <path id="Path_1931" data-name="Path 1931" d="M1470.491-1762.02a24.943,24.943,0,0,1,8.832,5.625c7.009,6.584,12.027,15.347,16.843,23.522,2.029,3.446,4.326,6.983,5.155,10.965a12.435,12.435,0,0,1-.016,5.418c-2.88,12.74-18.642,8.888-27.938,8.767-3.434-.045-7.151,1.361-10.756,4.188-5.276,4.138-12.78,12.913-17.729,33.93-.818,3.472-1.733,8.4-3.086,11.737-.45,1.1-1.458,2.859-2.868,2.87-2.057.014-3.807-2.64-4.868-3.932-3.918-4.757-9.225-11.9-10.529-15.053-.6-1.453.761-2.607,2.707-3.868.917-.593,2.33-.953,2.787-2.05.559-1.346.242-4.473.173-7.044-.109-3.923-.225-8.727-.232-9.057l6.537-5.442c3.973-2.4,7.618-5.575,10.856-7.454,4.333-2.515,9.128-4,13.56-6.336,5.592-2.949,21.508-35.511,20.536-37.336C1478.268-1756.813,1474.006-1759.787,1470.491-1762.02Z" transform="translate(-1086.01 -721.378)" fill="#3854da" fill-rule="evenodd"/>
    <path id="Path_1932" data-name="Path 1932" d="M1210.019-1652.2a20.348,20.348,0,0,0-5.53,7.957,55.279,55.279,0,0,0-2.162,8.692c-.737-.055-1.593-.948-2.09-1.429-3.228-3.112-3.525-9.358-7.549-13.655-4.414-4.715-7.016-9.448-7.552-13.4-.417-3.072.175-6.563,3.148-8.241,2.775-1.567,3.932-.152,5.2,3.19.7,1.849,1.875,3.091,2.474,3.223.678.152,1.965-.984,2.3-2.548.287-1.349,1.086-1.8,2.626-1.394,3.122.832,2.813,7.329,3.288,10.882C1204.542-1656.143,1207.853-1653.713,1210.019-1652.2Z" transform="translate(-904.14 -789.358)" fill="#f8b49d" fill-rule="evenodd"/>
    <path id="Path_1933" data-name="Path 1933" d="M1262.087-1585.633c-1.977,3.562-5.179,11.65-3.56,17.473.638,2.29,1.647,5.058,3.783,6.407,1.019.645,1.908,1.261,2.365.581,1.05-1.557.962-3.811,1.361-5.587.939-4.186,1.607-8.578,3.551-12.451a30.656,30.656,0,0,1,2.875-4.9c.261-.344,1.334.123,1.669-.256.227-.254,0-.981-.249-1.818a5.449,5.449,0,0,0-3.489-3.337C1266.233-1590.94,1263.571-1588.3,1262.087-1585.633Z" transform="translate(-959.888 -852.688)" fill="#9db4f5" fill-rule="evenodd"/>
    <path id="Path_1934" data-name="Path 1934" d="M1411.168-1879.932c.085.609-.173-8.23,7.367-8.374,6.722-.128,14.12-.467,14.12-.467s.562-10.946-5.191-13.513c-2.607-1.161-3.385-4.679-5.523-6.6a34.74,34.74,0,0,0-5.338-3.541,49.848,49.848,0,0,0-7.011-3.821c-4.484-1.806-9.905-1.273-14.631-.42,0,0,1.628,17.68,2.394,23.186.77,5.525,3.532,8.222,6.366,8.77C1407.752-1883.931,1410.431-1885.076,1411.168-1879.932Z" transform="translate(-1064.321 -602.786)" fill="#ffb0a4" fill-rule="evenodd"/>
    <path id="Path_1935" data-name="Path 1935" d="M1490.195-1791.447a8.7,8.7,0,0,0-.192-2.541c-1.64-4.625-7.931-3.9-11.759-3.875-1.3.007-2.614-.031-3.913.1s-2.631.232-3.923.488a12.092,12.092,0,0,0-4.74,1.982,6.161,6.161,0,0,0-2.29,2.721c-.325.882-.576,3.826.46,4.636.434.339,12.773.349,18.646-.666C1485.317-1789.093,1488.073-1789.34,1490.195-1791.447Z" transform="translate(-1116.306 -693.99)" fill="#a6b0ed" fill-rule="evenodd"/>
    <path id="Path_1936" data-name="Path 1936" d="M1368.131-1746.768c-.2.858-1.116,3.373-1.206,3.567-5.847,12.925-22.811,18.441-33.707,24.594-6.471,3.653-12.769,7.606-19.123,11.463,0,0,.642-12.524-3.129-11.394-2.894.867-3.176,5.5-4.5,7.253-2.811,3.743-7.962,9.872-13.1,11.778-5.317,1.974-8.428-.081-13.686-2.055-3.686-1.384-7.225-1.259-6.826-5.691.576-6.376,6.189-15.745,8.844-18.2,2.51-2.32,4.368-1.377,5.07-3.5,5.29-16.035,5.127-29.5,20.794-39.31a52.721,52.721,0,0,1,12.548-5.487c16.836-5.179,43.425-5.354,48.05,16.627A24.733,24.733,0,0,1,1368.131-1746.768Z" transform="translate(-971.139 -710.236)" fill="#5a7df5" fill-rule="evenodd"/>
    <path id="Path_1937" data-name="Path 1937" d="M1390.588-1617.228c-.792-4.139-3.411-19.088-1.692-27.293,1.2-5.748,5.689-15.665,5.691-15.151.026,4.921,3.325,22.958,4.5,30.368-1.993.232-1.6,3.432-4.5,7.236C1393.394-1620.5,1391.939-1618.686,1390.588-1617.228Z" transform="translate(-1059.257 -799.453)" fill="#3754dd" fill-rule="evenodd"/>
    <path id="Path_1938" data-name="Path 1938" d="M1359.123-1997.909c7.874,4.255,11.854-.379,18.215-2.29,4.333-1.3,7.67-2.216,12.413-.581,2.828.977,5.71,2.712,6.724,4.944,1.067,2.349.185,3.631,1.5,5.094,1.642,1.832,4.5,1.225,6.615,5.589,2.385,4.925-1.771,9.958-1.323,15.077.427,4.892.621,9.818-5.326,12.505a13.668,13.668,0,0,1-3.318,1.024,13.984,13.984,0,0,1-4.826,0,22.686,22.686,0,0,1-3.823-1.019c-7.76-2.792,1.775-10.889-4.608-15.753-2.278-1.735-3.979-1.275-5.264.458-1.642,2.219.744,6.708-.135,6.144-4.527-2.9-1.46-7.724-3.413-10.133-1.505-1.858-4.039-3.093-6.281-2.493-1.7.453-.865,2.685-2.794,2.88-4.987.5-7.85-4.435-7.855-10.1,0-2.52,1.064-2.46,3.06-2.467,3.043-.012,1.529-2.6-.472-4.274C1356.161-1995.022,1356.549-1999.3,1359.123-1997.909Z" transform="translate(-1034.305 -538.54)" fill="#593233" fill-rule="evenodd"/>
    <path id="Path_1939" data-name="Path 1939" d="M1335.151-1210.7,1321.6-1123.28h8.063l16.063-87.88Z" transform="translate(-1008.349 -1141.671)" fill="#a0785e" fill-rule="evenodd"/>
    <path id="Path_1940" data-name="Path 1940" d="M1452.027-1123.28l-7.642-87.88-9.355.457,9,87.423Z" transform="translate(-1094.893 -1141.671)" fill="#d0a586" fill-rule="evenodd"/>
    <path id="Path_1941" data-name="Path 1941" d="M1562.73-1121.2h6.744l9.284-88.029h-8.042Z" transform="translate(-1192.325 -1143.144)" fill="#a0785e" fill-rule="evenodd"/>
    <path id="Path_1942" data-name="Path 1942" d="M1645.43-1241.335l16.336,91.6h9.258l-18.092-96.894Z" transform="translate(-1255.423 -1114.608)" fill="#d0a586" fill-rule="evenodd"/>
    <path id="Path_1943" data-name="Path 1943" d="M1372.41-1459.989a21.86,21.86,0,0,1,1.664-5.207c3.738-8.1,11.937-4.831,18.479-8.042,2.934-1.441,4.714-4.771,5.98-7.654,5.971-13.591,7.758-29.168,14.767-42.243a34.725,34.725,0,0,1,5.5-7.435c11.647-12.269,27.192-7.63,42.005-6.973,4.292.19,8.587.142,12.877.31,2.041.081,4.044-.069,5.113,2.02,2.1,4.108-2.792,10.339-4.347,13.773-4.321,9.543-5.283,20.142-8.082,30.183a208.871,208.871,0,0,1-8.433,23.655c-1.659,4.008-3.835,7.163-8.391,8.1C1442.557-1458.062,1379.305-1460.257,1372.41-1459.989Z" transform="translate(-1047.116 -891.579)" fill="#e4bd9d" fill-rule="evenodd"/>
    <path id="Path_1855-2" data-name="Path 1855" d="M932.415-2513.23H386.371a1.2,1.2,0,0,1-1.19-1.2,1.2,1.2,0,0,1,1.19-1.18H932.415a1.2,1.2,0,0,1,1.192,1.18A1.2,1.2,0,0,1,932.415-2513.23Z" transform="translate(-334.819 250.99)" fill="#ab4e46"/>
  </g>
</svg>
