<svg xmlns="http://www.w3.org/2000/svg" width="386.46" height="384.631" viewBox="0 0 386.46 384.631">
  <g id="pos" transform="translate(-1000.025 -1835.789)">
    <path id="Path_927" data-name="Path 927" d="M544.581-1770.12h9.412q15.636,0,15.638-13.62,0-13.59-15.638-13.6h-9.412Zm0,59.08H516.2v-109.18h45.176q18.39,0,28.162,9.56,9.774,9.54,9.774,26.92,0,17.4-9.774,26.94-9.771,9.57-28.162,9.56h-16.8Z" transform="translate(516.201 3887.74)" fill="#abbce1"/>
    <path id="Path_928" data-name="Path 928" d="M544.939-1709.96a.716.716,0,0,0,.716-.72v-35.48h16.08c12.482,0,22.03-3.28,28.664-9.76q9.963-9.75,9.99-27.46,0-17.7-9.99-27.44c-6.634-6.48-16.182-9.76-28.664-9.76H516.559a.716.716,0,0,0-.716.72v109.18a.716.716,0,0,0,.716.72Zm-.716-1.44H517.275v-107.74h44.46q18.054,0,27.662,9.34,9.585,9.39,9.558,26.42,0,17.04-9.558,26.42-9.6,9.39-27.662,9.36h-16.8a.716.716,0,0,0-.716.72Zm0-58.36a.716.716,0,0,0,.716.72h9.412c5.426,0,9.486-1.22,12.2-3.58,2.748-2.4,4.156-5.96,4.156-10.76,0-4.78-1.408-8.34-4.156-10.74-2.712-2.36-6.772-3.58-12.2-3.58h-9.412a.716.716,0,0,0-.716.72Zm1.432-.72v-25.78h8.7c5,0,8.758,1.04,11.258,3.22,2.464,2.14,3.662,5.38,3.662,9.66,0,4.3-1.2,7.54-3.662,9.68-2.5,2.18-6.26,3.22-11.258,3.22Z" transform="translate(515.843 3887.38)" fill="#4375bd" fill-rule="evenodd"/>
    <path id="Path_929" data-name="Path 929" d="M592.509-1764.12a29.037,29.037,0,0,0,2.46,12.02,30.245,30.245,0,0,0,6.662,9.56,30.189,30.189,0,0,0,9.774,6.3,31.22,31.22,0,0,0,11.8,2.24,31.219,31.219,0,0,0,11.8-2.24,31.036,31.036,0,0,0,9.846-6.3,29.689,29.689,0,0,0,6.734-9.56,29.036,29.036,0,0,0,2.462-12.02,29.01,29.01,0,0,0-2.462-12,29.691,29.691,0,0,0-6.734-9.56,31.032,31.032,0,0,0-9.846-6.3,31.219,31.219,0,0,0-11.8-2.24,31.22,31.22,0,0,0-11.8,2.24,30.185,30.185,0,0,0-9.774,6.3,30.246,30.246,0,0,0-6.662,9.56A29.011,29.011,0,0,0,592.509-1764.12Zm-29.684,0a57.068,57.068,0,0,1,4.488-22.66,56.34,56.34,0,0,1,12.454-18.3,56.722,56.722,0,0,1,19.04-12.24,65.4,65.4,0,0,1,24.4-4.42,65.568,65.568,0,0,1,24.326,4.42,57.387,57.387,0,0,1,19.186,12.24,55.793,55.793,0,0,1,12.524,18.3,57.068,57.068,0,0,1,4.488,22.66,56.928,56.928,0,0,1-4.488,22.66,55.879,55.879,0,0,1-12.524,18.32,57.391,57.391,0,0,1-19.186,12.24,65.568,65.568,0,0,1-24.326,4.42,65.4,65.4,0,0,1-24.4-4.42,56.726,56.726,0,0,1-19.04-12.24,56.428,56.428,0,0,1-12.454-18.32A56.928,56.928,0,0,1,562.825-1764.12Z" transform="translate(562.825 3886.22)" fill="#abbce1"/>
    <path id="Path_930" data-name="Path 930" d="M562.467-1763.76a57.83,57.83,0,0,0,4.546,22.96,57.317,57.317,0,0,0,12.61,18.54,57.523,57.523,0,0,0,19.276,12.38,65.96,65.96,0,0,0,24.664,4.48,66.115,66.115,0,0,0,24.59-4.48,58.159,58.159,0,0,0,19.42-12.38,56.744,56.744,0,0,0,12.684-18.54,57.832,57.832,0,0,0,4.548-22.96,57.8,57.8,0,0,0-4.548-22.94,56.748,56.748,0,0,0-12.684-18.54,58.159,58.159,0,0,0-19.42-12.38,66.115,66.115,0,0,0-24.59-4.48,65.96,65.96,0,0,0-24.664,4.48,57.522,57.522,0,0,0-19.276,12.38,57.321,57.321,0,0,0-12.61,18.54A57.8,57.8,0,0,0,562.467-1763.76Zm1.432,0a56.367,56.367,0,0,1,4.432-22.38,56.025,56.025,0,0,1,12.3-18.08,56.164,56.164,0,0,1,18.8-12.08,64.442,64.442,0,0,1,24.132-4.36,65.011,65.011,0,0,1,24.062,4.36,57.166,57.166,0,0,1,18.95,12.08,55.529,55.529,0,0,1,12.366,18.08,56.4,56.4,0,0,1,4.43,22.38,56.259,56.259,0,0,1-4.43,22.38,55.4,55.4,0,0,1-12.366,18.1,57.166,57.166,0,0,1-18.95,12.08,65.011,65.011,0,0,1-24.062,4.36,64.841,64.841,0,0,1-24.132-4.36,56.475,56.475,0,0,1-18.8-12.08,55.9,55.9,0,0,1-12.3-18.1A56.228,56.228,0,0,1,563.9-1763.76Zm28.25,0a29.833,29.833,0,0,0,2.524,12.32,30.988,30.988,0,0,0,6.818,9.78,30.722,30.722,0,0,0,10,6.44,31.82,31.82,0,0,0,12.068,2.3,31.813,31.813,0,0,0,12.068-2.3,31.542,31.542,0,0,0,10.072-6.44,30.379,30.379,0,0,0,6.894-9.78,29.8,29.8,0,0,0,2.524-12.32,29.775,29.775,0,0,0-2.524-12.3,30.379,30.379,0,0,0-6.894-9.78,31.2,31.2,0,0,0-10.072-6.44,31.813,31.813,0,0,0-12.068-2.3,31.82,31.82,0,0,0-12.068,2.3,30.718,30.718,0,0,0-10,6.44,30.988,30.988,0,0,0-6.818,9.78A29.806,29.806,0,0,0,592.149-1763.76Zm1.434,0a28.438,28.438,0,0,1,2.4-11.72,29.762,29.762,0,0,1,6.506-9.34,29.659,29.659,0,0,1,9.542-6.14,30.646,30.646,0,0,1,11.534-2.2,30.645,30.645,0,0,1,11.534,2.2,30.245,30.245,0,0,1,9.62,6.16,29.1,29.1,0,0,1,6.572,9.32,28.439,28.439,0,0,1,2.4,11.72,28.465,28.465,0,0,1-2.4,11.74,29.094,29.094,0,0,1-6.572,9.32,30.249,30.249,0,0,1-9.62,6.16,30.63,30.63,0,0,1-11.534,2.18,30.631,30.631,0,0,1-11.534-2.18,29.384,29.384,0,0,1-9.542-6.16,29.673,29.673,0,0,1-6.506-9.32A28.464,28.464,0,0,1,593.583-1763.76Z" transform="translate(562.467 3885.86)" fill="#4375bd" fill-rule="evenodd"/>
    <path id="Path_931" data-name="Path 931" d="M694.661-1790.76a35.052,35.052,0,0,0-9.266-5.56,24.361,24.361,0,0,0-8.978-1.82,14.674,14.674,0,0,0-8.976,2.6,8.147,8.147,0,0,0-3.476,6.82,6.8,6.8,0,0,0,1.738,4.78,15.068,15.068,0,0,0,4.56,3.24,39.115,39.115,0,0,0,6.372,2.4c2.364.68,4.706,1.4,7.022,2.18q13.9,4.62,20.344,12.38,6.444,7.74,6.444,20.18a39.419,39.419,0,0,1-2.824,15.22,31.524,31.524,0,0,1-8.254,11.64,37.918,37.918,0,0,1-13.32,7.54,55.647,55.647,0,0,1-17.882,2.68,65.674,65.674,0,0,1-38.372-12.32l12.164-22.86a49.617,49.617,0,0,0,12.6,8.4,30.5,30.5,0,0,0,12.308,2.74q6.951,0,10.352-3.18a9.689,9.689,0,0,0,3.4-7.24,9.85,9.85,0,0,0-.87-4.28,9.154,9.154,0,0,0-2.9-3.32,22.6,22.6,0,0,0-5.284-2.82c-2.172-.88-4.8-1.84-7.892-2.9q-5.5-1.74-10.786-3.84a33.863,33.863,0,0,1-9.412-5.58,25.969,25.969,0,0,1-6.662-8.76q-2.532-5.28-2.534-13.4a38.579,38.579,0,0,1,2.68-14.68,32.664,32.664,0,0,1,7.528-11.3,33.577,33.577,0,0,1,11.874-7.32,44.821,44.821,0,0,1,15.71-2.6,68.576,68.576,0,0,1,16.942,2.24,74.739,74.739,0,0,1,16.94,6.6Z" transform="translate(629.793 3886.22)" fill="#abbce1"/>
    <path id="Path_932" data-name="Path 932" d="M694.567-1789.84a.658.658,0,0,0,.6.14.717.717,0,0,0,.49-.36l11.3-22.16a.724.724,0,0,0-.3-.96,75.111,75.111,0,0,0-17.1-6.64,69.134,69.134,0,0,0-17.118-2.28,45.261,45.261,0,0,0-15.96,2.66,34.1,34.1,0,0,0-12.122,7.46,33.388,33.388,0,0,0-7.694,11.54,39.425,39.425,0,0,0-2.732,14.96c0,5.54.876,10.1,2.6,13.72a26.628,26.628,0,0,0,6.846,9,34.535,34.535,0,0,0,9.608,5.68c3.538,1.4,7.146,2.7,10.828,3.86q4.608,1.59,7.85,2.88a22.475,22.475,0,0,1,5.12,2.72,8.551,8.551,0,0,1,2.68,3.08,9.059,9.059,0,0,1,.8,3.96,9.042,9.042,0,0,1-3.174,6.72c-2.16,2.02-5.456,2.98-9.864,2.98a29.733,29.733,0,0,1-12.018-2.68,49.254,49.254,0,0,1-12.412-8.28.738.738,0,0,0-.6-.18.721.721,0,0,0-.506.38l-12.162,22.88a.711.711,0,0,0,.222.92,66.417,66.417,0,0,0,38.782,12.44,56.431,56.431,0,0,0,18.112-2.72,38.743,38.743,0,0,0,13.568-7.68,32.387,32.387,0,0,0,8.438-11.92,40.055,40.055,0,0,0,2.878-15.48q0-12.72-6.61-20.64-6.549-7.89-20.668-12.6c-2.326-.78-4.676-1.52-7.052-2.2a38.014,38.014,0,0,1-6.254-2.34,14.145,14.145,0,0,1-4.348-3.1,6.057,6.057,0,0,1-1.548-4.28,7.445,7.445,0,0,1,3.188-6.24,13.832,13.832,0,0,1,8.548-2.46,23.731,23.731,0,0,1,8.718,1.76A34.214,34.214,0,0,1,694.567-1789.84Zm.212-1.66a35.091,35.091,0,0,0-8.766-5.14,25.35,25.35,0,0,0-9.238-1.86,15.272,15.272,0,0,0-9.406,2.76,8.791,8.791,0,0,0-3.762,7.38,7.458,7.458,0,0,0,1.928,5.26,15.745,15.745,0,0,0,4.772,3.42,40.365,40.365,0,0,0,6.488,2.42c2.356.68,4.686,1.4,6.994,2.18q13.671,4.53,20.02,12.14,6.294,7.59,6.276,19.74a38.684,38.684,0,0,1-2.768,14.94,30.987,30.987,0,0,1-8.068,11.4,37.709,37.709,0,0,1-13.076,7.38,54.829,54.829,0,0,1-17.65,2.64,64.945,64.945,0,0,1-37.44-11.82l11.44-21.52a49.059,49.059,0,0,0,12.1,7.92,30.951,30.951,0,0,0,12.6,2.82c4.858,0,8.464-1.16,10.842-3.38a10.377,10.377,0,0,0,3.63-7.76,10.427,10.427,0,0,0-.94-4.58,10.035,10.035,0,0,0-3.112-3.6,24.3,24.3,0,0,0-5.448-2.92c-2.182-.86-4.822-1.84-7.924-2.9h-.018q-5.478-1.74-10.738-3.82a33.683,33.683,0,0,1-9.216-5.46,25.359,25.359,0,0,1-6.476-8.52c-1.65-3.44-2.462-7.82-2.462-13.1a37.982,37.982,0,0,1,2.626-14.42,31.775,31.775,0,0,1,7.364-11.04,32.717,32.717,0,0,1,11.624-7.16,43.931,43.931,0,0,1,15.46-2.56,68.091,68.091,0,0,1,16.766,2.22,73.058,73.058,0,0,1,16.158,6.2Z" transform="translate(629.435 3885.86)" fill="#4375bd" fill-rule="evenodd"/>
    <path id="Path_933" data-name="Path 933" d="M588.36-1749.58a7.8,7.8,0,0,0-2.02-1.22,5.4,5.4,0,0,0-1.958-.38,3.158,3.158,0,0,0-1.956.56,1.776,1.776,0,0,0-.758,1.48,1.486,1.486,0,0,0,.378,1.04,3.208,3.208,0,0,0,.994.72,9.856,9.856,0,0,0,1.39.52c.514.14,1.026.3,1.53.46a9.663,9.663,0,0,1,4.436,2.7,6.7,6.7,0,0,1,1.4,4.4,8.505,8.505,0,0,1-.616,3.32,6.773,6.773,0,0,1-1.8,2.54,8.225,8.225,0,0,1-2.9,1.64,11.814,11.814,0,0,1-3.9.6,14.277,14.277,0,0,1-8.364-2.7l2.652-4.98a10.85,10.85,0,0,0,2.746,1.84,6.6,6.6,0,0,0,2.682.6,3.22,3.22,0,0,0,2.258-.7,2.129,2.129,0,0,0,.742-1.58,2.16,2.16,0,0,0-.19-.94,2.006,2.006,0,0,0-.632-.72,5.531,5.531,0,0,0-1.152-.62c-.472-.18-1.046-.4-1.72-.62q-1.2-.39-2.352-.84a7.377,7.377,0,0,1-2.05-1.22,5.631,5.631,0,0,1-1.452-1.9,6.789,6.789,0,0,1-.554-2.92,8.547,8.547,0,0,1,.584-3.22,7.465,7.465,0,0,1,1.642-2.46,7.378,7.378,0,0,1,2.588-1.58,9.763,9.763,0,0,1,3.426-.58,14.381,14.381,0,0,1,3.692.5,15.658,15.658,0,0,1,3.694,1.44Z" transform="translate(574.218 3951.62)" fill="#686868"/>
    <path id="Path_934" data-name="Path 934" d="M590.885-1743.78a6.3,6.3,0,0,0,.536,2.62,6.83,6.83,0,0,0,1.452,2.1,6.578,6.578,0,0,0,2.13,1.36,6.954,6.954,0,0,0,2.574.5,6.952,6.952,0,0,0,2.572-.5,6.761,6.761,0,0,0,2.146-1.36,6.708,6.708,0,0,0,1.468-2.1,6.3,6.3,0,0,0,.536-2.62,6.362,6.362,0,0,0-.536-2.62,6.622,6.622,0,0,0-1.468-2.08,6.756,6.756,0,0,0-2.146-1.36,6.571,6.571,0,0,0-2.572-.5,6.573,6.573,0,0,0-2.574.5,6.574,6.574,0,0,0-2.13,1.36,6.741,6.741,0,0,0-1.452,2.08A6.362,6.362,0,0,0,590.885-1743.78Zm-6.472,0a12.481,12.481,0,0,1,.98-4.94,12.357,12.357,0,0,1,2.714-3.98,12.35,12.35,0,0,1,4.15-2.68,14.279,14.279,0,0,1,5.32-.96,14.3,14.3,0,0,1,5.3.96,12.49,12.49,0,0,1,4.182,2.68,12.244,12.244,0,0,1,2.73,3.98,12.516,12.516,0,0,1,.978,4.94,12.376,12.376,0,0,1-.978,4.94,12.119,12.119,0,0,1-2.73,4,12.444,12.444,0,0,1-4.182,2.66,14.31,14.31,0,0,1-5.3.98,14.283,14.283,0,0,1-5.32-.98,12.3,12.3,0,0,1-4.15-2.66,12.229,12.229,0,0,1-2.714-4A12.341,12.341,0,0,1,584.413-1743.78Z" transform="translate(584.413 3951.62)" fill="#686868"/>
    <path id="Path_935" data-name="Path 935" d="M613.184-1750.77h-7.448v3.98h6.786v5.24h-6.786v9.34h-6.188v-23.8h13.636Z" transform="translate(599.548 3951.95)" fill="#686868"/>
    <path id="Path_936" data-name="Path 936" d="M618.36-1750.77v18.56h-6.186v-18.56h-5.082v-5.24h16.35v5.24Z" transform="translate(607.092 3951.95)" fill="#686868"/>
    <path id="Path_937" data-name="Path 937" d="M622.528-1756.01l4.1,15.38,5.052-15.38h4.924l5.05,15.38,4.1-15.38h6.472l-7.1,23.8h-6.314l-4.67-13.78-4.672,13.78h-6.314l-7.1-23.8Z" transform="translate(616.056 3951.95)" fill="#686868"/>
    <path id="Path_938" data-name="Path 938" d="M648.836-1741.05l-2.778-7.92-2.778,7.92Zm1.64,4.72h-8.838l-1.42,4.12h-6.6l9.058-23.8h6.756l9.058,23.8h-6.6Z" transform="translate(633.622 3951.95)" fill="#686868"/>
    <path id="Path_939" data-name="Path 939" d="M653.6-1745.37h1.168a4.414,4.414,0,0,0,2.808-.76,2.572,2.572,0,0,0,.978-2.18,2.558,2.558,0,0,0-.978-2.16,4.413,4.413,0,0,0-2.808-.76H653.6Zm13.6,13.16h-7.7l-5.9-9.14v9.14h-6.188v-23.8h9.628a9.222,9.222,0,0,1,3.472.6,6.753,6.753,0,0,1,2.446,1.58,6.835,6.835,0,0,1,1.452,2.34,8.164,8.164,0,0,1,.49,2.84,6.948,6.948,0,0,1-1.31,4.4,6.543,6.543,0,0,1-3.868,2.3Z" transform="translate(647.415 3951.95)" fill="#686868"/>
    <path id="Path_940" data-name="Path 940" d="M672.145-1750.77h-7.354v3.98h6.944v5.24h-6.944v4.1h7.354v5.24H658.6v-23.8h13.54Z" transform="translate(658.605 3951.95)" fill="#686868"/>
    <path id="Path_941" data-name="Path 941" d="M557.177-1752.813a98.92,98.92,0,0,1-6.9-10.32c-3.52-5.68-6.934-11.42-10.74-16.92-2.15-3.1-4.648-5.96-6.922-8.96-2.988-3.98-5.834-8.04-8.524-12.22a165.693,165.693,0,0,1-18.632-38.26,104.506,104.506,0,0,1-5.426-29.74,78.447,78.447,0,0,1,.494-11.06,71.431,71.431,0,0,1,1.234-7.26,68.056,68.056,0,0,1,2.016-7.12,44.106,44.106,0,0,1,2.206-5.34c.588-1.22,1.228-2.42,1.916-3.58,3.71-6.26,9.148-12.22,16.4-14.18a26.907,26.907,0,0,1,4.36-.82c10.462-1.1,39.346,10.38,29.424,8.34-111.118-22.98-.62,185.3,61.34,195.06,1.588.26-3.44.98-5.094,1.2-4.84.62-9.742-.56-14.2-2.4-7.626-3.1-14.442-8.12-20.68-13.42-2.59-2.2-5.126-4.54-7.56-6.9-2.3-2.24-4.558-4.58-6.74-6.94C562.4-1746.633,559.733-1749.673,557.177-1752.813Z" transform="translate(500.013 3789.293)" fill="#679deb" fill-rule="evenodd"/>
    <path id="Path_942" data-name="Path 942" d="M564.221-1737.455a96.886,96.886,0,0,1-6.9-10.3c-3.52-5.68-6.934-11.42-10.74-16.92-2.15-3.1-4.648-5.96-6.92-8.98q-4.485-5.94-8.526-12.2a165.994,165.994,0,0,1-18.63-38.26,104.508,104.508,0,0,1-5.428-29.74,78.182,78.182,0,0,1,.5-11.06,70.363,70.363,0,0,1,1.234-7.26,65.782,65.782,0,0,1,2.016-7.12,43.77,43.77,0,0,1,2.2-5.34c.588-1.22,1.228-2.42,1.916-3.58,3.712-6.26,9.15-12.22,16.4-14.2a29.368,29.368,0,0,1,4.36-.8c10.462-1.1,20.35,3.82,29.424,8.32,10.108,5.04,20.77,10.86,32.432,10.4a38.944,38.944,0,0,0,8.584-1.32,38.336,38.336,0,0,0,8.02-3.18,41.981,41.981,0,0,0,12.038-10.14,86.461,86.461,0,0,0,7.29-10.5c2.514-4.12,4.83-8.36,7.4-12.44a34.417,34.417,0,0,1,8.062-9.42,16.865,16.865,0,0,1,4.98-2.64,31.348,31.348,0,0,1,4.446-.92c2.4-.4,4.808-.68,7.23-.86a52.481,52.481,0,0,1,20.978,2.38,41.112,41.112,0,0,1,7.172,3.28,51.233,51.233,0,0,1,11.222,9.12c4.3,4.52,7.984,9.6,12,14.36a38.73,38.73,0,0,0,8.674,8,21.547,21.547,0,0,0,4.022,2.02c4.92,1.98,10.43,1.3,15.406-.04,1.346-.38,3.346-1,4.65-1.46,5.088-1.82,10.052-3.92,15.066-5.94a128.473,128.473,0,0,1,15.478-5.44c6.288-1.62,13.42-2.54,19.474.42a16.155,16.155,0,0,1,2.836,1.74,19.184,19.184,0,0,1,3.4,3.34,27.638,27.638,0,0,1,3.73,6.44,31.75,31.75,0,0,1,1.73,5.54c2.472,11.5-1.628,23.36-7.26,33.28-1.288,2.26-2.7,4.5-4.18,6.64a95.978,95.978,0,0,1-6.842,8.86c-1.636,1.9-3.318,3.74-4.968,5.6-4.908,5.58-9.808,11.54-11.534,18.94a29.312,29.312,0,0,0-.8,6.98c.1,9.76,5.358,18.3,9.732,26.68,3.582,6.86,7.072,14.22,6.368,22.18a24.785,24.785,0,0,1-.79,4.38,30.109,30.109,0,0,1-2.936,6.92c-4.244,7.5-10.15,14.1-16.414,19.96a135.021,135.021,0,0,1-20.388,15.66,124.939,124.939,0,0,1-23.106,11.58c-9.27,3.44-19.29,5.78-29.238,5.1a31.115,31.115,0,0,1-9.052-1.84c-4.344-1.62-8.242-4.2-12.486-6.06a40.586,40.586,0,0,0-14.642-3.32c-5.982-.24-12.126.02-17.786,2.16a80.122,80.122,0,0,0-9.21,4.7,50.591,50.591,0,0,1-9.456,3.94,35.2,35.2,0,0,1-5.094,1.2c-4.838.62-9.742-.58-14.2-2.4-7.628-3.12-14.444-8.12-20.682-13.42-2.588-2.2-5.126-4.54-7.56-6.92-2.3-2.24-4.558-4.56-6.74-6.92Q568.063-1732.745,564.221-1737.455Z" transform="translate(507.057 3771.875)" fill="#81b4fd" fill-rule="evenodd"/>
    <path id="Path_943" data-name="Path 943" d="M597.61-1749.609c-66.642,27.86-68.554-19.76-42.336-41.16,30.514-24.9-55.224-31.94-43.134-71.18,12.038-39.1,72.456,16.98,70.434-43.24-1.008-30.06,31.826-46.24,50.122,2.1,32.682,86.4,91.91-30.4,137.006,6.68,34.714,28.54-29.788,19.42,8.59,68.76,40.838,52.48-2.79,84.36-57.356,76.4C678.924-1757.369,645.808-1769.749,597.61-1749.609Z" transform="translate(510.962 3774.188)" fill="#c3e2fe" fill-rule="evenodd"/>
    <path id="Path_944" data-name="Path 944" d="M664.539-1775.76c-66.642,27.86-173.546,21.38-161.458-17.86,12.04-39.08,72.456,16.98,70.436-43.24-1.008-30.06,31.826-46.24,50.12,2.12,32.684,86.38,91.912-30.4,137.008,6.66,34.714,28.54,69.266-47.66,107.644,1.66,40.838,52.5-2.79,84.38-57.356,76.42C768.922-1756.12,712.737-1795.9,664.539-1775.76Z" transform="translate(502.139 3842.521)" fill="rgba(195,226,254,0.64)" fill-rule="evenodd"/>
    <path id="Path_945" data-name="Path 945" d="M598.008-1820.3a.169.169,0,0,0,.084-.12.224.224,0,0,0-.152-.26.489.489,0,0,0-.342,0,.291.291,0,0,0-.158.1.264.264,0,0,0-.026.24.521.521,0,0,0,.286.26.215.215,0,0,0,.288-.1A.233.233,0,0,0,598.008-1820.3Z" transform="translate(597.396 3887.255)" fill-rule="evenodd"/>
    <path id="Path_946" data-name="Path 946" d="M582.71-1862.82l.052,2.28a3.651,3.651,0,0,0,3.658,3.56H609.1a3.66,3.66,0,0,0,3.658-3.66v-2.2a.5.5,0,0,0-.5-.5.5.5,0,0,0-.5.5v2.2a2.652,2.652,0,0,1-2.656,2.66H586.42a2.661,2.661,0,0,1-2.654-2.6c-.028-1.18-.052-2.26-.052-2.26a.512.512,0,0,0-.514-.5A.5.5,0,0,0,582.71-1862.82Z" transform="translate(582.71 3844.62)" fill-rule="evenodd"/>
    <path id="Path_947" data-name="Path 947" d="M578.779-1855.685l5.038-7.56a.5.5,0,0,0-.14-.7.489.489,0,0,0-.7.14l-5.036,7.56a.508.508,0,0,0,.14.7A.523.523,0,0,0,578.779-1855.685Z" transform="translate(577.861 3843.925)" fill-rule="evenodd"/>
    <path id="Path_948" data-name="Path 948" d="M628.111-1877.1a4.362,4.362,0,0,0-4.124-3.5H577.043a2.847,2.847,0,0,0-2.874,3.5l4.862,27.18a4.362,4.362,0,0,0,4.124,3.5H630.1a2.846,2.846,0,0,0,2.872-3.5Z" transform="translate(574.113 3827.36)" fill="#5a6dff" fill-rule="evenodd"/>
    <path id="Path_949" data-name="Path 949" d="M574.128-1876.627l3.856,21.22a.514.514,0,0,0,.582.4.511.511,0,0,0,.4-.58l-3.854-21.22a.516.516,0,0,0-.584-.42A.52.52,0,0,0,574.128-1876.627Z" transform="translate(574.12 3830.727)" fill-rule="evenodd"/>
    <path id="Path_950" data-name="Path 950" d="M628.636-1876.83a4.284,4.284,0,0,0-4.036-3.42H577.508a2.788,2.788,0,0,0-2.812,3.42l4.76,26.64a4.284,4.284,0,0,0,4.038,3.42h47.09a2.788,2.788,0,0,0,2.812-3.42Z" transform="translate(574.642 3827.71)" fill="#e3ebfe" fill-rule="evenodd"/>
    <path id="Path_951" data-name="Path 951" d="M627.813-1877.55a3.378,3.378,0,0,0-3.174-2.7h-47.05a2.2,2.2,0,0,0-2.212,2.7l3.742,20.94a3.359,3.359,0,0,0,3.174,2.68h47.05a2.185,2.185,0,0,0,2.212-2.68Z" transform="translate(575.334 3827.71)" fill="#84b8ff" fill-rule="evenodd"/>
    <path id="Path_952" data-name="Path 952" d="M573.719-1881.53a23.794,23.794,0,0,1-4.446-1.5c0,.34-2.92,2.22-3.808,2.66-1.118.56-5.5,2.4-5.946,3.52a7.687,7.687,0,0,0-.174,2.7c0,5.4,1.224,9.8,2.886,14.78a8.11,8.11,0,0,1,.248,5.28c-.756,3.78-3.3,3.58-3.932,8.5-.554,4.34-6.254,5.58-5.472,12.52,3.528-7.56,5.36,1.14,12.28-1.7,2.594-1.08,5.584-.94,8.164-1.44,2.558-.52,5.728-2.2,8.338-2.38,1.91-.12,4.756-.06,6.464-.92.612-.3,2.27-1.14,2.482-1.78.406-1.22-.582-5.18-.866-6.58a29.167,29.167,0,0,1-.056-5.32,28.983,28.983,0,0,1,.288-5.3c.618-3.3,2.358-10.88,1.442-13.92-1.9-6.34-7.354-8.08-13.218-9.06C576.867-1881.73,575.253-1881.33,573.719-1881.53Z" transform="translate(553.001 3824.93)" fill="#fff" fill-rule="evenodd"/>
    <path id="Path_953" data-name="Path 953" d="M555.379-1859.185c-.136.24-.566,5.94-.628,8.74-.054,2.48,2.152,7.16.628,9.12-1.382,1.78.406,4.88,0,5.14-3.5,2.32.462,1.92,0,2.62-.96,1.42.4,1.16-.574,1.38-.592.14-.648.76-.7,1.84-.018.4.4.78.146,1.38a9.777,9.777,0,0,1,.332,2.48,5.41,5.41,0,0,1-.746,2.26c-.536.94.982,1.58,1.54,1.32l17.414-4.08s.578-8.38.568-10.94c-.026-6.38.334-12.74.346-19.1,0-.84-.012-1.66-.036-2.5a8.277,8.277,0,0,0-.062-.86,1.963,1.963,0,0,0-.1-.4,10.506,10.506,0,0,1-6.076,1.6c-2.17-.14-2.346.08-4.518-.12C561.565-1859.425,556.283-1860.725,555.379-1859.185Z" transform="translate(553.727 3847.145)" fill="#b5c7f8" fill-rule="evenodd"/>
    <path id="Path_954" data-name="Path 954" d="M563.26-1864.31v40.02l30.118-2.58v-31.58l-13.938.04Z" transform="translate(563.26 3843.65)" fill="#3f20dc" fill-rule="evenodd"/>
    <path id="Path_955" data-name="Path 955" d="M593.378-1858.45l-16.638-5.86H563.26l16.152,5.9Z" transform="translate(563.26 3843.65)" fill="#0fdffe" fill-rule="evenodd"/>
    <path id="Path_956" data-name="Path 956" d="M563.26-1864.31v40.82l16.18-2.26-.028-32.66Z" transform="translate(563.26 3843.65)" fill="#5636fa" fill-rule="evenodd"/>
    <path id="Path_957" data-name="Path 957" d="M574.108-1842.52H590.3s.076,12.54.1,16.76a1.318,1.318,0,0,1-.4.96,1.25,1.25,0,0,1-.962.38c-3.088-.04-10.576-.16-13.612-.22a1.321,1.321,0,0,1-1.314-1.32C574.116-1830.1,574.108-1842.52,574.108-1842.52Z" transform="translate(574.108 3865.44)" fill="#a0a7e8" fill-rule="evenodd"/>
    <path id="Path_958" data-name="Path 958" d="M575.279-1841.453c.016-.02.048-.02.084-.04.066-.02.146-.02.232-.04.3-.02.656,0,.812,0,1.216-.08,2.442-.02,3.662-.04,3.408-.02,6.78,0,10.186.14a28.292,28.292,0,0,1,3.7.16.221.221,0,0,0,.252-.18.211.211,0,0,0-.17-.24,26.045,26.045,0,0,0-3.758-.16c-3.414-.16-6.792-.16-10.21-.14-1.226,0-2.458-.04-3.682.02a9.516,9.516,0,0,0-.992.04.773.773,0,0,0-.44.2.235.235,0,0,0,.024.32A.226.226,0,0,0,575.279-1841.453Z" transform="translate(574.899 3865.953)" fill="rgba(0,0,0,0.22)" fill-rule="evenodd"/>
    <path id="Path_959" data-name="Path 959" d="M584.328-1856.32a7.406,7.406,0,0,1,7.4,7.4,7.406,7.406,0,0,1-7.4,7.4,7.4,7.4,0,0,1-7.4-7.4A7.4,7.4,0,0,1,584.328-1856.32Z" transform="translate(576.932 3851.64)" fill="#5436fe" fill-rule="evenodd"/>
    <path id="Path_960" data-name="Path 960" d="M576.568-1851.76a7.4,7.4,0,0,1,7.4,7.4,7.4,7.4,0,0,1-7.4,7.4,7.406,7.406,0,0,1-7.4-7.4A7.406,7.406,0,0,1,576.568-1851.76Z" transform="translate(569.17 3856.2)" fill="#9ea8e6" fill-rule="evenodd"/>
    <path id="Path_961" data-name="Path 961" d="M586.3-1852.08a5.673,5.673,0,0,1,5.668,5.68,5.669,5.669,0,0,1-5.668,5.66,5.669,5.669,0,0,1-5.668-5.66A5.673,5.673,0,0,1,586.3-1852.08Z" transform="translate(580.63 3855.88)" fill="#a0a7e8" fill-rule="evenodd"/>
    <path id="Path_962" data-name="Path 962" d="M578.409-1835.668c.17-1.5,1.208-3.08,1.816-4.42.108-.24.2-.48.324-.72a16,16,0,0,1,10.748-8.12.209.209,0,0,0,.156-.26.22.22,0,0,0-.26-.16,16.427,16.427,0,0,0-11.022,8.34c-.13.24-.226.5-.338.74-.624,1.38-1.676,3-1.852,4.56a.22.22,0,0,0,.19.24A.232.232,0,0,0,578.409-1835.668Z" transform="translate(577.979 3858.608)" fill-rule="evenodd"/>
    <path id="Path_963" data-name="Path 963" d="M578.4-1832.882a1.873,1.873,0,0,1-.08-.56,24.317,24.317,0,0,1,.178-3.1c.45-4.42,1.6-11.16,2.016-12.08a6.705,6.705,0,0,1,2.954-3.2.234.234,0,0,0,.1-.3.236.236,0,0,0-.288-.1,7.183,7.183,0,0,0-3.152,3.42c-.426.92-1.6,7.74-2.054,12.22a24.861,24.861,0,0,0-.18,3.16,2.215,2.215,0,0,0,.118.72.227.227,0,0,0,.284.1A.217.217,0,0,0,578.4-1832.882Z" transform="translate(577.886 3855.722)" fill-rule="evenodd"/>
    <path id="Path_964" data-name="Path 964" d="M584.175-1836.295a15.067,15.067,0,0,0-11.784-12.48.2.2,0,0,0-.258.16.2.2,0,0,0,.16.24,14.688,14.688,0,0,1,11.46,12.16.219.219,0,0,0,.25.18A.221.221,0,0,0,584.175-1836.295Z" transform="translate(572.127 3859.175)" fill-rule="evenodd"/>
    <path id="Path_965" data-name="Path 965" d="M564.378-1884.49l6-.08-.148,7.94-3.174,3.58-2.554-.94Z" transform="translate(564.378 3823.39)" fill-rule="evenodd"/>
    <path id="Path_966" data-name="Path 966" d="M565.187-1884.19a.4.4,0,0,1,.406.4.408.408,0,0,1-.406.42.408.408,0,0,1-.406-.42A.4.4,0,0,1,565.187-1884.19Z" transform="translate(564.781 3823.77)" fill="#fff" fill-rule="evenodd"/>
    <path id="Path_967" data-name="Path 967" d="M555.921-1874.708a38.139,38.139,0,0,0-.888,3.96,31.169,31.169,0,0,0-.48,3.52c-.028,6.7,2.64,13.22,5.11,19.32a8.686,8.686,0,0,0,3.33,4.08,4.271,4.271,0,0,0,1.944.7,6.039,6.039,0,0,0,3.426-1.1c2.16-1.38,3.22-3.78,4.134-6.06,2.076-5.18,2.948-10.78,4.634-16.1a15.433,15.433,0,0,1,2.092-3.66,19.416,19.416,0,0,0,2.306-4,9.529,9.529,0,0,0,.714-2.64c.026-1.5-1.36-2.22-2.14-3.3-.088-.12,0-.3.01-.46a9.965,9.965,0,0,0,.116-1.88,1.155,1.155,0,0,0-.246-.7c-.1-.1-.254.14-.268.16a4.752,4.752,0,0,0-.316.62c-.158.36-.272.76-.426,1.12a13.823,13.823,0,0,1-2.034,3.96c-.136.14-.448.52-.736.5-.256-.02-.472-.38-.572-.54a10.51,10.51,0,0,0-1.082-2.02c-.128-.14-.708-.52-.864-.18-.86,1.96-.232,4.14-.372,6.2a19.153,19.153,0,0,1-.63,3.14,20.945,20.945,0,0,1-2.74,6.3c-.468.7-1,1.34-1.524,2-.29.36-.6.7-.924,1.04-.012.02-.416.44-.582.4-1.282-.32-1.71-2-1.97-3.06-.094-.38-.17-.76-.23-1.16-.342-2.28-.066-4.56-.416-6.84a9.743,9.743,0,0,0-1.376-3.62,8.167,8.167,0,0,0-.774-1.04,6.287,6.287,0,0,0-.91-.86,3.763,3.763,0,0,0-2.784-.74,1.935,1.935,0,0,0-1.242.56A6.352,6.352,0,0,0,555.921-1874.708Z" transform="translate(554.553 3824.908)" fill="#ffa08e" fill-rule="evenodd"/>
    <path id="Path_968" data-name="Path 968" d="M570.667-1880.856c-.318.2.038,1.42.31,1.92a3.656,3.656,0,0,1,.3.66c.124.4.168.84.278,1.26.27,1.02.688,2.02.946,3.04a37.2,37.2,0,0,1,1,7.36,14.443,14.443,0,0,1-.5,4.8c-.94,3.04-2.68,5.72-2.792,8.96a38.332,38.332,0,0,0,.016,4.6c.012.12.1.84.28.98a5.069,5.069,0,0,0,.892.24c1.634.7,1.572.82,3.218,1.48a6.3,6.3,0,0,0,2.69.62c.926-.04.828-.5.62-1.3-.206-.78-.45-1.56-.692-2.34a24.356,24.356,0,0,1-1.32-4.52c-.22-2.16-.426-4.34-.588-6.52a44.921,44.921,0,0,1-.118-4.94c.09-2.12.382-4.22.44-6.36.022-.8.032-1.6.006-2.42a10.269,10.269,0,0,0-.342-3.04,10.187,10.187,0,0,0-2.42-3.72A3.144,3.144,0,0,0,570.667-1880.856Z" transform="translate(570.149 3827.056)" fill="#ffa08e" fill-rule="evenodd"/>
    <path id="Path_969" data-name="Path 969" d="M615.6-1854.605c-1.356-1.36-11.652-1.04-12.092-1.26-.484-.24-4.178-2.76-7.872-4.74-2.642-1.44-5.528-2.32-6.114-3.2-.852-1.28-.384-7.02-1.586-8.24-.688-.68.028,4.24-1.324,2.88-1.528-1.52-2.18-4.28-2.858-6.32-.138-.42-.822-2.34-1.376-1.96-.492.32.044,1.5.454,2.84.544,1.76,1.076,3.76.768,4.06-.052.06-.232-.16-.254-.2-.176-.2-.816-1.8-1.174-1.62-1.434.7-.036,2.66.2,3.62a3.116,3.116,0,0,1,.05.36,1.375,1.375,0,0,0-.1-.36c-.2-.36-.688-2.06-1.428-1.68-.716.34.1,2.14.2,2.64a2.393,2.393,0,0,1,.052.32c-.338.16-1.152-1.36-1.224-.64-.4,4,3.67,6.02,4.5,7.16,1.144,1.56,2.432,2.94,3.818,4.7.91,1.16,10.16,12,15.31,13.94,5.428,2.02,9.942-1.76,11.33-6.84C615.118-1850.005,616.478-1853.725,615.6-1854.605Z" transform="translate(579.898 3830.465)" fill="#ffa08b" fill-rule="evenodd"/>
    <path id="Path_970" data-name="Path 970" d="M597.485-1830.005c.528-.1,16.468,2.04,16.444,1.74-.1-1.22,1.512-9.04,1.91-11.18.748-4.04,2.688-6.44,4.206-10.18.8-1.98,2.356-5.7,2.454-5.64,1.988,1.28-5.9,11.36-5.32,15.7.244,1.82,2.286,12.08,2.286,12.08l15.3,2.06c-1.2.3-1.676-33.9-1.866-34.1-.13-.14-.358-.08-.54-.06-.686.02-2.572.3-3.012.36-1.642.24-3.286.48-4.926.74-2.574.4-5.55,1.04-8.2,1.3a39.926,39.926,0,0,1-6.914.12,23.14,23.14,0,0,1-3.322-.46c-1.19-.16-1.192-.04-2.382-.18a4.46,4.46,0,0,1-1.728-.4c-.146-.08-.246-.24-.4-.3-.174-.04-.428-.14-.542,0a3.3,3.3,0,0,0-.37,1.18c-.224.8-.414,1.6-.626,2.42C599.592-1853.505,597.433-1831.465,597.485-1830.005Z" transform="translate(597.484 3848.345)" fill="#282937" fill-rule="evenodd"/>
    <path id="Path_971" data-name="Path 971" d="M612.8-1871.718c-.458.34.276,1.26.306,1.48.114.84.168,1.68.252,2.52.12,1.2.446,2.4.54,3.62.118,1.52.284,3.04.412,4.58.1,1.14.056,2.58.72,3.58.1.14.342.12.486.12a6.255,6.255,0,0,0,1.366-.14,6.427,6.427,0,0,0,1.618-.88,6.5,6.5,0,0,0,1.834-1.5,7.732,7.732,0,0,0,1.1-4.62,37.975,37.975,0,0,0-.216-4.26c-.112-1-.458-1.62-.516-2.64a4.518,4.518,0,0,0-.824-2.14c-.352-.4-.516-.68-1-.74a10.179,10.179,0,0,0-4.3.52A4.21,4.21,0,0,0,612.8-1871.718Z" transform="translate(612.654 3835.158)" fill="#ffa08b" fill-rule="evenodd"/>
    <path id="Path_972" data-name="Path 972" d="M591.81-1848.795c-.266-.18.036-.64.086-.96.13-.8.284-1.6.454-2.4,1.08-5.06,2.2-10.12,3.612-15.1.276-.96.574-1.92.884-2.88a9.145,9.145,0,0,1,.69-1.62,13.968,13.968,0,0,1,3.836-3.78c1.86-1.22,3.962-2,5.9-3.08.522-.3,1.038-.6,1.534-.94.466-.32.614-1.16,1.158-1.34,1.816-.6,3.96-1.46,5.808-1.9,1.238-.3,2.1.06,3.162-.82.42-.34.948-.76,1.35-1.12a2.26,2.26,0,0,1,.886.06c2.068,1.02,3.374,3.16,5.6,3.9,2.5.84,5.06,1.46,7.508,2.44,1.69.68,3.24,1.34,4.08,3.02a17.073,17.073,0,0,1,1.32,4.02,49.343,49.343,0,0,1,.918,5.38c.038.4.012,1.62.092,2.16a8.524,8.524,0,0,0,.352,1.18c.144.56.2,1.54.286,2.02.078.46.42.9.3,1.34a5.588,5.588,0,0,1-1.4.12c-2.016.2-2,.28-4.02.38-.162,0-.364-.12-.488,0a1.074,1.074,0,0,0-.244.62,11.15,11.15,0,0,0,0,2.18c.05,2.88-.078,2.88.124,5.96a52.562,52.562,0,0,0,1.166,8.54,24.877,24.877,0,0,0,1.146,3.64,29.733,29.733,0,0,1,1.216,4.08c.018.1.136.68,0,.86s-.944-.12-1.036-.12c-.44-.06-.884-.1-1.328-.12a15.683,15.683,0,0,0-4.214.24c-4.134.9-4.1,1.04-7.548,1.68a52.287,52.287,0,0,1-12.856.82c-1.158-.08-2.314-.18-3.47-.28-.694-.06-1.39-.12-2.08-.2-.346-.04-.966.14-1.028-.2a41.788,41.788,0,0,1-.242-6.94c-.046-4.96.688-9.88.342-14.84-.18-2.6-.328-5.2-.532-7.8a14.346,14.346,0,0,0-.6-3.3,2.212,2.212,0,0,0-.088-.34c-.04-.1-.138-.38-.156-.28-.08.48.12,3.2.122,3.24.2,3.3.79,6.6.8,9.92a9.12,9.12,0,0,1-.358,3.24.863.863,0,0,1-.56.6c-1.234.34-2.66-.12-3.864-.34a11.1,11.1,0,0,0-2.932-.26,29.306,29.306,0,0,1-4.194-.2A4.047,4.047,0,0,1,591.81-1848.795Z" transform="translate(591.702 3823.195)" fill="#5436fe" fill-rule="evenodd"/>
    <path id="Path_973" data-name="Path 973" d="M604.786-1874.988l.472-.06.468-.12c.8-.24.778-.28,1.578-.48,2.08-.52,4.14-.84,6.17-1.56.792-.28,2-.72,1.812-1.8a1.341,1.341,0,0,0-.2-.46c-.312-.52-1.2-.06-1.614-.24a26.333,26.333,0,0,0-5.65-1.38c-.58-.12-.8-.7-1.032-1.3a1.818,1.818,0,0,1-.214-1.42,3.079,3.079,0,0,0-1.1-3.12,2.447,2.447,0,0,0-2.672.16.4.4,0,0,1-.68-.14c-.38-.98-1.276-1.24-2.146-1.84a15.573,15.573,0,0,0-2.368-1.14c-.038-.02-.744-.76-.736-.7-.494.92.072,1.96.288,2.82a13.415,13.415,0,0,1,.236,2.14,7.965,7.965,0,0,1,.1,1.46,8.589,8.589,0,0,0,0,2.64c.174.52,1.116.26,1.472.28a.37.37,0,0,1,.346.2c.106.24.984,2.62,1.086,2.82a3.422,3.422,0,0,0,.872,1.3c.478.36,1.24.08,1.76.04a1.4,1.4,0,0,1,1.594,1.06A3.379,3.379,0,0,1,604.786-1874.988Z" transform="translate(596.676 3817.368)" fill="#ff9b8f" fill-rule="evenodd"/>
    <path id="Path_974" data-name="Path 974" d="M610.793-1875.82c2.058.54,4.424,1.42,6.072.04.478-.4.242-1.44.014-1.9-.782-1.62-.7-3.26-.906-5.1-.26-2.36-1.916-8.96-5.844-10.96-3.47-1.76-11.54.04-14.206-1.34-1.21-.62,1.206,2.44-.158,5.8-.81,2,.786,2.34,1.992,3.08s1.892,2.46,2.786,3.52c.48.58,1.862-.54,2.21.08.246.46.146,1.1.48,1.5.06.08.146-.08.162-.1.262-.36.462-1,.87-1.22.648-.36,2.806.04,2.856,1.02C607.417-1875.64,608.123-1876.5,610.793-1875.82Z" transform="translate(595.545 3812.8)" fill-rule="evenodd"/>
    <path id="Path_975" data-name="Path 975" d="M568.971-1891.936a8.04,8.04,0,0,1-2.02,2.28,22.429,22.429,0,0,0-2.986,2.16c-.374.4-.212,1.04-.332,1.5-.036.14-.064.32-.178.4-.052.04-.08-.1-.106-.16-.036-.08-.044-.18-.08-.26-.132-.28-.186-.52-.458-.66a2.239,2.239,0,0,0-2.648.5c-.62.8-.07,1.9.328,2.68.756,1.48,2,2.8,2.408,4.44a7.817,7.817,0,0,1-.094,4.46,4.564,4.564,0,0,1-.81,1.2c-.174.2-.45.34-.534.6-.048.14.11.28.2.42a5.183,5.183,0,0,0,1.054.88,7.668,7.668,0,0,0,3.924,1.6,5.86,5.86,0,0,0,.838.04c.378-.02,1.506-.06,1.768-.4a2.088,2.088,0,0,0,.214-.88c.066-1.4-.034-2.68-.016-4.08a3.6,3.6,0,0,1,.224-1.38c.614-1.14,1.984-1.58,2.584-2.74a11.129,11.129,0,0,0,.94-3.44,14.136,14.136,0,0,0,.132-3.7,10.311,10.311,0,0,0-1.258-3.34c-.4-.76-.794-1.56-1.238-2.32a6.086,6.086,0,0,0-.582-.76c-.006,0-.514-.6-.716-.38C569.193-1892.936,569.229-1892.336,568.971-1891.936Z" transform="translate(559.883 3814.635)" fill="#fa9b87" fill-rule="evenodd"/>
    <path id="Path_976" data-name="Path 976" d="M563.272-1894.546c-.384.02-3.626.56-4.606,1.36a8.583,8.583,0,0,0-3.15,6.52,4.8,4.8,0,0,0,.764,2.82,5.162,5.162,0,0,0,2.41,1.76c.686.26,1.648-.02,2.21.58a16.566,16.566,0,0,1,1.722,2.96,10.586,10.586,0,0,0,2.17,2.36,3.281,3.281,0,0,0,2.308,1,2.248,2.248,0,0,0,.614-.18c.834-.32.366-1.28.114-1.82a6.9,6.9,0,0,0-.42-.8c-1.084-1.72-2.548-3.22-2.874-5.32-.1-.6-.2-1.58.448-2,.99-.62,1.79.84,2.36,1.36a.744.744,0,0,0,.7.18c1.314-.36.99-1.82,1.652-2.7.344-.46.712-.42,1.184-.64a4.851,4.851,0,0,0,1.946-1.4,5.73,5.73,0,0,0,1.01-1.5c.14-.32.082-.8.384-1.06.292-.24.432.64.65.94.008.02,1.052,1.5,1.346,1.78.13.12.516.56.818.38a2.571,2.571,0,0,0,.528-.76c.766-1.3,1.5-2.7.814-4.2-.7-1.56-2.722-1.82-4.2-2-1.642-.2-3.2.28-4.83.28-1.458.02-2.886-.26-4.348-.2C564.394-1894.826,563.858-1894.566,563.272-1894.546Z" transform="translate(555.516 3812.986)" fill-rule="evenodd"/>
  </g>
</svg>
