<svg xmlns="http://www.w3.org/2000/svg" width="378.962" height="398.848" viewBox="0 0 378.962 398.848">
  <g id="gym" transform="translate(-52.774 -2000.132)">
    <path id="Path_868" data-name="Path 868" d="M77.086-1577.326a182.4,182.4,0,0,1-18.472-15.14q-4.742-4.29-9.382-8.66a52.413,52.413,0,0,1-5.273-5.64c-3.307-4.4-5.454-9.68-7.66-14.64a118.181,118.181,0,0,1-5.561-14.84,120.634,120.634,0,0,1-4.346-34.6c.027-3.3.158-6.6.274-9.9.389-11.06,2.075-23.2,9.554-31.94,7.39-8.62,19-11.18,29.211-14.8a56.16,56.16,0,0,0,25.3-17.78c5.2-6.58,8.323-14.64,10.774-22.58,2.479-8.04,4.577-16.18,7.473-24.08,3.605-9.82,9.671-19.06,19.021-24.22,8.476-4.68,18.715-5.7,28.22-5.66,14.41.04,29.031,2.34,43.255-.98a86.411,86.411,0,0,0,16.794-6.38c8.776-4.16,17.452-8.52,26.21-12.72,3.176-1.52,6.376-2.98,9.59-4.42,3-1.34,6.726-2.78,9.832-3.84,7.588-2.58,16.2-5.3,24.184-2.74a21.389,21.389,0,0,1,5.128,2.56,27.166,27.166,0,0,1,4.246,3.56,25.951,25.951,0,0,1,4.69,6.6c5.1,9.94,4.454,21.94,5.714,32.7.772,6.62,2.576,13.72,7.118,18.84,5.788,6.52,14.23,9.18,22.476,11.04,11.742,2.62,23.576,4.8,35.228,7.82,7.988,2.08,17.85,4.78,22.666,12.18a20.579,20.579,0,0,1,2.108,4.48c3.614,10.84,1.08,22.16-.476,33.1a82.265,82.265,0,0,0-1.116,12.18c-.2,6.54,2.72,12.62,4.994,18.56,3.02,7.92,6.02,16,3.926,24.54-1.636,6.66-5.708,12.76-9.786,18.16-7.63,10.12-16.558,19.2-24.766,28.84-8.06,9.46-15.748,19.42-25.426,27.32-9.646,7.88-20.912,13.5-31.552,19.82-7.458,4.44-14.8,9.08-22.252,13.52-20.57,12.3-42.058,23.94-65.658,29.14a132.274,132.274,0,0,1-24.118,2.98,101.805,101.805,0,0,1-26.855-2.38c-8.015-1.9-15.613-5.3-23.012-8.84-9.953-4.78-14.062-6.78-23.786-11.98A531.545,531.545,0,0,1,77.086-1577.326Z" transform="translate(26.387 3854.046)" fill="#dde7fe" fill-rule="evenodd"/>
    <path id="Path_869" data-name="Path 869" d="M359.136-1644.988c-4.122,11.76-315,36-308.175,27.58a56.07,56.07,0,0,0,12.33-28.34c1.011-8.34-.528-16.84-2.575-24.9-2.07-8.14-4.524-16.18-6.169-24.44-2.048-10.26-1.686-21.3,3.6-30.58,4.794-8.42,13-14.62,21.13-19.56,12.32-7.46,26-13.12,36.407-23.36a85.9,85.9,0,0,0,11.005-14.22c5.323-8.12,10.452-16.36,15.742-24.5q2.877-4.44,5.88-8.78c1.862-2.7,4.288-5.88,6.388-8.4,5.13-6.16,11.06-12.96,19.216-14.94a21.05,21.05,0,0,1,5.706-.48,28.153,28.153,0,0,1,5.476.82,25.954,25.954,0,0,1,7.444,3.18c9.534,5.84,15.236,16.4,21.922,24.94,4.106,5.24,9.356,10.36,15.9,12.36,8.336,2.54,16.932.42,24.93-2.3,11.392-3.88,22.626-8.18,34.146-11.68,7.9-2.4,17.726-5.22,25.69-1.42a20.713,20.713,0,0,1,4.136,2.72c8.73,7.36,12.466,18.34,16.84,28.5a81.971,81.971,0,0,0,5.406,10.98c3.234,5.68,8.892,9.34,13.934,13.24,6.7,5.18,13.472,10.5,16.136,18.88,2.082,6.56,1.782,13.88,1.12,20.62-1.24,12.6-4.128,25-6.11,37.5C364.646-1669.288,363.272-1656.788,359.136-1644.988Z" transform="translate(50.85 3868.029)" fill="#a7bdeb" fill-rule="evenodd"/>
    <path id="Path_870" data-name="Path 870" d="M389.134-1655.584c.064,6.54-364.678,18.54-357.556,9.52,7.037-8.9,18.534-11.94,28.592-15.98a56.12,56.12,0,0,0,24.567-18.76c4.936-6.8,7.727-14.98,9.857-23,2.154-8.12,3.923-16.34,6.5-24.36,3.207-9.96,8.9-19.44,18.031-24.98,8.281-5.02,18.471-6.44,27.969-6.78,14.4-.54,29.1,1.18,43.182-2.72a85.274,85.274,0,0,0,16.524-7.06c8.6-4.5,17.094-9.22,25.676-13.76q4.668-2.46,9.406-4.8c2.94-1.44,6.608-3.04,9.668-4.22,7.48-2.9,15.972-5.96,24.056-3.72a21.771,21.771,0,0,1,5.226,2.36,28.655,28.655,0,0,1,4.384,3.38,25.99,25.99,0,0,1,4.952,6.4c5.494,9.74,5.334,21.74,7.024,32.46,1.038,6.56,3.128,13.6,7.872,18.54,6.044,6.28,14.588,8.6,22.9,10.12,11.838,2.14,23.75,3.84,35.514,6.4,8.066,1.74,18.028,4.06,23.138,11.26a20.33,20.33,0,0,1,2.286,4.38c4.048,10.68,1.97,22.1.856,33.08A82.7,82.7,0,0,0,389.134-1655.584Z" transform="translate(31.476 3910.984)" fill="#c6d9ff" fill-rule="evenodd"/>
    <path id="Path_871" data-name="Path 871" d="M215.869-1737.99c104.574,0,189.474,6.5,189.474,14.52,0,8-84.9,14.5-189.474,14.5s-189.476-6.5-189.476-14.5C26.393-1731.49,111.294-1737.99,215.869-1737.99Z" transform="translate(26.393 3969.97)" fill="#bac8ef" fill-rule="evenodd"/>
    <path id="Path_872" data-name="Path 872" d="M139.425-1737.56l.376,5.28,4.524.4v-8.14Z" transform="translate(139.425 3967.94)" fill="#f2a99d" fill-rule="evenodd"/>
    <path id="Path_873" data-name="Path 873" d="M149.583-1738.46l1.628,6.16,5.1.42-1.02-8.14Z" transform="translate(149.583 3967.94)" fill="#f5a8a2" fill-rule="evenodd"/>
    <path id="Path_874" data-name="Path 874" d="M135.923-1730.97l-.1-1.4a18.112,18.112,0,0,1,7.2-3.94l4.9.12.808,5.22Z" transform="translate(135.823 3971.65)" fill="#17172e" fill-rule="evenodd"/>
    <path id="Path_875" data-name="Path 875" d="M159.265-1730.97H146.629a14.179,14.179,0,0,1,7.172-5.34h5.464Z" transform="translate(146.629 3971.65)" fill="#17172e" fill-rule="evenodd"/>
    <path id="Path_876" data-name="Path 876" d="M95.588-1790.488a2.447,2.447,0,0,0-.1.6.489.489,0,0,0,.384.5.63.63,0,0,0,.267.06,1,1,0,0,0,.34-.08.107.107,0,0,0,.07-.14.124.124,0,0,0-.149-.08.592.592,0,0,1-.259.06.677.677,0,0,1-.2-.04.28.28,0,0,1-.222-.3,2.184,2.184,0,0,1,.092-.52c.014-.06-.025-.14-.087-.14A.11.11,0,0,0,95.588-1790.488Z" transform="translate(95.49 3917.388)" fill="#2b3638" fill-rule="evenodd"/>
    <path id="Path_877" data-name="Path 877" d="M97.677-1789.98a4.379,4.379,0,0,0,.725,0,.108.108,0,0,0,.1-.12.121.121,0,0,0-.128-.1c-.234.02-.467,0-.7,0a.11.11,0,0,0-.116.12A.106.106,0,0,0,97.677-1789.98Z" transform="translate(97.561 3917.76)" fill="#2b3638" fill-rule="evenodd"/>
    <path id="Path_878" data-name="Path 878" d="M97.787-1791.023a4.313,4.313,0,0,1,.719.04.135.135,0,0,0,.136-.1.127.127,0,0,0-.093-.14,3.333,3.333,0,0,0-.774-.02.115.115,0,0,0-.11.12A.114.114,0,0,0,97.787-1791.023Z" transform="translate(97.664 3916.703)" fill="#2b3638" fill-rule="evenodd"/>
    <path id="Path_879" data-name="Path 879" d="M95.452-1791.01a10.771,10.771,0,0,0,1.608.02.1.1,0,0,0,.11-.12.113.113,0,0,0-.122-.1,10.357,10.357,0,0,1-1.576-.04.121.121,0,0,0-.126.12A.11.11,0,0,0,95.452-1791.01Z" transform="translate(95.346 3916.71)" fill="#2b3638" fill-rule="evenodd"/>
    <path id="Path_880" data-name="Path 880" d="M99.534-1788.186c.27-.26.543-.52.837-.76a.112.112,0,0,0,.016-.16.109.109,0,0,0-.164-.02c-.3.26-.578.5-.854.78a.111.111,0,0,0,0,.16A.1.1,0,0,0,99.534-1788.186Z" transform="translate(99.335 3918.806)" fill="#2b3638" fill-rule="evenodd"/>
    <path id="Path_881" data-name="Path 881" d="M96.543-1782.834c.236,1.66.7,3.54,2.229,4.6,2.392,1.66,5.79-1.16,6.979-3.12a19.171,19.171,0,0,0,1.3-3.62c.1-.28.438-1.06.874-.8.88.5.9,2.12.972,2.98.144,1.76,0,3.62.678,5.3.57,1.42,1.73,2.46,2.226,3.9a7.848,7.848,0,0,1,.218,3.56c-.192,1.62-.474,4.16-1.86,5.26-1.3,1.04-3.168,1.28-4.742,1.62-1.141.26-4.274,1.44-5.318,1.12-2.074-.64-2.2-3.94-2.675-5.6-.54-1.88-2.118-3.3-2.511-5.22C94.034-1777.114,96.651-1779.494,96.543-1782.834Z" transform="translate(94.729 3922.134)" fill="#060a28" fill-rule="evenodd"/>
    <path id="Path_882" data-name="Path 882" d="M95.12-1786.572c.581,1.3-.21,2.56.933,4.18.754,1.06,2.369,1.88,2.689,3.18.39,1.58-1.588,2.26-2.026,3.52-.586,1.7.746,4.84,2.455,5.52a3.413,3.413,0,0,0,2.354-.12,9.655,9.655,0,0,0,5.058-5.06,6.275,6.275,0,0,0,.742-2c.016-.18.41-.64.344-.78-.19-.4-1.1-.3-1.594-.38-1.237-.22-2.022-.22-2.814-1.62-1.074-1.9.257-3.24,1.172-4.64,2.556-3.96-1.828-6.86-4-8.14C96.73-1795.072,93.741-1789.652,95.12-1786.572Z" transform="translate(94.777 3914.552)" fill="#fda08b" fill-rule="evenodd"/>
    <path id="Path_883" data-name="Path 883" d="M95.569-1788.632c.2-.56,1.516-4.98,5.288-3.18a6.743,6.743,0,0,1,2.608,3.18c.37.72.748,1.7,1.613,1.94,1.2.34,1.854-.94,2.422-1.72.238-.32.808-.68,1.184-.36a1.832,1.832,0,0,1,.494,1.3c.044,1.08-.344,2.68.374,3.58.554.72,1.63.46,2.386.72,2.02.72,1.97,3.42,3.476,4.7a3.341,3.341,0,0,0,5.068-1.36,4.436,4.436,0,0,0-.71-4.6,9.57,9.57,0,0,1-1.714-2.22c-.566-1.54.15-3.48-1.778-4.2-1.216-.46-2.688-.04-3.928.08a3.332,3.332,0,0,1-1.66,0c-.76-.34-.97-1.06-1.476-1.68a3.766,3.766,0,0,0-2.536-1.52c-1.044-.1-2.042.36-3.114.28-2.314-.18-4.307-1.12-6.628-.06-1.311.58-2.419,1.58-2.527,4.34C94.343-1787.672,95.205-1787.612,95.569-1788.632Z" transform="translate(94.408 3913.712)" fill="#040333" fill-rule="evenodd"/>
    <path id="Path_884" data-name="Path 884" d="M86.808-1776.707c1.434.74,1.711-1.76,3.275-1.06,1.034.46,1.36,2.1,2.067,2.92,1.395,1.62,3.852,2.02,5.714,2.9.789.38,1.822.94,2.713.64,1.207-.42,1.457-2.08,1.6-3.16.339-2.46.363-5,.829-7.46a4.76,4.76,0,0,1,1.257-2.46c.161-.16.5-.54.769-.48a1.682,1.682,0,0,1,1.227,1.62c-.345,2.06-1.8,4.6-1.922,6.68a11.228,11.228,0,0,0,.854,5.08c.577,1.28,1.772,2.32,1.06,3.86-1.012,2.18-3.6,2.58-5.653,1.82-3.73-1.4-6.119-4.88-9.543-6.7-1.723-.92-4.351-.14-5.582-1.88-1.354-1.9.434-2.12,1.867-2.08" transform="translate(84.996 3923.087)" fill="#fda08b" fill-rule="evenodd"/>
    <path id="Path_885" data-name="Path 885" d="M104.2-1776.15c1.542,1.04,3.35.86,4.978,1.6,2.772,1.24,2.12,5.16,1.592,7.5a28.431,28.431,0,0,1-2.356,7.16c-.628,1.18-2.066,2.24-2.224,3.58-.18,1.52.8,3.9,2.71,3.08,1.968-.86,1.45-3.92,2.438-5.5s2.606-2.66,3.426-4.36a15.822,15.822,0,0,0,1.22-6.74c.044-3.92-.024-6.68-3.09-9.52-2.142-1.98-5.092-2.66-7.292-4.58a10.483,10.483,0,0,0-4.326-1.9C101-1785.83,101.854-1778.39,104.2-1776.15Z" transform="translate(101.224 3922.13)" fill="#f3a89d" fill-rule="evenodd"/>
    <path id="Path_886" data-name="Path 886" d="M100.259-1748.25c2.86,1.78,4.23,4.6,6.928,6.66,3.224,2.48,7,3.88,10.408,6.04,1.9,1.2,6.574,3.4,7-.76.292-2.86-3.058-5.36-4.968-6.92-4.676-3.84-8.514-7.56-10.922-13.24a18.32,18.32,0,0,1-1.776-7.88C104.949-1758.33,101.775-1752.97,100.259-1748.25Z" transform="translate(100.259 3943.61)" fill="#e45c4d" fill-rule="evenodd"/>
    <path id="Path_887" data-name="Path 887" d="M98.015-1768.833s-.462,4.16-1.1,7.82c-2,11.48-3.549,22.52-1.063,34.04.425,1.98,1,3.9,1.4,5.88.61,3.02.313,7.14,4.539,6.98,6.088-.22,4.574-12.5,4.274-16.66-.122-1.7.356-2.72.154-4.42-.06-.5-.114-1-.186-1.5a6.04,6.04,0,0,1,.436-2.08c.624-1.56,2.106-4.24,3.4-7.42,2.242-5.52,4.472-12,4.692-12.92,1.09-4.5,1.358-8.98-1.786-13.56-.818-1.2-2.634-1.82-4.686-2-1.742-.14-3.664.76-5.276,1.14-1.324.34-2.438.08-3.1.66A6.341,6.341,0,0,0,98.015-1768.833Z" transform="translate(94.564 3933.272)" fill="#f67366" fill-rule="evenodd"/>
    <path id="Path_888" data-name="Path 888" d="M100-1742.18a42.044,42.044,0,0,1-4.235,2.32c-.26.14-1.276.42-1.348.78-.071.34.366.58.623.7a4.369,4.369,0,0,0,2.324.2c1.2-.12,2.375-.34,3.579-.4a7.463,7.463,0,0,0,2.971-.4,1.374,1.374,0,0,0,.59-.92,3.1,3.1,0,0,0,.075-.72c.015-1.14-.713-1.16-1.809-1.24-.789-.04-1.568-.14-2.352-.24" transform="translate(94.408 3965.78)" fill="#060a28" fill-rule="evenodd"/>
    <path id="Path_889" data-name="Path 889" d="M117.455-1749.33c-.8.54-1.516,1.2-2.266,1.8a10.806,10.806,0,0,0-2.688,2.48,4.422,4.422,0,0,0-.464,1.9c-.08.92,0,1.84.006,2.78,0,.26,0,.54.006.82,0,.14-.134.48.008.44a3.457,3.457,0,0,0,1.314-.8,31.65,31.65,0,0,0,2.788-3c.554-.62,1.12-1.22,1.7-1.82.866-.86,2.044-1.42,1.056-2.68a7.453,7.453,0,0,0-.648-.66c-.392-.36-.778-.72-1.172-1.08" transform="translate(111.991 3958.63)" fill="#060a28" fill-rule="evenodd"/>
    <path id="Path_890" data-name="Path 890" d="M71.3-1777.74h9.372l8.773,12.14-5.939.1Z" transform="translate(71.302 3930.22)" fill="#484de8" fill-rule="evenodd"/>
    <path id="Path_891" data-name="Path 891" d="M87.008-1768.67l2.965-1.56,8.253,7.44-2.2,2.74Z" transform="translate(87.008 3937.73)" fill="#5861d9" fill-rule="evenodd"/>
    <path id="Path_892" data-name="Path 892" d="M71.3-1777.74v2.06l10.9,12.96-6.554,70.98,11.219.58,79.437-.32,1.072-7.52-57.948-3.56c-7.773-6.28-18.125-6.88-29.055-6.2l5.243-53.96,17.1,1.56,3.239-1.56-22.841-2.78Z" transform="translate(71.302 3930.22)" fill="#8597de" fill-rule="evenodd"/>
    <path id="Path_893" data-name="Path 893" d="M89.021-1739.23c5.723,0,10.37,4.36,10.37,9.72s-4.647,9.72-10.37,9.72-10.37-4.36-10.37-9.72S83.3-1739.23,89.021-1739.23Z" transform="translate(78.651 3968.73)" fill="#d64e46" fill-rule="evenodd"/>
    <path id="Path_894" data-name="Path 894" d="M86.779-1739.12a10.06,10.06,0,0,0-4.313,1.9,9.289,9.289,0,0,0-2.149,2.38,9.6,9.6,0,0,0-1.111,2.44,9.943,9.943,0,0,0-.411,2.64,9.829,9.829,0,0,0,1.317,5.14,9.318,9.318,0,0,0,6.315,4.44,9.222,9.222,0,0,1-5.969-4.62,9.91,9.91,0,0,1-1.1-4.94,10.6,10.6,0,0,1,.385-2.5,10.185,10.185,0,0,1,.983-2.36A9.611,9.611,0,0,1,86.779-1739.12Z" transform="translate(78.794 3968.84)" fill="#994242" fill-rule="evenodd"/>
    <path id="Path_895" data-name="Path 895" d="M97.3-1738.39a8.659,8.659,0,0,1,8.693,8.62,8.655,8.655,0,0,1-8.693,8.6,8.655,8.655,0,0,1-8.693-8.6A8.659,8.659,0,0,1,97.3-1738.39Z" transform="translate(88.603 3969.57)" fill="#f55f60" fill-rule="evenodd"/>
    <path id="Path_896" data-name="Path 896" d="M96.577-1738.39a10.712,10.712,0,0,0-4.17,1.62,8.72,8.72,0,0,0-2.175,2.12,8.638,8.638,0,0,0-1.157,2.28,8.294,8.294,0,0,0-.418,2.52,8.438,8.438,0,0,0,1.456,4.82,9.456,9.456,0,0,0,6.241,3.86,9.4,9.4,0,0,1-5.909-4.08,8.3,8.3,0,0,1-1.222-4.6,8.887,8.887,0,0,1,.388-2.36,8.811,8.811,0,0,1,1.02-2.16A9.6,9.6,0,0,1,96.577-1738.39Z" transform="translate(88.656 3969.57)" fill="#bf4748" fill-rule="evenodd"/>
    <path id="Path_897" data-name="Path 897" d="M96.95-1744.27l.527,4.92,4.558.6v-6.26A4.68,4.68,0,0,1,96.95-1744.27Z" transform="translate(96.95 3962.95)" fill="#dae8ff" fill-rule="evenodd"/>
    <path id="Path_898" data-name="Path 898" d="M111.525-1748.03l.932,3.94,4.976-3.48-4.086-3.06C113.5-1749.03,113.095-1747.97,111.525-1748.03Z" transform="translate(111.525 3957.33)" fill="#dde7fe" fill-rule="evenodd"/>
    <path id="Path_899" data-name="Path 899" d="M143.443-1788.8c-1.36,2.8-2.414,6.06-.612,8.98.6.98,1.776,1.44,2.312,2.44.43.82.014,1.7.324,2.5.17.42.564.58.94.8a4.257,4.257,0,0,0,3.86.28,2.543,2.543,0,0,0,.954-1.7,20.354,20.354,0,0,1,.788-3.8c.586-1.46,2.122-2.34,2.58-3.86.454-1.5-.128-2.86-.846-4.2a7.129,7.129,0,0,0-6.982-4.04,5.989,5.989,0,0,0-2.566.58C142.493-1789.883,143.443-1788.8,143.443-1788.8Z" transform="translate(141.875 3916.543)" fill="#fbb3a3" fill-rule="evenodd"/>
    <path id="Path_900" data-name="Path 900" d="M150.4-1763.46a4.711,4.711,0,0,1,4.716,4.72A4.728,4.728,0,0,1,150.4-1754a4.727,4.727,0,0,1-4.716-4.74A4.71,4.71,0,0,1,150.4-1763.46Z" transform="translate(145.681 3944.5)" fill="#e95d50" fill-rule="evenodd"/>
    <path id="Path_901" data-name="Path 901" d="M149.977-1761.88a2.07,2.07,0,0,1,2.286,1.76c0,.6.862,1.56.268,1.88a11.213,11.213,0,0,1-2.554-.12,2.087,2.087,0,0,1-2.288-1.76A2.072,2.072,0,0,1,149.977-1761.88Z" transform="translate(147.689 3946.08)" fill="#d05258" fill-rule="evenodd"/>
    <path id="Path_902" data-name="Path 902" d="M151.786-1773.3c-1.314-.96-2.376,6.48-.626,11.18,1.038,2.78.67,6.08,1.05,9.28.214,1.8.4,3.74-.166,4.72-.274.48-1,.56-1.3.64-.89.18-1.726-.72-1.948.28-.242,1.1.39,2.92,1.816,2.94,2.526.06,3.4-3.38,4.074-4.98,1.26-2.96,1.728-8,1.876-9.86.3-3.7.838-7.32.436-11.02-.19-1.76-.644-3.52-2.258-4.46a1.667,1.667,0,0,0-2.106-.04A4.822,4.822,0,0,0,151.786-1773.3Z" transform="translate(148.75 3932.979)" fill="#eda895" fill-rule="evenodd"/>
    <path id="Path_903" data-name="Path 903" d="M155.113-1763.04a4.724,4.724,0,0,1,4.718,4.72,4.729,4.729,0,0,1-4.718,4.74,4.728,4.728,0,0,1-4.716-4.74A4.724,4.724,0,0,1,155.113-1763.04Z" transform="translate(150.397 3944.92)" fill="#e95d50" fill-rule="evenodd"/>
    <path id="Path_904" data-name="Path 904" d="M127.27-1784.06a4.725,4.725,0,0,1,4.718,4.72,4.729,4.729,0,0,1-4.718,4.74,4.728,4.728,0,0,1-4.716-4.74A4.724,4.724,0,0,1,127.27-1784.06Z" transform="translate(122.554 3923.9)" fill="#eb5b59" fill-rule="evenodd"/>
    <path id="Path_905" data-name="Path 905" d="M127.033-1782.423c1.262,0,8.178-.18,8.178.78,0,.6-.166,2.54-.762,2.86-.368.2-6.934-.14-7.416-.14a2.073,2.073,0,0,1-2.288-1.74A2.072,2.072,0,0,1,127.033-1782.423Z" transform="translate(124.745 3925.523)" fill="#d05258" fill-rule="evenodd"/>
    <path id="Path_906" data-name="Path 906" d="M146.378-1765.638a8.4,8.4,0,0,1-1.732,1.74c-2.46,1.84-4.86,1.1-7.024-.8-2.9-2.54-3.958-6.5-5.24-10-.466-1.28-1.3-5.82-3.562-4.52-2.088,1.2-2.508-.32-2.234-1.48.454-1.92,3.938-3.26,4.918-1.08l5.792,6.26c.72,3.44,4.054,3.14,6.418,4.8,1.536,1.1,2.118,3.24,2.712,4.94" transform="translate(126.511 3925.058)" fill="#f5a293" fill-rule="evenodd"/>
    <path id="Path_907" data-name="Path 907" d="M126.729-1784.05a4.588,4.588,0,0,0-3.66,2.62,4.921,4.921,0,0,0-.452,1.98,4.853,4.853,0,0,0,.382,1.98,4.62,4.62,0,0,0,3.524,2.8,4.552,4.552,0,0,1-3.262-2.9,5.091,5.091,0,0,1-.3-1.88,5.162,5.162,0,0,1,.39-1.86A4.545,4.545,0,0,1,126.729-1784.05Z" transform="translate(122.617 3923.91)" fill="#994242" fill-rule="evenodd"/>
    <path id="Path_908" data-name="Path 908" d="M133.561-1784.16a4.727,4.727,0,0,1,4.716,4.74,4.723,4.723,0,0,1-4.716,4.72,4.723,4.723,0,0,1-4.716-4.72A4.727,4.727,0,0,1,133.561-1784.16Z" transform="translate(128.845 3923.8)" fill="#e95d50" fill-rule="evenodd"/>
    <path id="Path_909" data-name="Path 909" d="M133.02-1784.14a4.588,4.588,0,0,0-3.66,2.62,4.854,4.854,0,0,0-.452,1.98,4.884,4.884,0,0,0,.38,1.98,4.624,4.624,0,0,0,3.526,2.8,4.556,4.556,0,0,1-3.264-2.9,5.134,5.134,0,0,1-.3-1.88,5.118,5.118,0,0,1,.392-1.86A4.545,4.545,0,0,1,133.02-1784.14Z" transform="translate(128.908 3923.82)" fill="#994242" fill-rule="evenodd"/>
    <path id="Path_910" data-name="Path 910" d="M139.323-1711.4l8.806.22.822-38.56h1.628l9.332,38.34h7.99l-5.1-49.34c-7.264-9.7-16.088-4.34-24.808,0Z" transform="translate(137.993 3941.778)" fill="#4953ed" fill-rule="evenodd"/>
    <path id="Path_911" data-name="Path 911" d="M134.839-1770.854a19.82,19.82,0,0,1,1.778,3.6c.378,1,.492,2.34,1.47,3.02.77.54,1.418-.32,1.994-.66.692-.42,1.314-.74,1.566.24.564,2.18-.012,4.04-.25,6.26-.314,2.94-.552,5.9-.822,8.84a10.442,10.442,0,0,0,.108,4.58c.568,1.54,2.924,2.1,4.288,2.3,3.068.42,6.9.56,7.812.64,2.95.26,3.58-4.32,7.322-3.9,1.614.18,4.34,2.92,5.452.46.8-1.78.394-3.76.236-5.6-.224-2.64-.416-5.26-.68-7.88-.144-1.44-.638-2.86-.254-4.28.212-.8.982-.94,1.71-.92,1.228.02,2.522.5,3.748.1,2.252-.76,2.464-3.82,2.24-5.78a20.605,20.605,0,0,0-.466-2.98,11.793,11.793,0,0,0-4.732-6.76,9.591,9.591,0,0,0-5.058-1.96c-2.16.04-4.48.62-6.654.2s-4.386-2.22-6.694-1.4a21.923,21.923,0,0,0-5.972,3.88A56.8,56.8,0,0,0,134.839-1770.854Z" transform="translate(134.839 3925.014)" fill="#0a0753" fill-rule="evenodd"/>
    <path id="Path_912" data-name="Path 912" d="M142.974-1786.832a14.042,14.042,0,0,1,4.308-1.62c.566-.08,1.348-.26,1.816.18.3.3.056.88-.11,1.2-.038.06-.306.44-.262.46.866.42,2.33-.64,3.068.06.454.44-.05,1.18.262,1.64.324.48,1.186.12,1.292.74.114.64-1.124,2.6.372,2.46a2.5,2.5,0,0,0,1.658-1.28,6.98,6.98,0,0,0,1.132-2.38c.146-.74.056-1.5.218-2.24.132-.6,1.134-.12,1-.94-.144-.9-1.21-.58-1.6-1.16-.376-.56-.1-1.66-.652-2.1-.632-.5-.948,1.1-1.552.82-.354-.16-.546-.64-.746-.94a2.476,2.476,0,0,0-2.156-1.28c-.93.14.468,1.5-.53,1.72a1.414,1.414,0,0,1-.29.02c-1.554-.02-2.824-1.28-4.354-1.42a2.283,2.283,0,0,0-1.662.32c-.16.16.112.42.234.52.262.18,1.2.42.874.88-.578.82-2.044,1.04-2.91,1.4-.232.08-.926.38-.956.68-.018.2.358.24.474.26.32.04.978-.26,1.266-.06.442.3-.224,1.3-.332,1.58Z" transform="translate(141.426 3914.731)" fill="#0d0962" fill-rule="evenodd"/>
    <path id="Path_913" data-name="Path 913" d="M92.048-1660.71h50.614a140.506,140.506,0,0,1-.651,14.18,50.119,50.119,0,0,1-2.6,11.84,47.145,47.145,0,0,1-7.416,13.6,43.825,43.825,0,0,1-10.994,9.9,51.577,51.577,0,0,1-13.857,6.04,59.747,59.747,0,0,1-15.874,2.08,55.669,55.669,0,0,1-20.883-3.78,46.808,46.808,0,0,1-16.2-10.6,47.983,47.983,0,0,1-10.539-16.38,57.248,57.248,0,0,1-3.773-21.16,57.576,57.576,0,0,1,3.708-21,46.205,46.205,0,0,1,10.539-16.34,48.116,48.116,0,0,1,16.459-10.54,58.72,58.72,0,0,1,21.469-3.76q15.353,0,26.933,6.62,11.58,6.66,18.346,20.56l-24.2,10.02q-3.383-8.07-8.783-11.58a22.052,22.052,0,0,0-12.3-3.5,24.554,24.554,0,0,0-10.409,2.14,22.278,22.278,0,0,0-8,6.12,29.173,29.173,0,0,0-5.2,9.56,38.9,38.9,0,0,0-1.887,12.48,39.384,39.384,0,0,0,1.626,11.58,26.119,26.119,0,0,0,4.879,9.24,22.143,22.143,0,0,0,8.067,6.06,27.44,27.44,0,0,0,11.19,2.14,31.236,31.236,0,0,0,7.286-.84,19.113,19.113,0,0,0,6.311-2.74,15.523,15.523,0,0,0,4.619-4.88,19.407,19.407,0,0,0,2.472-7.28H92.048Z" transform="translate(39.872 4001.33)" fill="#abbce1"/>
    <path id="Path_914" data-name="Path 914" d="M92.4-1661.05a.709.709,0,0,0-.71.7v19.78a.7.7,0,0,0,.71.7h20.109a18.221,18.221,0,0,1-2.24,6.22,14.889,14.889,0,0,1-4.41,4.66,18.679,18.679,0,0,1-6.08,2.62,29.85,29.85,0,0,1-7.12.84,26.451,26.451,0,0,1-10.9-2.1,21.187,21.187,0,0,1-7.811-5.84,25.572,25.572,0,0,1-4.746-9,38.868,38.868,0,0,1-1.6-11.38,38.253,38.253,0,0,1,1.849-12.26,28.864,28.864,0,0,1,5.076-9.34,22.037,22.037,0,0,1,7.753-5.92,24.152,24.152,0,0,1,10.113-2.08,21.416,21.416,0,0,1,11.908,3.4q5.245,3.42,8.515,11.26a.7.7,0,0,0,.926.38l24.2-10.02a.728.728,0,0,0,.392-.4.706.706,0,0,0-.025-.56q-6.868-14.13-18.631-20.86-11.732-6.72-27.286-6.74a59.222,59.222,0,0,0-21.728,3.82,48.666,48.666,0,0,0-16.7,10.7,46.769,46.769,0,0,0-10.7,16.58,58.355,58.355,0,0,0-3.756,21.26,57.933,57.933,0,0,0,3.823,21.42,48.748,48.748,0,0,0,10.695,16.62,47.659,47.659,0,0,0,16.44,10.76,56.211,56.211,0,0,0,21.147,3.84,60.313,60.313,0,0,0,16.063-2.12,52.192,52.192,0,0,0,14.046-6.12,44.171,44.171,0,0,0,11.173-10.06,47.813,47.813,0,0,0,7.528-13.8,51.091,51.091,0,0,0,2.64-12,141.455,141.455,0,0,0,.654-14.26.709.709,0,0,0-.71-.7Zm.71,1.42H142.3q-.028,7.35-.645,13.4a49.426,49.426,0,0,1-2.565,11.66h0a46.5,46.5,0,0,1-7.3,13.4,42.651,42.651,0,0,1-10.816,9.72,51.026,51.026,0,0,1-13.668,5.98,59.2,59.2,0,0,1-15.685,2.06A54.736,54.736,0,0,1,71-1607.15a45.96,45.96,0,0,1-15.958-10.44,47.207,47.207,0,0,1-10.383-16.14,56.484,56.484,0,0,1-3.724-20.9,56.8,56.8,0,0,1,3.66-20.74,45.643,45.643,0,0,1,10.377-16.1,47.274,47.274,0,0,1,16.219-10.38,57.8,57.8,0,0,1,21.21-3.72q15.151,0,26.58,6.54,11.121,6.39,17.727,19.58c-3.541,1.46-19.438,8.04-22.853,9.46-2.282-5.2-5.215-8.94-8.771-11.26a22.864,22.864,0,0,0-12.683-3.62,25.27,25.27,0,0,0-10.7,2.22,23.153,23.153,0,0,0-8.251,6.3,30,30,0,0,0-5.333,9.8,39.456,39.456,0,0,0-1.924,12.7,40.327,40.327,0,0,0,1.657,11.8,27,27,0,0,0,5.013,9.48,22.778,22.778,0,0,0,8.323,6.24,27.762,27.762,0,0,0,11.479,2.22,31.557,31.557,0,0,0,7.452-.88,19.889,19.889,0,0,0,6.541-2.82,16.369,16.369,0,0,0,4.828-5.1,20.27,20.27,0,0,0,2.568-7.56.7.7,0,0,0-.164-.56.712.712,0,0,0-.538-.26H93.112Z" transform="translate(39.517 4000.97)" fill="#4375bd" fill-rule="evenodd"/>
    <path id="Path_915" data-name="Path 915" d="M125.811-1654.27l-35.781-51h30.447l18.216,26.8,18.086-26.8h30.446l-35.912,51v47.1h-25.5Z" transform="translate(90.031 4002.69)" fill="#abbce1"/>
    <path id="Path_916" data-name="Path 916" d="M125.456-1653.68v46.86a.714.714,0,0,0,.71.72h25.5a.714.714,0,0,0,.71-.72v-46.86c2.346-3.34,35.782-50.82,35.782-50.82a.719.719,0,0,0,.05-.74.7.7,0,0,0-.63-.38H157.134a.742.742,0,0,0-.59.3l-17.5,25.94-17.628-25.94a.737.737,0,0,0-.586-.3H90.386a.7.7,0,0,0-.63.38.718.718,0,0,0,.049.74Zm1.42-.24a.7.7,0,0,0-.128-.4l-35-49.88h28.705c2.03,2.98,18,26.48,18,26.48a.707.707,0,0,0,.588.32.7.7,0,0,0,.588-.32s15.854-23.48,17.874-26.48h28.7l-35.124,49.88a.7.7,0,0,0-.13.4v46.4H126.876Z" transform="translate(89.676 4002.34)" fill="#4375bd" fill-rule="evenodd"/>
    <path id="Path_917" data-name="Path 917" d="M140.9-1607.17l16.654-98.1H182.8l19.646,52.32,19.518-52.32h25.242l16.654,98.1H238.489l-8.458-56.46-23.16,56.46H196.723l-21.99-56.46-8.456,56.46Z" transform="translate(140.905 4002.69)" fill="#abbce1"/>
    <path id="Path_918" data-name="Path 918" d="M140.56-1606.92a.673.673,0,0,0,.158.56.714.714,0,0,0,.542.26h25.372a.714.714,0,0,0,.7-.6l8.062-53.84,21.02,53.98a.707.707,0,0,0,.662.46h10.148a.722.722,0,0,0,.658-.44l22.182-54.08c1.648,11,8.076,53.92,8.076,53.92a.712.712,0,0,0,.7.6h25.372a.717.717,0,0,0,.542-.26.687.687,0,0,0,.158-.56l-16.654-98.12a.7.7,0,0,0-.7-.58H222.32a.707.707,0,0,0-.666.46L202.8-1654.64l-18.98-50.52a.7.7,0,0,0-.664-.46H157.914a.7.7,0,0,0-.7.58Zm1.54-.6s15.038-88.58,16.414-96.68h24.15l19.474,51.84a.707.707,0,0,0,.666.46.7.7,0,0,0,.664-.46l19.344-51.84h24.15l16.414,96.68h-23.92l-8.368-55.86a.707.707,0,0,0-.616-.6.7.7,0,0,0-.742.44l-22.98,56.02h-9.186l-21.814-56.02a.7.7,0,0,0-.74-.44.713.713,0,0,0-.624.6s-7.456,49.78-8.366,55.86Z" transform="translate(140.55 4002.34)" fill="#4375bd" fill-rule="evenodd"/>
    <path id="Path_919" data-name="Path 919" d="M122.471-1714.5a7.344,7.344,0,0,0-1.816-1.1,5.144,5.144,0,0,0-1.758-.34,2.852,2.852,0,0,0-1.758.5,1.614,1.614,0,0,0-.682,1.34,1.354,1.354,0,0,0,.342.94,3.069,3.069,0,0,0,.892.64,8.471,8.471,0,0,0,1.248.46q.7.21,1.376.42a8.645,8.645,0,0,1,3.986,2.44,5.934,5.934,0,0,1,1.262,3.94,7.646,7.646,0,0,1-.554,2.98,6.006,6.006,0,0,1-1.616,2.28,7.232,7.232,0,0,1-2.61,1.48,10.591,10.591,0,0,1-3.5.52,12.931,12.931,0,0,1-7.518-2.4l2.384-4.48a9.571,9.571,0,0,0,2.468,1.64,5.912,5.912,0,0,0,2.41.54,2.858,2.858,0,0,0,2.028-.62,1.925,1.925,0,0,0,.666-1.42,1.937,1.937,0,0,0-.17-.84,1.822,1.822,0,0,0-.566-.66,4.954,4.954,0,0,0-1.036-.54c-.426-.18-.94-.36-1.546-.58-.718-.22-1.422-.46-2.114-.74a6.645,6.645,0,0,1-1.842-1.1,4.872,4.872,0,0,1-1.306-1.72,6.031,6.031,0,0,1-.5-2.62,7.615,7.615,0,0,1,.524-2.88,6.213,6.213,0,0,1,1.476-2.2,6.505,6.505,0,0,1,2.326-1.44,8.8,8.8,0,0,1,3.078-.5,13.153,13.153,0,0,1,3.318.44,14.307,14.307,0,0,1,3.318,1.28Z" transform="translate(109.763 3987.4)" fill="#686868"/>
    <path id="Path_920" data-name="Path 920" d="M124.739-1709.28a5.692,5.692,0,0,0,.482,2.36,5.763,5.763,0,0,0,1.306,1.86,5.849,5.849,0,0,0,1.914,1.24,6,6,0,0,0,2.312.44,6,6,0,0,0,2.31-.44,6.026,6.026,0,0,0,1.93-1.24,5.675,5.675,0,0,0,1.318-1.86,5.692,5.692,0,0,0,.482-2.36,5.691,5.691,0,0,0-.482-2.36,5.679,5.679,0,0,0-1.318-1.86,6.026,6.026,0,0,0-1.93-1.24,6,6,0,0,0-2.31-.44,6,6,0,0,0-2.312.44,5.849,5.849,0,0,0-1.914,1.24,5.767,5.767,0,0,0-1.306,1.86A5.692,5.692,0,0,0,124.739-1709.28Zm-5.814,0a11.241,11.241,0,0,1,.878-4.44,11.182,11.182,0,0,1,2.44-3.58,11.232,11.232,0,0,1,3.73-2.4,12.728,12.728,0,0,1,4.78-.86,12.754,12.754,0,0,1,4.764.86,11.357,11.357,0,0,1,3.758,2.4,11.032,11.032,0,0,1,2.454,3.58,11.242,11.242,0,0,1,.88,4.44,11.242,11.242,0,0,1-.88,4.44,10.822,10.822,0,0,1-2.454,3.58,11.354,11.354,0,0,1-3.758,2.4,12.759,12.759,0,0,1-4.764.86,12.733,12.733,0,0,1-4.78-.86,11.229,11.229,0,0,1-3.73-2.4,10.966,10.966,0,0,1-2.44-3.58A11.241,11.241,0,0,1,118.925-1709.28Z" transform="translate(118.925 3987.4)" fill="#686868"/>
    <path id="Path_921" data-name="Path 921" d="M144.779-1715.55h-6.694v3.56h6.1v4.72h-6.1v8.4h-5.56v-21.4h12.254Z" transform="translate(132.525 3987.69)" fill="#686868"/>
    <path id="Path_922" data-name="Path 922" d="M149.43-1715.55v16.68h-5.56v-16.68H139.3v-4.72H154v4.72Z" transform="translate(139.304 3987.69)" fill="#686868"/>
    <path id="Path_923" data-name="Path 923" d="M153.173-1720.27l3.688,13.82,4.538-13.82h4.424l4.538,13.82,3.688-13.82h5.814l-6.382,21.4h-5.672l-4.2-12.4-4.2,12.4h-5.672l-6.382-21.4Z" transform="translate(147.359 3987.69)" fill="#686868"/>
    <path id="Path_924" data-name="Path 924" d="M176.815-1706.81l-2.5-7.12-2.5,7.12Zm1.474,4.22h-7.942l-1.276,3.72h-5.928l8.14-21.4h6.07l8.14,21.4h-5.928Z" transform="translate(163.143 3987.69)" fill="#686868"/>
    <path id="Path_925" data-name="Path 925" d="M181.1-1710.71h1.048a4.02,4.02,0,0,0,2.526-.68,2.3,2.3,0,0,0,.878-1.96,2.29,2.29,0,0,0-.878-1.94,4.02,4.02,0,0,0-2.526-.68H181.1Zm12.224,11.84H186.4l-5.3-8.24v8.24h-5.56v-21.4h8.65a8.268,8.268,0,0,1,3.12.54,5.964,5.964,0,0,1,2.2,1.42,5.968,5.968,0,0,1,1.3,2.1,7.355,7.355,0,0,1,.44,2.56,6.3,6.3,0,0,1-1.178,3.96,5.868,5.868,0,0,1-3.474,2.04Z" transform="translate(175.538 3987.69)" fill="#686868"/>
    <path id="Path_926" data-name="Path 926" d="M197.761-1715.55h-6.61v3.56h6.24v4.72h-6.24v3.68h6.61v4.72H185.593v-21.4h12.168Z" transform="translate(185.593 3987.69)" fill="#686868"/>
  </g>
</svg>
