<svg xmlns="http://www.w3.org/2000/svg" width="550.64" height="469.329" viewBox="0 0 550.64 469.329">
  <g id="pharmacy" transform="translate(-559.209 -2222.191)">
    <path id="Path_977" data-name="Path 977" d="M332.672-1511.78h5.008c5.546,0,8.32-2.4,8.32-7.24q0-7.23-8.32-7.24h-5.008Zm0,31.44h-15.1v-58.1h24.038q9.786,0,14.986,5.1,5.2,5.07,5.2,14.32t-5.2,14.34q-5.2,5.07-14.986,5.08h-8.936Z" transform="translate(317.57 4169.52)" fill="#abbce1"/>
    <path id="Path_978" data-name="Path 978" d="M333.029-1479.27a.715.715,0,0,0,.712-.72v-18.54h8.224c6.746,0,11.9-1.8,15.484-5.3s5.416-8.46,5.416-14.84-1.822-11.32-5.416-14.84c-3.584-3.5-8.738-5.28-15.484-5.28H317.927a.712.712,0,0,0-.714.7v58.1a.716.716,0,0,0,.714.72Zm-.714-1.44H318.639v-56.66h23.326c6.3,0,11.138,1.6,14.488,4.88,3.342,3.26,4.986,7.88,4.986,13.82s-1.644,10.56-4.986,13.82c-3.35,3.28-8.186,4.88-14.488,4.88h-8.936a.716.716,0,0,0-.714.72Zm0-30.72a.716.716,0,0,0,.714.72h5.008c2.986,0,5.214-.68,6.708-1.98a7.529,7.529,0,0,0,2.326-5.98,7.456,7.456,0,0,0-2.326-5.96c-1.494-1.3-3.722-2-6.708-2h-5.008a.716.716,0,0,0-.714.72Zm1.426-.7v-13.06h4.3c2.56,0,4.492.52,5.772,1.62a6.186,6.186,0,0,1,1.836,4.9,6.13,6.13,0,0,1-1.836,4.9c-1.28,1.12-3.212,1.64-5.772,1.64Z" transform="translate(317.213 4169.17)" fill="#4375bd" fill-rule="evenodd"/>
    <path id="Path_979" data-name="Path 979" d="M358.791-1516.02h21.8v-22.42h15.1v58.1H380.6v-23.96h-21.8v23.96h-15.1v-58.1h15.1Z" transform="translate(343.689 4169.52)" fill="#abbce1"/>
    <path id="Path_980" data-name="Path 980" d="M359.86-1516.37v-21.72a.711.711,0,0,0-.712-.7h-15.1a.712.712,0,0,0-.714.7v58.1a.716.716,0,0,0,.714.72h15.1a.715.715,0,0,0,.712-.72v-23.24h20.378v23.24a.716.716,0,0,0,.714.72h15.1a.716.716,0,0,0,.714-.72v-58.1a.712.712,0,0,0-.714-.7h-15.1a.712.712,0,0,0-.714.7v21.72Zm-1.426.7a.716.716,0,0,0,.714.72h21.8a.714.714,0,0,0,.712-.72v-21.7H395.34v56.66H381.664v-23.24a.714.714,0,0,0-.712-.72h-21.8a.716.716,0,0,0-.714.72v23.24H344.758v-56.66h13.676Z" transform="translate(343.332 4169.17)" fill="#4375bd" fill-rule="evenodd"/>
    <path id="Path_981" data-name="Path 981" d="M410.142-1501.92l-6.78-19.34-6.78,19.34Zm4.006,11.48H392.576l-3.468,10.1h-16.1l22.112-58.1h16.488l22.112,58.1h-16.1Z" transform="translate(373.006 4169.52)" fill="#abbce1"/>
    <path id="Path_982" data-name="Path 982" d="M414-1489.37l3.3,9.62a.722.722,0,0,0,.674.48h16.1a.71.71,0,0,0,.588-.32.713.713,0,0,0,.078-.66l-22.112-58.08a.709.709,0,0,0-.666-.46H395.475a.707.707,0,0,0-.666.46l-22.114,58.08a.719.719,0,0,0,.08.66.708.708,0,0,0,.588.32h16.1a.722.722,0,0,0,.674-.48l3.3-9.62Zm1.182-.94a.7.7,0,0,0-.674-.48H392.933a.7.7,0,0,0-.676.48l-3.3,9.6H374.4l21.57-56.66h15.5s18.7,49.12,21.57,56.66h-14.56C417.791-1482.71,415.179-1490.31,415.179-1490.31Zm-4.68-10.54a.736.736,0,0,0,.582-.3.7.7,0,0,0,.09-.64l-6.78-19.34a.7.7,0,0,0-.672-.48.7.7,0,0,0-.672.48l-6.782,19.34a.7.7,0,0,0,.092.64.736.736,0,0,0,.582.3Zm-1.006-1.42H397.945l5.774-16.48Z" transform="translate(372.649 4169.17)" fill="#4375bd" fill-rule="evenodd"/>
    <path id="Path_983" data-name="Path 983" d="M421.777-1512.46h2.85q4.47,0,6.858-1.86a6.328,6.328,0,0,0,2.388-5.32,6.289,6.289,0,0,0-2.388-5.3q-2.388-1.86-6.858-1.86h-2.85Zm33.208,32.12h-18.8l-14.408-22.34v22.34h-15.1v-58.1h23.5a22.859,22.859,0,0,1,8.476,1.44,16.287,16.287,0,0,1,5.97,3.88,16.32,16.32,0,0,1,3.544,5.7,19.942,19.942,0,0,1,1.194,6.94q0,6.63-3.2,10.74a16.08,16.08,0,0,1-9.438,5.6Z" transform="translate(406.675 4169.52)" fill="#abbce1"/>
    <path id="Path_984" data-name="Path 984" d="M455.341-1479.27a.721.721,0,0,0,.638-.4.736.736,0,0,0-.072-.76L438.3-1503.37a16.268,16.268,0,0,0,8.78-5.58c2.22-2.86,3.348-6.58,3.348-11.18a20.581,20.581,0,0,0-1.238-7.18,16.861,16.861,0,0,0-3.7-5.94,17.18,17.18,0,0,0-6.226-4.08,23.768,23.768,0,0,0-8.736-1.46h-23.5a.71.71,0,0,0-.712.7v58.1a.714.714,0,0,0,.712.72h15.1a.714.714,0,0,0,.712-.72v-19.92l13.1,20.3a.691.691,0,0,0,.6.34Zm-1.446-1.44H436.929l-14.2-22a.683.683,0,0,0-.8-.3.7.7,0,0,0-.512.68v21.62H407.745v-56.66h22.786a22.379,22.379,0,0,1,8.214,1.38,15.484,15.484,0,0,1,5.716,3.72,15.451,15.451,0,0,1,3.392,5.46,19.106,19.106,0,0,1,1.15,6.68c0,4.24-1,7.68-3.048,10.32a15.482,15.482,0,0,1-9.038,5.32.705.705,0,0,0-.508.46.682.682,0,0,0,.106.66Zm-32.476-31.4a.712.712,0,0,0,.714.7h2.85c3.172,0,5.6-.68,7.294-2a6.994,6.994,0,0,0,2.666-5.88,7.019,7.019,0,0,0-2.666-5.88c-1.7-1.3-4.122-2-7.294-2h-2.85a.716.716,0,0,0-.714.72Zm1.426-.72v-12.9h2.138c2.786,0,4.932.54,6.422,1.7a5.626,5.626,0,0,1,2.112,4.74,5.664,5.664,0,0,1-2.112,4.76c-1.49,1.16-3.636,1.7-6.422,1.7Z" transform="translate(406.319 4169.17)" fill="#4375bd" fill-rule="evenodd"/>
    <path id="Path_985" data-name="Path 985" d="M432.679-1480.34l9.862-58.1h14.946l11.636,30.98,11.556-30.98h14.948l9.862,58.1H490.465l-5.008-33.44-13.716,33.44h-6.008l-13.022-33.44-5.008,33.44Z" transform="translate(432.679 4169.52)" fill="#abbce1"/>
    <path id="Path_986" data-name="Path 986" d="M432.332-1480.11a.73.73,0,0,0,.158.58.724.724,0,0,0,.546.26H448.06a.714.714,0,0,0,.7-.62l4.612-30.78,12.048,30.94a.713.713,0,0,0,.666.46H472.1a.723.723,0,0,0,.66-.44s9.594-23.4,12.734-31.06l4.624,30.88a.714.714,0,0,0,.706.62h15.024a.72.72,0,0,0,.544-.26.715.715,0,0,0,.158-.58l-9.862-58.1a.7.7,0,0,0-.7-.58H481.036a.708.708,0,0,0-.668.46l-10.892,29.18c-2.474-6.58-10.964-29.18-10.964-29.18a.708.708,0,0,0-.668-.46H442.9a.706.706,0,0,0-.7.58Zm1.548-.6,9.62-56.66h13.852c1.446,3.86,11.46,30.52,11.46,30.52a.737.737,0,0,0,.668.46.726.726,0,0,0,.668-.48s9.944-26.64,11.384-30.5h13.85l9.62,56.66H491.436l-4.918-32.82a.709.709,0,0,0-.62-.6.708.708,0,0,0-.744.44l-13.534,32.98h-5.044c-1.554-3.98-12.844-32.98-12.844-32.98a.7.7,0,0,0-.744-.44.7.7,0,0,0-.626.6l-4.916,32.82Z" transform="translate(432.322 4169.17)" fill="#4375bd" fill-rule="evenodd"/>
    <path id="Path_987" data-name="Path 987" d="M508.223-1501.92l-6.78-19.34-6.78,19.34Zm4.008,11.48H490.657l-3.468,10.1h-16.1l22.112-58.1h16.488l22.114,58.1H515.7Z" transform="translate(471.087 4169.52)" fill="#abbce1"/>
    <path id="Path_988" data-name="Path 988" d="M512.077-1489.37c.69,2,3.3,9.62,3.3,9.62a.724.724,0,0,0,.674.48h16.1a.7.7,0,0,0,.586-.32.708.708,0,0,0,.08-.66l-22.112-58.08a.712.712,0,0,0-.668-.46H493.555a.709.709,0,0,0-.666.46l-22.112,58.08a.708.708,0,0,0,.08.66.7.7,0,0,0,.586.32h16.1a.724.724,0,0,0,.676-.48l3.3-9.62Zm1.184-.94a.7.7,0,0,0-.674-.48H491.013a.7.7,0,0,0-.674.48s-2.612,7.6-3.3,9.6h-14.56l21.57-56.66h15.506l21.57,56.66h-14.56Zm-4.682-10.54a.736.736,0,0,0,.582-.3.7.7,0,0,0,.092-.64l-6.78-19.34a.7.7,0,0,0-.674-.48.7.7,0,0,0-.672.48l-6.78,19.34a.706.706,0,0,0,.09.64.739.739,0,0,0,.582.3Zm-1-1.42h-11.55s4.122-11.76,5.774-16.48Z" transform="translate(470.73 4169.17)" fill="#4375bd" fill-rule="evenodd"/>
    <path id="Path_989" data-name="Path 989" d="M546.824-1518.21a16.128,16.128,0,0,0-12.944-6.4,15.865,15.865,0,0,0-6.278,1.24,15.154,15.154,0,0,0-4.97,3.36,15.2,15.2,0,0,0-3.274,5.04,16.61,16.61,0,0,0-1.194,6.32,16.873,16.873,0,0,0,1.194,6.4,15.683,15.683,0,0,0,3.312,5.08,15.47,15.47,0,0,0,4.97,3.38,15.4,15.4,0,0,0,6.164,1.24q7.242,0,13.02-6.16v17.88l-1.54.54a44.043,44.043,0,0,1-6.472,1.8,31.813,31.813,0,0,1-5.932.58,29.836,29.836,0,0,1-11.52-2.28,29.973,29.973,0,0,1-9.708-6.38,31.971,31.971,0,0,1-6.74-9.8,29.776,29.776,0,0,1-2.544-12.36,29.7,29.7,0,0,1,2.5-12.28,30.485,30.485,0,0,1,6.7-9.64,30.69,30.69,0,0,1,9.746-6.32,30.306,30.306,0,0,1,11.634-2.28,32.41,32.41,0,0,1,6.82.74,39.608,39.608,0,0,1,7.048,2.28Z" transform="translate(502.368 4168.71)" fill="#abbce1"/>
    <path id="Path_990" data-name="Path 990" d="M546.63-1517.4a.736.736,0,0,0,.79.22.724.724,0,0,0,.474-.68v-18.02a.694.694,0,0,0-.438-.66,42.951,42.951,0,0,0-7.172-2.32,32.5,32.5,0,0,0-6.972-.74,31.289,31.289,0,0,0-11.9,2.32,31.488,31.488,0,0,0-9.97,6.46,31.228,31.228,0,0,0-6.86,9.86,30.427,30.427,0,0,0-2.566,12.58,30.538,30.538,0,0,0,2.6,12.66,32.414,32.414,0,0,0,6.894,10,30.505,30.505,0,0,0,9.934,6.54,30.47,30.47,0,0,0,11.792,2.34,31.577,31.577,0,0,0,6.066-.6,45.735,45.735,0,0,0,6.576-1.84l1.538-.54a.7.7,0,0,0,.478-.66v-17.88a.694.694,0,0,0-.45-.66.713.713,0,0,0-.784.16q-5.55,5.94-12.5,5.94a14.706,14.706,0,0,1-5.88-1.16,15.307,15.307,0,0,1-4.744-3.24,14.958,14.958,0,0,1-3.162-4.86,15.992,15.992,0,0,1-1.142-6.12,15.978,15.978,0,0,1,1.142-6.06,14.62,14.62,0,0,1,3.122-4.8,14.339,14.339,0,0,1,4.742-3.2,15.216,15.216,0,0,1,6-1.18A15.454,15.454,0,0,1,546.63-1517.4Zm-.162-2.32a16.45,16.45,0,0,0-12.232-5.24,16.508,16.508,0,0,0-6.558,1.28,15.969,15.969,0,0,0-5.2,3.52,15.862,15.862,0,0,0-3.426,5.26,17.347,17.347,0,0,0-1.248,6.6,17.508,17.508,0,0,0,1.248,6.66,16.255,16.255,0,0,0,3.464,5.32,16.279,16.279,0,0,0,5.2,3.54,16.066,16.066,0,0,0,6.446,1.3,17.656,17.656,0,0,0,12.308-5.16V-1481l-1.064.38h0a45.217,45.217,0,0,1-6.368,1.78,30.378,30.378,0,0,1-5.8.56,29.2,29.2,0,0,1-11.248-2.22,29.464,29.464,0,0,1-9.48-6.24,31.116,31.116,0,0,1-6.59-9.56,29.206,29.206,0,0,1-2.48-12.08,29.025,29.025,0,0,1,2.442-12,29.645,29.645,0,0,1,6.546-9.4,29.893,29.893,0,0,1,9.522-6.18,29.686,29.686,0,0,1,11.364-2.22,31,31,0,0,1,6.668.72,38.993,38.993,0,0,1,6.488,2.06Z" transform="translate(502.012 4168.36)" fill="#4375bd" fill-rule="evenodd"/>
    <path id="Path_991" data-name="Path 991" d="M546.979-1508.24l-21.188-30.2h18.028l10.788,15.88,10.708-15.88h18.03l-21.266,30.2v27.9h-15.1Z" transform="translate(525.791 4169.52)" fill="#abbce1"/>
    <path id="Path_992" data-name="Path 992" d="M546.622-1507.65v27.66a.716.716,0,0,0,.714.72h15.1a.716.716,0,0,0,.714-.72v-27.66l21.134-30.02a.71.71,0,0,0,.05-.74.7.7,0,0,0-.632-.38h-18.03a.742.742,0,0,0-.59.3s-7.878,11.68-10.12,15l-10.2-15a.742.742,0,0,0-.59-.3H526.148a.706.706,0,0,0-.634.38.719.719,0,0,0,.05.74Zm1.426-.24a.7.7,0,0,0-.128-.4l-20.4-29.08H543.8l10.574,15.56a.708.708,0,0,0,.59.32.708.708,0,0,0,.59-.32s8.994-13.34,10.5-15.56h16.276c-3.854,5.48-20.474,29.08-20.474,29.08a.7.7,0,0,0-.13.4v27.18H548.048Z" transform="translate(525.434 4169.17)" fill="#4375bd" fill-rule="evenodd"/>
    <path id="Path_993" data-name="Path 993" d="M390.919-1427.291c-4.606-5.22-8.426-11.16-12.314-16.9-6.314-9.34-12.454-18.78-19.24-27.8-3.834-5.08-8.236-9.74-12.27-14.66q-7.956-9.72-15.188-20c-13.774-19.6-25.64-40.74-33.974-63.24-5.916-15.98-10.054-32.74-11.144-49.76a132.631,132.631,0,0,1,.092-18.68,119.641,119.641,0,0,1,1.592-12.32,114.138,114.138,0,0,1,2.92-12.16,74.666,74.666,0,0,1,3.358-9.14c.91-2.08,1.91-4.16,2.99-6.16,5.834-10.8,14.6-21.2,26.686-25.02a47.908,47.908,0,0,1,7.294-1.66c17.558-2.56,67.018,14.86,50.154,12.08-188.842-31.28,11.4,312.36,116.492,324.68,2.7.32-5.732,1.88-8.506,2.36-8.114,1.38-16.458-.3-24.1-3.08-13.064-4.74-24.89-12.72-35.762-21.24-4.51-3.54-8.944-7.32-13.206-11.14-4.03-3.62-7.988-7.4-11.826-11.24Q397.712-1419.6,390.919-1427.291Z" transform="translate(286.505 4002.911)" fill="#679deb" fill-rule="evenodd"/>
    <path id="Path_994" data-name="Path 994" d="M402.724-1397.344c-4.606-5.22-8.426-11.16-12.314-16.92-6.314-9.34-12.454-18.78-19.24-27.8-3.834-5.08-8.236-9.72-12.27-14.66q-7.956-9.72-15.188-20c-13.772-19.6-25.64-40.74-33.974-63.24-5.916-15.98-10.054-32.72-11.144-49.76a132.646,132.646,0,0,1,.092-18.68,119.675,119.675,0,0,1,1.592-12.32,113.808,113.808,0,0,1,2.92-12.14,74.939,74.939,0,0,1,3.358-9.16c.91-2.08,1.91-4.14,2.99-6.14,5.834-10.8,14.6-21.22,26.686-25.02a43.563,43.563,0,0,1,7.294-1.66c17.558-2.58,34.556,5.06,50.154,12.06,17.378,7.78,35.738,16.88,55.366,15.34a66.492,66.492,0,0,0,14.378-2.82,62.235,62.235,0,0,0,13.306-5.9,70.677,70.677,0,0,0,19.61-17.88,146.555,146.555,0,0,0,11.582-18.2c3.964-7.12,7.58-14.4,11.646-21.48,3.452-6,7.55-12,12.956-16.4a28.549,28.549,0,0,1,8.218-4.78,54.308,54.308,0,0,1,7.43-1.86c4.014-.8,8.062-1.46,12.132-1.92,11.864-1.32,24.038-.9,35.52,2.58a70.19,70.19,0,0,1,12.308,5.08,85.908,85.908,0,0,1,19.528,14.6c7.558,7.34,14.1,15.64,21.2,23.42,4.454,4.88,9.408,9.56,15.158,12.88a36.444,36.444,0,0,0,6.914,3.14c8.426,3.02,17.668,1.5,25.966-1.12,2.242-.7,5.572-1.88,7.738-2.76,8.456-3.4,16.68-7.3,25-11.02,8.41-3.78,16.884-7.52,25.726-10.2,10.49-3.16,22.448-5.18,32.85-.62a28.867,28.867,0,0,1,4.9,2.76,32.783,32.783,0,0,1,5.952,5.4,45.8,45.8,0,0,1,6.718,10.62,52.959,52.959,0,0,1,3.29,9.2c4.938,19.22-1.178,39.48-10,56.58-2.02,3.92-4.25,7.76-6.6,11.48a166.617,166.617,0,0,1-10.938,15.4c-2.632,3.3-5.344,6.52-8,9.78-7.9,9.7-15.756,20.12-18.168,32.7a49.3,49.3,0,0,0-.876,11.8c.828,16.46,10.262,30.48,18.2,44.32,6.5,11.32,12.876,23.5,12.224,36.96a41.439,41.439,0,0,1-1.036,7.44,51.419,51.419,0,0,1-4.484,11.88c-6.652,12.92-16.164,24.42-26.328,34.72a228.237,228.237,0,0,1-33.314,27.78,210.963,210.963,0,0,1-38.17,21.06c-15.4,6.42-32.128,11.04-48.94,10.58a54.2,54.2,0,0,1-15.382-2.52c-7.432-2.44-14.176-6.54-21.454-9.36a68.379,68.379,0,0,0-24.9-4.62c-10.1,0-20.44.86-29.834,4.84-5.382,2.28-10.184,5.62-15.21,8.54a84.041,84.041,0,0,1-15.674,7.26,59.126,59.126,0,0,1-8.506,2.36c-8.114,1.38-16.458-.3-24.1-3.08-13.064-4.74-24.89-12.72-35.762-21.24-4.51-3.54-8.944-7.3-13.206-11.14-4.03-3.62-7.988-7.4-11.826-11.22Q409.517-1389.655,402.724-1397.344Z" transform="translate(298.31 3968.584)" fill="#81b4fd" fill-rule="evenodd"/>
    <path id="Path_995" data-name="Path 995" d="M494.323-1351.816c-87.648,54.44-138.106,16.06-95.148-95.64,28.436-73.94-145.24-49.6-116.306-131.1,14.336-40.38,135.928,28.96,104.13-88-15.868-58.36,40.928-105.22,99.1-19.02,103.916,154,165.872-102.02,271.292-50.28,81.15,39.8-135.19,129.92-23,186.66,92.914,47,36.934,162.76-27.362,143.14C624.739-1431.156,596.721-1415.416,494.323-1351.816Z" transform="translate(279.604 3965.076)" fill="#c3e2fe" fill-rule="evenodd"/>
    <path id="Path_996" data-name="Path 996" d="M459.457-1682.95l-68.8,21.18c-11.978,54.58-19.4,107.22-2.692,149.54l7.824,3.7-17.556,106.18c57.908-29.58,121.578-86.4,188.894-73.46l-18.964-44.28,25.4-6.7c4.786-48.16-7.786-94.64-31.494-140.08l-48.984-15.88Z" transform="translate(378.228 4025.01)" fill="#fffdff" fill-rule="evenodd"/>
    <path id="Path_997" data-name="Path 997" d="M403.147-1678.12s13.1,40.32,11.694,40.34c-1.41.04,8.128-.52,8.128-.52l-8.128,9.9,18.388,20.24-8.058,46.84-18.2,5.16.578-6.9,11.08-5.78,6.54-37.84-16.618-18.56v-10.3Z" transform="translate(403.147 4029.84)" fill="#bee3f5" fill-rule="evenodd"/>
    <path id="Path_998" data-name="Path 998" d="M463.675-1678.12l-11.292,44.04-8.026-4.22,5.46,12.32-10.672.74,19.988,56.4-15.7-53,10.7-.48-4.318-9.96,4.36,1.26Z" transform="translate(439.145 4029.84)" fill="#bee3f5" fill-rule="evenodd"/>
    <path id="Path_999" data-name="Path 999" d="M446.921-1698.881c-9.47,1.7-26.54-19.52-26.778-2.52-.178,12.72-9.492,12.38-10.554,22.34-.434,4.06,2.786,7.04,1,11.2-1.166,2.72-15.156,19.56-10.624,21.82,4.232,2.12,12.718-4.48,16.8-5.6,5.13-1.4,10.384-3.98,15.652-4.74,11.238-1.6,22.942-1.3,34.318-1.3,9.768,0,16.52,5.98,25.722,9.04,3.382,1.12,16.17,18.5,20.55,9.24,9.688-20.48-8.024-28.98-20.14-33.5-5.44-2.02,3.882-14.3-2.3-21.24a25.45,25.45,0,0,0-13.21-7.46c-4.86-.98-11.182-.52-16.082,0C456.439-1701.1,451.7-1699.741,446.921-1698.881Z" transform="translate(399.069 3999.921)" fill="#170f4b" fill-rule="evenodd"/>
    <path id="Path_1000" data-name="Path 1000" d="M474.424-1677.009c-5.692,10.34-23.226.26-33.722-3.24-4.678-1.56-9.644-2.08-14.324-3.64-4.376-1.46-10.2,5.74-14.556-.64-4.994-7.3.066-16.38-.288-20.98-1.538-20,8.96-26.94,26.3-29.42,8.868-1.26,19.054.18,26.3,5.98,10.714,8.58,12.666,19.3,10.1,30.64C472.62-1691.149,479.924-1686.989,474.424-1677.009Z" transform="translate(409.606 3972.609)" fill="#170f4b" fill-rule="evenodd"/>
    <path id="Path_1001" data-name="Path 1001" d="M418.842-1679.01l7.234,50.28,17.736,4.38,5.658-33.74Z" transform="translate(418.842 4028.95)" fill="#bee3f5" fill-rule="evenodd"/>
    <path id="Path_1002" data-name="Path 1002" d="M421.692-1689.708c-3.962,7.94-2.82,8.8-3.012,10.14a47.931,47.931,0,0,0,0,13.7c2.014,14.1,3.546,44.84,23,39.96,9.17-2.28,8.878-18.36,10.406-26,2.288-11.44,1.916-46.56-13.144-46.56-2.142,0-5.47-.28-6.844,1.1C428.99-1694.248,424.132-1694.588,421.692-1689.708Z" transform="translate(418.188 4009.468)" fill="#e05d58" fill-rule="evenodd"/>
    <path id="Path_1003" data-name="Path 1003" d="M426.365-1722.54s4.754,11.32-2.274,15.68c-2.532,1.58-5.15,3.08-6.772,4.7-.414.4-1.77,2.6-1.822,2.6-2.046,0-5.074-5.62-8.074,3.38-.486,1.46,0,3.94,0,5.48,0,13.64,8.488,7.52,11.458,11.96,2.226,3.34,3.364,8.02,4.948,11.72,3.992,9.32,15.664,16.9,25.782,15.64,11.3-1.42,22.36-11.98,23.96-23.18.308-2.16-.15-6.48.78-8.34,1.56-3.12,13.642-2.9,8.856-14.06-1.01-2.36-3-3.82-6.188-1.82-4.458,2.82-7.53-11.46-12.074-14.12C457.649-1717.16,426.365-1716.82,426.365-1722.54Z" transform="translate(407.207 3985.42)" fill="#e4949a" fill-rule="evenodd"/>
    <path id="Path_1004" data-name="Path 1004" d="M428.434-1606.406a24.567,24.567,0,0,0-2.992-8.7,31.655,31.655,0,0,0-3.892-4.92c-.578-.7-1.106-1.44-1.664-2.14-1.738-2.24-3.436-4.68-5.936-6.12a23.423,23.423,0,0,0-8.92-2.46c-4.458-.5-8.92-.28-13.4-.36-1.546-.02-3.09-.14-4.636-.18-.886-.02-1.776,0-2.662.04a5.714,5.714,0,0,0-.824.14c-.048,0-.314.1-.262.24a2.535,2.535,0,0,0,.922,1.16,21.156,21.156,0,0,0,4.818,2.72,61.094,61.094,0,0,0,12.33,4.26c1.16.24,2.092.24,3.248.44a3.921,3.921,0,0,1,1.274.28c.1.04-.148.18-.25.24a2.867,2.867,0,0,1-.574.22c-.342.08-.688.18-1.04.24-1.292.2-2.578.28-3.886.36-3.568.2-7.25.24-10.8.78a10.5,10.5,0,0,0-2.578.66c-.156.08-.35.14-.436.28a.474.474,0,0,0,0,.48,8.4,8.4,0,0,0,2.136,1.5c3.628,1.84,7.7,1.34,11.606,1.52.456.02-.914.04-1.366.1-.628.08-1.25.2-1.87.32-.718.14-1.434.32-2.142.52-.736.2-1.468.42-2.184.68-.68.26-1.342.56-2,.88-1.21.58-3.17,1.94-2.554,3.56.632,1.66,3.008,1.54,4.428,1.44a11.024,11.024,0,0,0,1.4-.14c1-.16,2-.32,3-.52,1.9-.38,3.786-.84,5.692-1.2a17.789,17.789,0,0,1,2.062-.28c.132,0,.962-.02,1.12.24.086.12.022.3,0,.46a3.058,3.058,0,0,1-1.978,2.1c-2.714,1.36-5.68,2.1-8.322,3.6-.79.44-1.616,1.22-1.344,2.22.18.66,1.284.98,1.748,1.12a20.662,20.662,0,0,0,3.808.5c1.458.08,3.75.08,5.18.02a153.885,153.885,0,0,0,16.872-1.6c1.262-.18,2.516-.42,3.77-.68a6.878,6.878,0,0,0,1.694-.52A4.633,4.633,0,0,0,428.434-1606.406Z" transform="translate(383.244 4076.666)" fill="#fab0ab" fill-rule="evenodd"/>
    <path id="Path_1005" data-name="Path 1005" d="M386.964-1561.072c28.234,10.82,111.2-32.28,176.374-59.04,1.852-2.78-19.928-3.06-19.954-5.52-.02-2.02,12.43.98,14.386-1.82-13.916-2.5-20.05-7.22-25.1,1.52Z" transform="translate(386.964 4076.972)" fill="#bee3f5" fill-rule="evenodd"/>
    <path id="Path_1006" data-name="Path 1006" d="M378.228-1612.28l3.846,29.92c.742,5.86,3.918,9.42,9.594,12.82,18.13,6.68,83.8-23.26,128.382-38.34l-9.316-15.6c-27.06,7-54.21,10.18-82.668,14.54C409.452-1606.1,395.662-1607.92,378.228-1612.28Z" transform="translate(378.228 4084.48)" fill="#fefeff" fill-rule="evenodd"/>
    <path id="Path_1007" data-name="Path 1007" d="M444.493-1604.655c-.276,4.24,4.61,11.1,7.722,14.2,5.864,5.86,22.068-11.96,25.948-15.84,2.374-2.38,2.384-6.74,4.7-9.06,2.646-2.64,16.564,1.7,17.416,0,.15-.3-.46-1.28-.7-1.4-1.464-.72-3.35.16-4.876-.34-3.226-1.08-8.09-1.82-10.45-4.18-.286-.3.814,0,1.22,0a24,24,0,0,1,5.224.34c2.28.58,12.554,2.42,14.456.52,4.1-4.08-12.094-4.7-13.584-4.7-1.336,0-2.444-.86-3.484-.86-.422,0-1.518-.06-1.22-.36,2.984-2.98,16.024,1.38,16.024-3.12a3.085,3.085,0,0,0-.522-2.28c-2.834-2.82-19.87.68-21.074-1.74-2.852-5.7,28.536-2.28,19.158-8.52-3.46-2.32-17.012-.84-24.516,1.86-6.02,2.18-9.338,16.2-20.82,34.78C454.133-1603.755,445.651-1604.375,444.493-1604.655Z" transform="translate(444.481 4064.815)" fill="#ffaf9a" fill-rule="evenodd"/>
    <path id="Path_1008" data-name="Path 1008" d="M441.638-1647.378l-3.354-35.22a.861.861,0,0,0-.934-.78.866.866,0,0,0-.77.94l3.354,35.22a.86.86,0,0,0,.934.76A.846.846,0,0,0,441.638-1647.378Z" transform="translate(436.576 4024.578)" fill="#1c1c1c" fill-rule="evenodd"/>
    <path id="Path_1009" data-name="Path 1009" d="M423.639-1682.618l-5.316,47.44c-5.92,1.4-9.638,3.18-11.968,6.2-1.814,2.34-2.8,5.44-3.268,9.76a134.949,134.949,0,0,0-.262,16.34c.188,8.04.658,12.98,1.664,16.02a6.906,6.906,0,0,0,3.206,4.3,11.506,11.506,0,0,0,5.6.9.843.843,0,0,0,.846-.86.848.848,0,0,0-.864-.84,9.9,9.9,0,0,1-4.778-.72c-1.366-.72-2.208-2.18-2.814-4.88-.672-3.02-1-7.44-1.148-13.96a132.937,132.937,0,0,1,.252-16.12c.424-3.92,1.27-6.76,2.92-8.9,2.208-2.86,5.83-4.4,11.586-5.7a.858.858,0,0,0,.662-.74l5.382-48.04a.866.866,0,0,0-.754-.96A.877.877,0,0,0,423.639-1682.618Z" transform="translate(402.719 4024.578)" fill="#1c1c1c" fill-rule="evenodd"/>
    <path id="Path_1010" data-name="Path 1010" d="M415.165-1605.466h9.656a.843.843,0,0,0,.846-.72c1.23-8.7,1.254-18.32,1.466-26.8.208-8.4-1.224-17.16-4.872-22.16-2.584-3.56-6.236-5.32-11.168-3.98a.872.872,0,0,0-.6,1.06.855.855,0,0,0,1.05.6c5.2-1.42,8.68,1.32,10.854,5.92,2.32,4.88,3.192,11.84,3.026,18.52-.2,8.18-.226,17.42-1.348,25.86h-8.908a.855.855,0,0,0-.856.86A.851.851,0,0,0,415.165-1605.466Z" transform="translate(410.461 4048.386)" fill="#1c1c1c" fill-rule="evenodd"/>
    <path id="Path_1011" data-name="Path 1011" d="M411.958-1629.3h4.4v-4.867h-4.4Z" transform="translate(411.958 4073.796)" fill="#1c1c1c" fill-rule="evenodd"/>
    <path id="Path_1012" data-name="Path 1012" d="M406.793-1629.3h4.4v-4.867h-4.4Z" transform="translate(406.793 4073.796)" fill="#1c1c1c" fill-rule="evenodd"/>
    <path id="Path_1013" data-name="Path 1013" d="M443.4-1665.34a9.248,9.248,0,0,1,9.246,9.24,9.248,9.248,0,0,1-9.246,9.24,9.247,9.247,0,0,1-9.246-9.24A9.246,9.246,0,0,1,443.4-1665.34Z" transform="translate(434.156 4042.62)" fill="#bab9b8" fill-rule="evenodd"/>
    <path id="Path_1014" data-name="Path 1014" d="M441.289-1663.23a5.029,5.029,0,0,1,5.018,5.02,5.029,5.029,0,0,1-5.018,5.02,5.03,5.03,0,0,1-5.02-5.02A5.03,5.03,0,0,1,441.289-1663.23Z" transform="translate(436.269 4044.73)" fill="#8b8f8f" fill-rule="evenodd"/>
    <path id="Path_1015" data-name="Path 1015" d="M353.31-1647.63a26.938,26.938,0,0,1,26.934,26.92,26.942,26.942,0,0,1-26.934,26.94,26.942,26.942,0,0,1-26.932-26.94A26.937,26.937,0,0,1,353.31-1647.63Z" transform="translate(326.378 4060.33)" fill="#c3e2fe" fill-rule="evenodd"/>
    <path id="Path_1016" data-name="Path 1016" d="M353.988-1648.31a28.3,28.3,0,0,0-28.288,28.28,28.307,28.307,0,0,0,28.288,28.3,28.307,28.307,0,0,0,28.288-28.3A28.3,28.3,0,0,0,353.988-1648.31Zm0,1.36a26.938,26.938,0,0,1,26.934,26.92,26.942,26.942,0,0,1-26.934,26.94,26.942,26.942,0,0,1-26.932-26.94A26.937,26.937,0,0,1,353.988-1646.95Z" transform="translate(325.7 4059.65)" fill="#fff" fill-rule="evenodd"/>
    <path id="Path_1017" data-name="Path 1017" d="M341.247-1635.6l2.358-.02.072,4.7,4.716-.04.036,2.36-4.716.04.074,4.72-2.358.02-.074-4.7-4.714.04-.038-2.36,4.716-.04Z" transform="translate(336.603 4072.34)" fill="#c3e2fe" fill-rule="evenodd"/>
    <path id="Path_1018" data-name="Path 1018" d="M341.908-1636.28a1.336,1.336,0,0,0-.954.42,1.34,1.34,0,0,0-.384.96l.052,3.36-3.356.04a1.324,1.324,0,0,0-.956.4,1.4,1.4,0,0,0-.384.98l.036,2.34a1.344,1.344,0,0,0,1.37,1.34l3.368-.04.052,3.36a1.343,1.343,0,0,0,1.37,1.34l2.356-.02a1.344,1.344,0,0,0,.956-.42,1.34,1.34,0,0,0,.384-.96l-.052-3.36,3.356-.04a1.317,1.317,0,0,0,.954-.4,1.339,1.339,0,0,0,.384-.96l-.036-2.36a1.357,1.357,0,0,0-1.37-1.34l-3.366.04-.052-3.36a1.357,1.357,0,0,0-1.37-1.34Zm.016,1.36,2.358-.02.072,4.7,4.716-.04.036,2.36-4.716.04.074,4.72-2.358.02-.074-4.7-4.714.04-.038-2.36,4.716-.04Z" transform="translate(335.926 4071.66)" fill="#fff" fill-rule="evenodd"/>
    <path id="Path_1019" data-name="Path 1019" d="M332.67-1638.51a1.351,1.351,0,0,0-.966.4,1.354,1.354,0,0,0-.4.96l.042,20.56a1.348,1.348,0,0,0,1.352,1.34l31.4.1a1.337,1.337,0,0,0,.96-.4,1.361,1.361,0,0,0,.4-.96l-.02-20.4a1.358,1.358,0,0,0-1.344-1.36Zm-.01,1.36.044,20.56,31.4.08-.02-20.4Z" transform="translate(331.306 4069.45)" fill="#fff" fill-rule="evenodd"/>
    <path id="Path_1020" data-name="Path 1020" d="M337.548-1635.38l.122-4.42h10.558l.076,4.44a.659.659,0,0,0,.688.66.663.663,0,0,0,.666-.68l-.086-5.12a.679.679,0,0,0-.678-.66l-11.882.02a.668.668,0,0,0-.676.66l-.142,5.06a.683.683,0,0,0,.658.7A.7.7,0,0,0,337.548-1635.38Z" transform="translate(336.194 4066.8)" fill="#fff" fill-rule="evenodd"/>
    <path id="Path_1021" data-name="Path 1021" d="M380.878-1710.08a34.407,34.407,0,0,1,34.384,34.38,34.412,34.412,0,0,1-34.384,34.4,34.411,34.411,0,0,1-34.382-34.4A34.407,34.407,0,0,1,380.878-1710.08Z" transform="translate(346.496 3997.88)" fill="#c3e2fe" fill-rule="evenodd"/>
    <path id="Path_1022" data-name="Path 1022" d="M381.555-1710.75a35.741,35.741,0,0,0-35.736,35.72,35.745,35.745,0,0,0,35.736,35.74,35.747,35.747,0,0,0,35.738-35.74A35.743,35.743,0,0,0,381.555-1710.75Zm0,1.34a34.407,34.407,0,0,1,34.384,34.38,34.412,34.412,0,0,1-34.384,34.4,34.411,34.411,0,0,1-34.382-34.4A34.407,34.407,0,0,1,381.555-1709.41Z" transform="translate(345.819 3997.21)" fill="#fff" fill-rule="evenodd"/>
    <path id="Path_1023" data-name="Path 1023" d="M360.417-1699.615a.818.818,0,0,0-.32-.3.662.662,0,0,0-.466-.04.662.662,0,0,0-.484.48.613.613,0,0,0,.026.44,1.918,1.918,0,0,0,.39.5c1.8,1.76,13.128,11.68,13.128,11.68a.707.707,0,0,0,.524.16.661.661,0,0,0,.474-.28l3.77-5.3a.669.669,0,0,0-.132-.92l-13.386-10.6a.679.679,0,0,0-.95.1.687.687,0,0,0,.11.96l12.882,10.2-2.964,4.16c-2.3-2.02-10.952-9.6-12.508-11.14A.38.38,0,0,1,360.417-1699.615Zm-.846.96a.7.7,0,0,0,.182.04A.583.583,0,0,1,359.57-1698.655Z" transform="translate(359.117 4004.015)" fill="#fff" fill-rule="evenodd"/>
    <path id="Path_1024" data-name="Path 1024" d="M372.111-1682.05c-2.862.24-4.656.58-7.338-.56-3.426-1.46-3.6-5.36-2.372-8.04a22.69,22.69,0,0,1,3.994-5.42,10.214,10.214,0,0,1,.82-.7.677.677,0,0,0,.572-.58.688.688,0,0,0-.59-.76,1.172,1.172,0,0,0-.484.08,3.478,3.478,0,0,0-.712.48,24.3,24.3,0,0,0-4.83,6.34c-1.518,3.3-1.148,8.04,3.07,9.84,2.956,1.26,4.916.92,8.1.66a1.135,1.135,0,0,0,.85-.5,2.833,2.833,0,0,0,.41-1.2,18.788,18.788,0,0,0-.106-4.04.7.7,0,0,0-.764-.58.7.7,0,0,0-.58.78,16.351,16.351,0,0,1,.11,3.64A2.79,2.79,0,0,1,372.111-1682.05Z" transform="translate(360.355 4009.85)" fill="#fff" fill-rule="evenodd"/>
    <path id="Path_1025" data-name="Path 1025" d="M365.931-1690.809l11.976-.68a.679.679,0,0,0,.638-.72.69.69,0,0,0-.714-.64l-11.976.68a.68.68,0,0,0-.64.72A.691.691,0,0,0,365.931-1690.809Z" transform="translate(365.215 4015.109)" fill="#fff" fill-rule="evenodd"/>
    <path id="Path_1026" data-name="Path 1026" d="M383.128-1685.207c.014,3,.678,3.8-1.164,6.24a7.972,7.972,0,0,1-1.37,1.76c-7.884,5.38-20.094,3.12-22.14-6.34a13.4,13.4,0,0,1,2.442-10.58c1.222-1.72,3.146-2.9,4.886-4.16a.673.673,0,0,0,.154-.94.679.679,0,0,0-.944-.16c-1.862,1.34-3.9,2.64-5.2,4.48a14.744,14.744,0,0,0-2.658,11.66c2.244,10.36,15.578,13.06,24.228,7.14a8.615,8.615,0,0,0,1.684-2.04c2.094-2.76,1.456-3.66,1.44-7.08a.675.675,0,0,0-.68-.66A.672.672,0,0,0,383.128-1685.207Z" transform="translate(356.842 4008.447)" fill="#fff" fill-rule="evenodd"/>
    <path id="Path_1027" data-name="Path 1027" d="M368.778-1687.129l-14.736.46a.682.682,0,0,0-.656.7l.16,5.68a.689.689,0,0,0,.688.66l41.37-.64a.7.7,0,0,0,.476-.2.689.689,0,0,0,.19-.48l-.11-6.42a.677.677,0,0,0-.674-.66s-16.628-.08-17.85-.02a.68.68,0,0,0-.638.72.69.69,0,0,0,.714.64c1.07-.06,14.01,0,17.106,0l.086,5.08-40.024.6-.122-4.32,14.062-.44a.693.693,0,0,0,.656-.7A.671.671,0,0,0,368.778-1687.129Z" transform="translate(353.386 4019.889)" fill="#fff" fill-rule="evenodd"/>
    <path id="Path_1028" data-name="Path 1028" d="M364.3-1704.262a2.021,2.021,0,0,0-1.676-.54,5.386,5.386,0,0,0-2.972,1.66,5.4,5.4,0,0,0-1.618,3,2,2,0,0,0,.574,1.66,2.028,2.028,0,0,0,1.676.56,5.391,5.391,0,0,0,2.972-1.66,5.449,5.449,0,0,0,1.616-3A2.063,2.063,0,0,0,364.3-1704.262Zm-.95.98c.462.44-.014,1.68-1.06,2.74s-2.27,1.56-2.732,1.1.012-1.68,1.06-2.74S362.892-1703.742,363.354-1703.282Z" transform="translate(358.03 4003.142)" fill="#fff" fill-rule="evenodd"/>
    <path id="Path_1029" data-name="Path 1029" d="M521.968-1686.89a40.031,40.031,0,0,1,40.02,40.02,40.044,40.044,0,0,1-40.02,40.02,40.044,40.044,0,0,1-40.02-40.02A40.031,40.031,0,0,1,521.968-1686.89Z" transform="translate(481.948 4021.07)" fill="#c3e2fe" fill-rule="evenodd"/>
    <path id="Path_1030" data-name="Path 1030" d="M522.645-1687.57a41.4,41.4,0,0,0-41.374,41.38,41.392,41.392,0,0,0,41.374,41.36,41.391,41.391,0,0,0,41.374-41.36A41.4,41.4,0,0,0,522.645-1687.57Zm0,1.36a40.031,40.031,0,0,1,40.02,40.02,40.044,40.044,0,0,1-40.02,40.02,40.044,40.044,0,0,1-40.02-40.02A40.031,40.031,0,0,1,522.645-1686.21Z" transform="translate(481.271 4020.39)" fill="#fff" fill-rule="evenodd"/>
    <path id="Path_1031" data-name="Path 1031" d="M502.451-1647.741c1.862,4.18,5.442,4.94,7.458,4.54,1.744-.36,11.652-5.54,16.94-9.58a6.1,6.1,0,0,0,2.5-3.74c.358-1.92-.366-3.96-1.514-5.96a6.777,6.777,0,0,0-7.692-3.26c-2.02.66-13.028,6.6-15.768,7.92a5.984,5.984,0,0,0-3.014,2.82,6.522,6.522,0,0,0-.092,4.74A10.868,10.868,0,0,0,502.451-1647.741Zm2.51-8.86c2.714-1.3,13.61-7.2,15.61-7.86a5.417,5.417,0,0,1,6.088,2.66c.974,1.7,1.662,3.4,1.36,5.02a4.783,4.783,0,0,1-1.992,2.92c-5.124,3.9-14.694,8.98-16.384,9.32-1.632.34-4.478-.38-5.974-3.78a10.541,10.541,0,0,1-1.11-2.36,5.128,5.128,0,0,1,.028-3.74A4.766,4.766,0,0,1,504.961-1656.6Z" transform="translate(500.867 4041.941)" fill="#fff" fill-rule="evenodd"/>
    <path id="Path_1032" data-name="Path 1032" d="M509.311-1634.55h-1.66c-2.15,0-6.02.56-9.326-.1a7.161,7.161,0,0,1-3.948-2,6.7,6.7,0,0,1-1.528-4.92c.074-3.14.06-7.36.344-10.84a16.176,16.176,0,0,1,1.006-5.22c1.348-2.7,4.144-5.98,5.336-8.82a11.952,11.952,0,0,0,.794-2.46,1.484,1.484,0,0,0-.084-.88,2.512,2.512,0,0,0-.554-.68,4.176,4.176,0,0,1-1.306-1.6c-1.032-2.1-.344-3.7.614-5.58h18.564c.96,1.88,1.648,3.48.616,5.58a4.194,4.194,0,0,1-1.308,1.6,2.589,2.589,0,0,0-.554.68,1.488,1.488,0,0,0-.082.88,11.922,11.922,0,0,0,.792,2.46c1.194,2.84,3.99,6.12,5.338,8.82.782,1.56,1.05,4.84,1.184,8.32a.691.691,0,0,0,.7.66.693.693,0,0,0,.652-.72c-.144-3.7-.492-7.2-1.326-8.88-1.338-2.66-4.118-5.9-5.3-8.72a14.666,14.666,0,0,1-.632-1.8,4.264,4.264,0,0,1-.08-.46,1.676,1.676,0,0,1,.37-.36,5.281,5.281,0,0,0,1.46-1.88c1.318-2.68.45-4.7-.814-7.18a.681.681,0,0,0-.6-.36H498.585a.684.684,0,0,0-.6.36c-1.262,2.48-2.132,4.5-.812,7.18a5.279,5.279,0,0,0,1.46,1.88,1.769,1.769,0,0,1,.37.36,4.437,4.437,0,0,1-.082.46,14.29,14.29,0,0,1-.63,1.8c-1.184,2.82-3.964,6.06-5.3,8.72a17.7,17.7,0,0,0-1.144,5.72c-.286,3.52-.274,7.78-.348,10.92a8,8,0,0,0,1.886,5.88,8.529,8.529,0,0,0,4.672,2.4c3.4.7,7.386.14,9.6.14h1.262c.966,0,2.278.12,3.732.18a.681.681,0,0,0,.706-.66.686.686,0,0,0-.65-.7c-1.474-.06-2.808-.18-3.788-.18Z" transform="translate(491.491 4028.95)" fill="#fff" fill-rule="evenodd"/>
    <path id="Path_1033" data-name="Path 1033" d="M496.133-1673.14l16.9-.18a.68.68,0,0,0,.67-.68.686.686,0,0,0-.686-.68l-16.9.2a.667.667,0,0,0-.67.68A.658.658,0,0,0,496.133-1673.14Z" transform="translate(495.447 4033.28)" fill="#fff" fill-rule="evenodd"/>
    <path id="Path_1034" data-name="Path 1034" d="M495.649-1671.76l17.864-.16a.67.67,0,0,0,.672-.68.667.667,0,0,0-.684-.66l-17.864.14a.67.67,0,0,0-.672.68A.684.684,0,0,0,495.649-1671.76Z" transform="translate(494.965 4034.699)" fill="#fff" fill-rule="evenodd"/>
    <path id="Path_1035" data-name="Path 1035" d="M492.883-1667.37l28.846-.1a.673.673,0,0,0,.676-.68.675.675,0,0,0-.68-.66l-28.846.08a.674.674,0,0,0-.676.68A.679.679,0,0,0,492.883-1667.37Z" transform="translate(492.203 4039.15)" fill="#fff" fill-rule="evenodd"/>
    <path id="Path_1036" data-name="Path 1036" d="M492.171-1659.27l18.9-.02a.676.676,0,0,0,.676-.68.676.676,0,0,0-.678-.68l-18.9.02a.676.676,0,0,0-.676.68A.676.676,0,0,0,492.171-1659.27Z" transform="translate(491.493 4047.31)" fill="#fff" fill-rule="evenodd"/>
    <path id="Path_1037" data-name="Path 1037" d="M506.285-1662.295l6.79,12.08a.686.686,0,0,0,.922.26.677.677,0,0,0,.26-.92l-6.912-12.3a.658.658,0,0,0-.492-.34.662.662,0,0,0-.568.18l-.032.04a.659.659,0,0,0-.018.94Z" transform="translate(506.047 4044.435)" fill="#fff" fill-rule="evenodd"/>
    <path id="Path_1038" data-name="Path 1038" d="M499.431-1666.01v8.08a.677.677,0,0,0,.678.68.677.677,0,0,0,.678-.68v-8.08a.676.676,0,0,0-.678-.68A.676.676,0,0,0,499.431-1666.01Z" transform="translate(499.431 4041.27)" fill="#fff" fill-rule="evenodd"/>
    <path id="Path_1039" data-name="Path 1039" d="M498.037-1663.31h8.288a.676.676,0,0,0,.678-.68.677.677,0,0,0-.678-.68h-8.288a.676.676,0,0,0-.678.68A.676.676,0,0,0,498.037-1663.31Z" transform="translate(497.359 4043.29)" fill="#fff" fill-rule="evenodd"/>
    <path id="Path_1040" data-name="Path 1040" d="M489.863-1736.01a26.942,26.942,0,0,1,26.934,26.94,26.938,26.938,0,0,1-26.934,26.92,26.937,26.937,0,0,1-26.932-26.92A26.942,26.942,0,0,1,489.863-1736.01Z" transform="translate(462.931 3971.95)" fill="#c3e2fe" fill-rule="evenodd"/>
    <path id="Path_1041" data-name="Path 1041" d="M490.541-1736.69a28.307,28.307,0,0,0-28.288,28.3,28.3,28.3,0,0,0,28.288,28.28,28.3,28.3,0,0,0,28.288-28.28A28.307,28.307,0,0,0,490.541-1736.69Zm0,1.36a26.942,26.942,0,0,1,26.934,26.94,26.938,26.938,0,0,1-26.934,26.92,26.937,26.937,0,0,1-26.932-26.92A26.942,26.942,0,0,1,490.541-1735.33Z" transform="translate(462.253 3971.27)" fill="#fff" fill-rule="evenodd"/>
    <path id="Path_1042" data-name="Path 1042" d="M477.655-1724.083a6.144,6.144,0,0,1-2.046,8.44,6.123,6.123,0,0,1-8.44-2.04,6.141,6.141,0,0,1,2.046-8.44A6.158,6.158,0,0,1,477.655-1724.083Z" transform="translate(466.271 3980.943)" fill="#c3e2fe" fill-rule="evenodd"/>
    <path id="Path_1043" data-name="Path 1043" d="M479.488-1724.107a7.521,7.521,0,0,0-10.3-2.5,7.5,7.5,0,0,0-2.5,10.3,7.485,7.485,0,0,0,10.3,2.5A7.492,7.492,0,0,0,479.488-1724.107Zm-1.156.7a6.144,6.144,0,0,1-2.046,8.44,6.123,6.123,0,0,1-8.44-2.04,6.141,6.141,0,0,1,2.046-8.44A6.158,6.158,0,0,1,478.332-1723.407Z" transform="translate(465.594 3980.267)" fill="#fff" fill-rule="evenodd"/>
    <path id="Path_1044" data-name="Path 1044" d="M482.708-1727.548c.97-1.04.466-2.38-1.124-3.02a4.5,4.5,0,0,0-4.636.74c-.97,1.04-.466,2.38,1.124,3.02A4.5,4.5,0,0,0,482.708-1727.548Z" transform="translate(476.454 3977.068)" fill="#c3e2fe" fill-rule="evenodd"/>
    <path id="Path_1045" data-name="Path 1045" d="M482.885-1727.379a1.747,1.747,0,0,0,.518-1.44,2.486,2.486,0,0,0-1.694-1.82,4.694,4.694,0,0,0-4.794.78,1.741,1.741,0,0,0-.518,1.44,2.45,2.45,0,0,0,1.694,1.82A4.693,4.693,0,0,0,482.885-1727.379Zm-.21-.18a4.351,4.351,0,0,1-4.48.68,2.142,2.142,0,0,1-1.516-1.58,1.468,1.468,0,0,1,.444-1.2,4.312,4.312,0,0,1,4.48-.7,2.135,2.135,0,0,1,1.516,1.58A1.5,1.5,0,0,1,482.675-1727.559Z" transform="translate(476.383 3976.999)" fill="#fff" fill-rule="evenodd"/>
    <path id="Path_1046" data-name="Path 1046" d="M473.551-1726.763l-6,11.66a.685.685,0,0,0,.292.92.683.683,0,0,0,.912-.3l6.11-11.88a.648.648,0,0,0,.022-.56.592.592,0,0,0-.426-.38l-.04-.02a.662.662,0,0,0-.846.44A.646.646,0,0,0,473.551-1726.763Z" transform="translate(467.475 3980.603)" fill="#fff" fill-rule="evenodd"/>
    <path id="Path_1047" data-name="Path 1047" d="M480.647-1726.872l-3.126-3.9a.137.137,0,0,0-.2-.02.144.144,0,0,0-.022.2l3.126,3.9a.153.153,0,0,0,.2.02A.142.142,0,0,0,480.647-1726.872Z" transform="translate(477.267 3977.132)" fill="#fff" fill-rule="evenodd"/>
    <path id="Path_1048" data-name="Path 1048" d="M482.523-1730.4l-5.842,2.2a.149.149,0,0,0-.084.18.154.154,0,0,0,.184.1l5.842-2.2a.164.164,0,0,0,.084-.2A.163.163,0,0,0,482.523-1730.4Z" transform="translate(476.587 3977.558)" fill="#fff" fill-rule="evenodd"/>
    <path id="Path_1049" data-name="Path 1049" d="M471.733-1705.581c1.86,4.18,5.442,4.94,7.456,4.54,1.746-.36,11.652-5.54,16.94-9.58a6.1,6.1,0,0,0,2.5-3.74c.358-1.92-.368-3.96-1.516-5.96a6.776,6.776,0,0,0-7.692-3.26c-2.02.66-13.028,6.6-15.768,7.92a6,6,0,0,0-3.014,2.82,6.522,6.522,0,0,0-.092,4.74A10.839,10.839,0,0,0,471.733-1705.581Zm2.51-8.86c2.712-1.3,13.608-7.2,15.608-7.86a5.42,5.42,0,0,1,6.09,2.66c.974,1.7,1.662,3.4,1.358,5.02a4.782,4.782,0,0,1-1.992,2.92c-5.122,3.92-14.692,8.98-16.384,9.32-1.632.34-4.476-.38-5.974-3.78a10.645,10.645,0,0,1-1.11-2.36,5.128,5.128,0,0,1,.028-3.74A4.772,4.772,0,0,1,474.243-1714.441Z" transform="translate(470.147 3984.101)" fill="#fff" fill-rule="evenodd"/>
    <path id="Path_1050" data-name="Path 1050" d="M475.567-1720.135l6.79,12.08a.686.686,0,0,0,.922.26.675.675,0,0,0,.258-.92l-6.91-12.3a.664.664,0,0,0-.492-.34.667.667,0,0,0-.57.18l-.03.04a.655.655,0,0,0-.018.94C475.533-1720.175,475.549-1720.155,475.567-1720.135Z" transform="translate(475.327 3986.595)" fill="#fff" fill-rule="evenodd"/>
    <path id="Path_1051" data-name="Path 1051" d="M480.045-1727.466c-.666,1.24-.22,1.96.182,2.18a3.289,3.289,0,0,0,.876.2,19.646,19.646,0,0,0,3.674.22,2.7,2.7,0,0,0,2.21-1.92c.4-.92.122-1.74-.506-1.96-.438-.16-3.3-.48-3.98-.58h0a1.784,1.784,0,0,0-1.614.56,4.19,4.19,0,0,0-.838,1.28Zm2.372-1.38c.666.12,3.476.42,3.9.58a.507.507,0,0,1,.332.4,1.428,1.428,0,0,1-.122.88c-.364.82-.852,1.56-1.784,1.62a20.393,20.393,0,0,1-3.57-.2,3.992,3.992,0,0,1-.712-.16.458.458,0,0,1-.22-.28,1.619,1.619,0,0,1,.246-1.24,3.5,3.5,0,0,1,.744-1.16A1.325,1.325,0,0,1,482.417-1728.846Z" transform="translate(479.703 3978.606)" fill="#fff" fill-rule="evenodd"/>
    <path id="Path_1052" data-name="Path 1052" d="M482.865-1728.69h-.008c-.12-.42-.218-.38-.236-.26l-1.6,3.56a.242.242,0,0,0,.126.32.249.249,0,0,0,.33-.12l1.63-3.62-.228.14-.044-.48h-.01Z" transform="translate(480.999 3978.81)" fill="#fff" fill-rule="evenodd"/>
    <path id="Path_1053" data-name="Path 1053" d="M430.084-1558.68a7.071,7.071,0,0,0-1.858-1.12,4.956,4.956,0,0,0-1.8-.36,2.97,2.97,0,0,0-1.8.52,1.648,1.648,0,0,0-.7,1.38,1.306,1.306,0,0,0,.348.94,2.839,2.839,0,0,0,.914.66,8.606,8.606,0,0,0,1.276.48c.474.14.942.28,1.406.44a8.729,8.729,0,0,1,4.076,2.48,6.082,6.082,0,0,1,1.292,4.04,7.841,7.841,0,0,1-.566,3.04,6.223,6.223,0,0,1-1.654,2.34,7.5,7.5,0,0,1-2.668,1.52,11.656,11.656,0,0,1-3.584.52,13.2,13.2,0,0,1-7.688-2.46l2.438-4.58a9.512,9.512,0,0,0,2.524,1.68,6.208,6.208,0,0,0,2.466.56,2.968,2.968,0,0,0,2.074-.64,1.989,1.989,0,0,0,.682-1.46,2,2,0,0,0-.174-.86,1.821,1.821,0,0,0-.582-.66,4.218,4.218,0,0,0-1.058-.56c-.436-.18-.962-.38-1.58-.58q-1.1-.36-2.162-.78a6.447,6.447,0,0,1-1.886-1.12,5.158,5.158,0,0,1-1.334-1.74,6.251,6.251,0,0,1-.508-2.68,7.808,7.808,0,0,1,.536-2.96,6.649,6.649,0,0,1,1.51-2.26,6.721,6.721,0,0,1,2.378-1.46,9.186,9.186,0,0,1,3.148-.52,13.743,13.743,0,0,1,3.394.44,15,15,0,0,1,3.394,1.32Z" transform="translate(417.086 4143.08)" fill="#686868"/>
    <path id="Path_1054" data-name="Path 1054" d="M432.4-1553.34a5.692,5.692,0,0,0,.494,2.4,6.007,6.007,0,0,0,1.334,1.92,6.056,6.056,0,0,0,1.958,1.26,6.273,6.273,0,0,0,2.364.46,6.273,6.273,0,0,0,2.364-.46,6.261,6.261,0,0,0,1.974-1.26,5.921,5.921,0,0,0,1.348-1.92,5.723,5.723,0,0,0,.494-2.4,5.79,5.79,0,0,0-.494-2.4,5.92,5.92,0,0,0-1.348-1.92,6.256,6.256,0,0,0-1.974-1.26,6.268,6.268,0,0,0-2.364-.46,6.268,6.268,0,0,0-2.364.46,6.052,6.052,0,0,0-1.958,1.26,6.006,6.006,0,0,0-1.334,1.92A5.759,5.759,0,0,0,432.4-1553.34Zm-5.946,0a11.424,11.424,0,0,1,.9-4.54,11.271,11.271,0,0,1,2.5-3.66,11.307,11.307,0,0,1,3.814-2.46,13.282,13.282,0,0,1,4.888-.88,13.321,13.321,0,0,1,4.874.88,11.478,11.478,0,0,1,3.844,2.46,11.151,11.151,0,0,1,2.508,3.66,11.426,11.426,0,0,1,.9,4.54,11.427,11.427,0,0,1-.9,4.54,11.448,11.448,0,0,1-2.508,3.68,11.432,11.432,0,0,1-3.844,2.44,12.918,12.918,0,0,1-4.874.88,12.883,12.883,0,0,1-4.888-.88,11.261,11.261,0,0,1-3.814-2.44,11.574,11.574,0,0,1-2.5-3.68A11.425,11.425,0,0,1,426.457-1553.34Z" transform="translate(426.457 4143.08)" fill="#686868"/>
    <path id="Path_1055" data-name="Path 1055" d="M452.9-1559.76h-6.846v3.66h6.236v4.82h-6.236v8.58h-5.686v-21.88H452.9Z" transform="translate(440.367 4143.38)" fill="#686868"/>
    <path id="Path_1056" data-name="Path 1056" d="M457.656-1559.76v17.06H451.97v-17.06H447.3v-4.82h15.026v4.82Z" transform="translate(447.3 4143.38)" fill="#686868"/>
    <path id="Path_1057" data-name="Path 1057" d="M461.485-1564.58l3.772,14.14,4.642-14.14h4.524l4.642,14.14,3.772-14.14h5.946l-6.526,21.88h-5.8l-4.294-12.68-4.294,12.68h-5.8l-6.526-21.88Z" transform="translate(455.539 4143.38)" fill="#686868"/>
    <path id="Path_1058" data-name="Path 1058" d="M485.665-1550.82l-2.554-7.28-2.552,7.28Zm1.508,4.32h-8.122l-1.306,3.8h-6.062l8.324-21.88h6.208l8.326,21.88h-6.062Z" transform="translate(471.683 4143.38)" fill="#686868"/>
    <path id="Path_1059" data-name="Path 1059" d="M490.046-1554.8h1.072a4.169,4.169,0,0,0,2.582-.7,2.359,2.359,0,0,0,.9-2,2.384,2.384,0,0,0-.9-2,4.169,4.169,0,0,0-2.582-.7h-1.072Zm12.5,12.1H495.47l-5.424-8.42v8.42H484.36v-21.88h8.848a8.631,8.631,0,0,1,3.19.54,6.17,6.17,0,0,1,2.248,1.46,6.174,6.174,0,0,1,1.336,2.16,7.444,7.444,0,0,1,.448,2.6,6.463,6.463,0,0,1-1.2,4.06,6.2,6.2,0,0,1-3.552,2.1Z" transform="translate(484.36 4143.38)" fill="#686868"/>
    <path id="Path_1060" data-name="Path 1060" d="M507.088-1559.76H500.33v3.66h6.382v4.82H500.33v3.76h6.758v4.82H494.644v-21.88h12.444Z" transform="translate(494.644 4143.38)" fill="#686868"/>
  </g>
</svg>
